AsbirMono-Thin.ufo
<glyph name="uni0022" format="2">
  <advance width="600"/>
  <unicode hex="0022"/>
  <outline>
    <contour>
      <point x="198.2243039375823" y="551.344753805519" type="line"/>
      <point x="158.2243039375823" y="461.34475380551896" type="line"/>
      <point x="141.7756960624177" y="468.65524619448104" type="line"/>
      <point x="181.7756960624177" y="558.655246194481" type="line"/>
    </contour>
    <contour>
      <point x="318.2243039375823" y="558.655246194481" type="line"/>
      <point x="358.2243039375823" y="468.65524619448104" type="line"/>
      <point x="341.7756960624177" y="461.34475380551896" type="line"/>
      <point x="301.7756960624177" y="551.344753805519" type="line"/>
    </contour>
  </outline>
</glyph>
<glyph name="uni0028" format="2">
  <advance width="600"/>
  <unicode hex="0028"/>
  <outline>
    <contour>
      <point x="150" y="80" type="line"/>
      <point x="186" y="80" type="line"/>
      <point x="186" y="620" type="line"/>
      <point x="150" y="620" type="line"/>
    </contour>
  </outline>
</glyph>
<glyph name="uni0029" format="2">
  <advance width="600"/>
  <unicode hex="0029"/>
  <outline>
    <contour>
      <point x="314" y="80" type="line"/>
      <point x="350" y="80" type="line"/>
      <point x="350" y="620" type="line"/>
      <point x="314" y="620" type="line"/>
    </contour>
  </outline>
</glyph>
<glyph name="uni002C" format="2">
  <advance width="600"/>
  <unicode hex="002C"/>
  <outline>
    <contour>
      <point x="268.0" y="35" type="curve"/>
      <point x="268.0" y="44.9411255"/>
      <point x="259.9411255" y="53.0"/>
      <point x="250" y="53.0" type="curve"/>
      <point x="240.0588745" y="53.0"/>
      <point x="232.0" y="44.9411255"/>
      <point x="232.0" y="35" type="curve"/>
      <point x="232.0" y="25.0588745"/>
      <point x="240.0588745" y="17.0"/>
      <point x="250" y="17.0" type="curve"/>
      <point x="259.9411255" y="17.0"/>
      <point x="268.0" y="25.0588745"/>
    </contour>
    <contour>
      <point x="258.5718173247939" y="17.257018456065946" type="line"/>
      <point x="218.57181732479393" y="-107.74298154393405" type="line"/>
      <point x="201.42818267520607" y="-102.25701845606595" type="line"/>
      <point x="241.42818267520607" y="22.742981543934054" type="line"/>
    </contour>
  </outline>
</glyph>
<glyph name="uni002D" format="2">
  <advance width="600"/>
  <unicode hex="002D"/>
  <outline>
    <contour>
      <point x="90" y="260" type="line"/>
      <point x="410" y="260" type="line"/>
      <point x="410" y="296" type="line"/>
      <point x="90" y="296" type="line"/>
    </contour>
  </outline>
</glyph>
<glyph name="uni002E" format="2">
  <advance width="600"/>
  <unicode hex="002E"/>
  <outline>
    <contour>
      <point x="268.0" y="35" type="curve"/>
      <point x="268.0" y="44.9411255"/>
      <point x="259.9411255" y="53.0"/>
      <point x="250" y="53.0" type="curve"/>
      <point x="240.0588745" y="53.0"/>
      <point x="232.0" y="44.9411255"/>
      <point x="232.0" y="35" type="curve"/>
      <point x="232.0" y="25.0588745"/>
      <point x="240.0588745" y="17.0"/>
      <point x="250" y="17.0" type="curve"/>
      <point x="259.9411255" y="17.0"/>
      <point x="268.0" y="25.0588745"/>
    </contour>
  </outline>
</glyph>
<glyph name="uni0030" format="2">
  <advance width="600"/>
  <unicode hex="0030"/>
  <outline>
    <contour>
      <point x="430" y="350" type="curve" smooth="yes"/>
      <point x="430" y="543.2996625000001"/>
      <point x="349.411255" y="700"/>
      <point x="250" y="700" type="curve" smooth="yes"/>
      <point x="150.58874500000002" y="700"/>
      <point x="70" y="543.2996625000001"/>
      <point x="70" y="350" type="curve" smooth="yes"/>
      <point x="70" y="156.7003375"/>
      <point x="150.58874500000002" y="0"/>
      <point x="250" y="0" type="curve" smooth="yes"/>
      <point x="349.411255" y="0"/>
      <point x="430" y="156.7003375"/>
    </contour>
    <contour>
      <point x="402" y="350" type="curve" smooth="yes"/>
      <point x="402" y="172.1643105"/>
      <point x="333.947282" y="28"/>
      <point x="250" y="28" type="curve" smooth="yes"/>
      <point x="166.052718" y="28"/>
      <point x="98" y="172.1643105"/>
      <point x="98" y="350" type="curve" smooth="yes"/>
      <point x="98" y="527.8356895"/>
      <point x="166.052718" y="672"/>
      <point x="250" y="672" type="curve" smooth="yes"/>
      <point x="333.947282" y="672"/>
      <point x="402" y="527.8356895"/>
    </contour>
  </outline>
</glyph>
<glyph name="uni0031" format="2">
  <advance width="600"/>
  <unicode hex="0031"/>
  <outline>
    <contour>
      <point x="225.84" y="0" type="curve"/>
      <point x="238.16" y="0" type="line"/>
      <point x="242.48991243999998" y="0"/>
      <point x="246" y="3.5100875600000006"/>
      <point x="246" y="7.840000000000001" type="curve"/>
      <point x="246" y="692.16" type="line"/>
      <point x="246" y="696.48991244"/>
      <point x="242.48991243999998" y="700"/>
      <point x="238.16" y="700" type="curve"/>
      <point x="225.84" y="700" type="line"/>
      <point x="221.51008756000002" y="700"/>
      <point x="218" y="696.48991244"/>
      <point x="218" y="692.16" type="curve"/>
      <point x="218" y="7.840000000000001" type="line"/>
      <point x="218" y="3.5100875600000006"/>
      <point x="221.51008756000002" y="0"/>
    </contour>
    <contour>
      <point x="94.10589817937935" y="568.7930964695009" type="line"/>
      <point x="207.10589817937935" y="708.7930964695009" type="line"/>
      <point x="228.89410182062065" y="691.2069035304991" type="line"/>
      <point x="115.89410182062065" y="551.2069035304991" type="line"/>
    </contour>
    <contour>
      <point x="180" y="0" type="line"/>
      <point x="320" y="0" type="line"/>
      <point x="320" y="18" type="line"/>
      <point x="180" y="18" type="line"/>
    </contour>
    <contour>
      <point x="180" y="682" type="line"/>
      <point x="320" y="682" type="line"/>
      <point x="320" y="700" type="line"/>
      <point x="180" y="700" type="line"/>
    </contour>
  </outline>
</glyph>
<glyph name="uni0033" format="2">
  <advance width="600"/>
  <unicode hex="0033"/>
  <outline>
    <contour>
      <point x="409.2" y="697.2" type="line"/>
      <point x="283.8" y="702.24"/>
      <point x="85.2" y="697.76"/>
      <point x="83.8" y="434.0" type="curve"/>
      <point x="82.4" y="357.0"/>
      <point x="229.72" y="352.24"/>
      <point x="246.62" y="350" type="curve"/>
      <point x="283.8" y="266.0"/>
      <point x="417.88" y="329.0"/>
      <point x="416.76" y="203.0" type="curve"/>
      <point x="415.64" y="1.4000000000000001"/>
      <point x="209.44" y="-1.68"/>
      <point x="82.4" y="3.9200000000000004" type="curve"/>
      <point x="85.48" y="27.439999999999998" type="line"/>
      <point x="216.2" y="17.36"/>
      <point x="400.8" y="23.8"/>
      <point x="402.76" y="189.0" type="curve"/>
      <point x="403.88" y="315.0"/>
      <point x="266.9" y="308.0"/>
      <point x="236.48" y="350.84" type="curve"/>
      <point x="192.54" y="354.2"/>
      <point x="93.88" y="353.36"/>
      <point x="95.56" y="448.0" type="curve"/>
      <point x="97.24" y="682.64"/>
      <point x="277.04" y="687.4"/>
      <point x="410.04" y="672.56" type="curve"/>
    </contour>
    <contour>
      <point x="241.72" y="316" type="curve"/>
      <point x="348.28" y="316" type="line"/>
      <point x="351.99135351999996" y="316"/>
      <point x="355" y="319.00864648000004"/>
      <point x="355" y="322.72" type="curve"/>
      <point x="355" y="337.28" type="line"/>
      <point x="355" y="340.99135351999996"/>
      <point x="351.99135351999996" y="344"/>
      <point x="348.28" y="344" type="curve"/>
      <point x="241.72" y="344" type="line"/>
      <point x="238.00864648" y="344"/>
      <point x="235" y="340.99135351999996"/>
      <point x="235" y="337.28" type="curve"/>
      <point x="235" y="322.72" type="line"/>
      <point x="235" y="319.00864648000004"/>
      <point x="238.00864648" y="316"/>
    </contour>
  </outline>
</glyph>
<glyph name="uni0034" format="2">
  <advance width="600"/>
  <unicode hex="0034"/>
  <outline>
    <contour>
      <point x="329.84" y="0" type="curve"/>
      <point x="342.16" y="0" type="line"/>
      <point x="346.48991244" y="0"/>
      <point x="350" y="3.5100875600000006"/>
      <point x="350" y="7.840000000000001" type="curve"/>
      <point x="350" y="692.16" type="line"/>
      <point x="350" y="696.48991244"/>
      <point x="346.48991244" y="700"/>
      <point x="342.16" y="700" type="curve"/>
      <point x="329.84" y="700" type="line"/>
      <point x="325.51008756" y="700"/>
      <point x="322" y="696.48991244"/>
      <point x="322" y="692.16" type="curve"/>
      <point x="322" y="7.840000000000001" type="line"/>
      <point x="322" y="3.5100875600000006"/>
      <point x="325.51008756" y="0"/>
    </contour>
    <contour>
      <point x="67.02274461487578" y="285.25269860826455" type="line"/>
      <point x="237.0227446148758" y="705.2526986082646" type="line"/>
      <point x="262.97725538512424" y="694.7473013917354" type="line"/>
      <point x="92.97725538512422" y="274.74730139173545" type="line"/>
    </contour>
    <contour>
      <point x="86.72" y="280" type="curve"/>
      <point x="403.28" y="280" type="line"/>
      <point x="406.99135351999996" y="280"/>
      <point x="410" y="283.00864648000004"/>
      <point x="410" y="286.72" type="curve"/>
      <point x="410" y="301.28" type="line"/>
      <point x="410" y="304.99135351999996"/>
      <point x="406.99135351999996" y="308"/>
      <point x="403.28" y="308" type="curve"/>
      <point x="86.72" y="308" type="line"/>
      <point x="83.00864648" y="308"/>
      <point x="80" y="304.99135351999996"/>
      <point x="80" y="301.28" type="curve"/>
      <point x="80" y="286.72" type="line"/>
      <point x="80" y="283.00864648000004"/>
      <point x="83.00864648" y="280"/>
    </contour>
  </outline>
</glyph>
<glyph name="uni0036" format="2">
  <advance width="600"/>
  <unicode hex="0036"/>
  <outline>
    <contour>
      <point x="425" y="190" type="curve"/>
      <point x="425" y="294.9341025"/>
      <point x="346.64983125000003" y="380"/>
      <point x="250" y="380" type="curve"/>
      <point x="153.35016875" y="380"/>
      <point x="75" y="294.9341025"/>
      <point x="75" y="190" type="curve"/>
      <point x="75" y="85.0658975"/>
      <point x="153.35016875" y="0"/>
      <point x="250" y="0" type="curve"/>
      <point x="346.64983125000003" y="0"/>
      <point x="425" y="85.0658975"/>
    </contour>
    <contour>
      <point x="397" y="190" type="curve"/>
      <point x="397" y="100.5298705"/>
      <point x="331.18585825" y="28"/>
      <point x="250" y="28" type="curve"/>
      <point x="168.81414175" y="28"/>
      <point x="103" y="100.5298705"/>
      <point x="103" y="190" type="curve"/>
      <point x="103" y="279.4701295"/>
      <point x="168.81414175" y="352"/>
      <point x="250" y="352" type="curve"/>
      <point x="331.18585825" y="352"/>
      <point x="397" y="279.4701295"/>
    </contour>
    <contour>
      <point x="75" y="190" type="line"/>
      <point x="75" y="505"/>
      <point x="188" y="710"/>
      <point x="352" y="710" type="curve"/>
      <point x="385" y="646" type="line"/>
      <point x="250" y="636"/>
      <point x="139" y="492"/>
      <point x="139" y="220" type="curve"/>
    </contour>
  </outline>
</glyph>
<glyph name="uni0037" format="2">
  <advance width="600"/>
  <unicode hex="0037"/>
  <outline>
    <contour>
      <point x="76.72" y="672" type="curve"/>
      <point x="423.28" y="672" type="line"/>
      <point x="426.99135351999996" y="672"/>
      <point x="430" y="675.00864648"/>
      <point x="430" y="678.72" type="curve"/>
      <point x="430" y="693.28" type="line"/>
      <point x="430" y="696.99135352"/>
      <point x="426.99135351999996" y="700"/>
      <point x="423.28" y="700" type="curve"/>
      <point x="76.72" y="700" type="line"/>
      <point x="73.00864648" y="700"/>
      <point x="70" y="696.99135352"/>
      <point x="70" y="693.28" type="curve"/>
      <point x="70" y="678.72" type="line"/>
      <point x="70" y="675.00864648"/>
      <point x="73.00864648" y="672"/>
    </contour>
    <contour>
      <point x="423.21461751481957" y="681.3768101988969" type="line"/>
      <point x="183.2146175148196" y="-4.623189801103063" type="line"/>
      <point x="156.7853824851804" y="4.623189801103063" type="line"/>
      <point x="396.78538248518043" y="690.6231898011031" type="line"/>
    </contour>
  </outline>
</glyph>
<glyph name="uni0038" format="2">
  <advance width="600"/>
  <unicode hex="0038"/>
  <outline>
    <contour>
      <point x="415" y="525" type="curve"/>
      <point x="415" y="613.36556"/>
      <point x="341.12698375" y="685"/>
      <point x="250" y="685" type="curve"/>
      <point x="158.87301625" y="685"/>
      <point x="85" y="613.36556"/>
      <point x="85" y="525" type="curve"/>
      <point x="85" y="436.63444"/>
      <point x="158.87301625" y="365"/>
      <point x="250" y="365" type="curve"/>
      <point x="341.12698375" y="365"/>
      <point x="415" y="436.63444"/>
    </contour>
    <contour>
      <point x="387" y="525" type="curve"/>
      <point x="387" y="452.098413"/>
      <point x="325.66301075" y="393"/>
      <point x="250" y="393" type="curve"/>
      <point x="174.33698925" y="393"/>
      <point x="113" y="452.098413"/>
      <point x="113" y="525" type="curve"/>
      <point x="113" y="597.901587"/>
      <point x="174.33698925" y="657"/>
      <point x="250" y="657" type="curve"/>
      <point x="325.66301075" y="657"/>
      <point x="387" y="597.901587"/>
    </contour>
    <contour>
      <point x="415" y="175" type="curve"/>
      <point x="415" y="263.36556"/>
      <point x="341.12698375" y="335"/>
      <point x="250" y="335" type="curve"/>
      <point x="158.87301625" y="335"/>
      <point x="85" y="263.36556"/>
      <point x="85" y="175" type="curve"/>
      <point x="85" y="86.63444"/>
      <point x="158.87301625" y="15"/>
      <point x="250" y="15" type="curve"/>
      <point x="341.12698375" y="15"/>
      <point x="415" y="86.63444"/>
    </contour>
    <contour>
      <point x="387" y="175" type="curve"/>
      <point x="387" y="102.09841300000001"/>
      <point x="325.66301075" y="43"/>
      <point x="250" y="43" type="curve"/>
      <point x="174.33698925" y="43"/>
      <point x="113" y="102.09841300000001"/>
      <point x="113" y="175" type="curve"/>
      <point x="113" y="247.901587"/>
      <point x="174.33698925" y="307"/>
      <point x="250" y="307" type="curve"/>
      <point x="325.66301075" y="307"/>
      <point x="387" y="247.901587"/>
    </contour>
  </outline>
</glyph>
<glyph name="uni0039" format="2">
  <advance width="600"/>
  <unicode hex="0039"/>
  <outline>
    <contour>
      <point x="425" y="510" type="curve"/>
      <point x="425" y="614.9341025"/>
      <point x="346.64983125000003" y="700"/>
      <point x="250" y="700" type="curve"/>
      <point x="153.35016875" y="700"/>
      <point x="75" y="614.9341025"/>
      <point x="75" y="510" type="curve"/>
      <point x="75" y="405.0658975"/>
      <point x="153.35016875" y="320"/>
      <point x="250" y="320" type="curve"/>
      <point x="346.64983125000003" y="320"/>
      <point x="425" y="405.0658975"/>
    </contour>
    <contour>
      <point x="397" y="510" type="curve"/>
      <point x="397" y="420.5298705"/>
      <point x="331.18585825" y="348"/>
      <point x="250" y="348" type="curve"/>
      <point x="168.81414175" y="348"/>
      <point x="103" y="420.5298705"/>
      <point x="103" y="510" type="curve"/>
      <point x="103" y="599.4701295"/>
      <point x="168.81414175" y="672"/>
      <point x="250" y="672" type="curve"/>
      <point x="331.18585825" y="672"/>
      <point x="397" y="599.4701295"/>
    </contour>
    <contour>
      <point x="425" y="510" type="line"/>
      <point x="425" y="194"/>
      <point x="312" y="-10"/>
      <point x="148" y="-10" type="curve"/>
      <point x="115" y="54" type="line"/>
      <point x="250" y="64"/>
      <point x="361" y="208"/>
      <point x="361" y="480" type="curve"/>
    </contour>
  </outline>
</glyph>
<glyph name="uni003F" format="2">
  <advance width="600"/>
  <unicode hex="003F"/>
  <outline>
    <contour>
      <point x="105" y="519" type="line"/>
      <point x="355" y="519" type="line"/>
      <point x="355" y="555" type="line"/>
      <point x="105" y="555" type="line"/>
    </contour>
    <contour>
      <point x="319" y="300" type="line"/>
      <point x="355" y="300" type="line"/>
      <point x="355" y="555" type="line"/>
      <point x="319" y="555" type="line"/>
    </contour>
    <contour>
      <point x="215" y="190" type="line"/>
      <point x="251" y="190" type="line"/>
      <point x="251" y="300" type="line"/>
      <point x="215" y="300" type="line"/>
    </contour>
    <contour>
      <point x="268.0" y="35" type="curve"/>
      <point x="268.0" y="44.9411255"/>
      <point x="259.9411255" y="53.0"/>
      <point x="250" y="53.0" type="curve"/>
      <point x="240.0588745" y="53.0"/>
      <point x="232.0" y="44.9411255"/>
      <point x="232.0" y="35" type="curve"/>
      <point x="232.0" y="25.0588745"/>
      <point x="240.0588745" y="17.0"/>
      <point x="250" y="17.0" type="curve"/>
      <point x="259.9411255" y="17.0"/>
      <point x="268.0" y="25.0588745"/>
    </contour>
  </outline>
</glyph>
<glyph name="A" format="2">
  <advance width="600"/>
  <unicode hex="0041"/>
  <outline>
    <contour>
      <point x="58.30279946506522" y="2.895979541671925" type="line"/>
      <point x="206.30279946506522" y="702.895979541672" type="line"/>
      <point x="233.69720053493478" y="697.104020458328" type="line"/>
      <point x="85.69720053493478" y="-2.895979541671925" type="line"/>
    </contour>
    <contour>
      <point x="414.3027994650652" y="-2.895979541671925" type="line"/>
      <point x="266.3027994650652" y="697.104020458328" type="line"/>
      <point x="293.6972005349348" y="702.895979541672" type="line"/>
      <point x="441.6972005349348" y="2.895979541671925" type="line"/>
    </contour>
    <contour>
      <point x="157.16" y="286" type="curve"/>
      <point x="342.84" y="286" type="line"/>
      <point x="346.24207406" y="286"/>
      <point x="349" y="288.75792594"/>
      <point x="349" y="292.16" type="curve"/>
      <point x="349" y="302.79999999999995" type="line"/>
      <point x="349" y="306.20207406"/>
      <point x="346.24207406" y="308.96"/>
      <point x="342.84" y="308.96" type="curve"/>
      <point x="157.16" y="308.96" type="line"/>
      <point x="153.75792594" y="308.96"/>
      <point x="151" y="306.20207406"/>
      <point x="151" y="302.79999999999995" type="curve"/>
      <point x="151" y="292.16" type="line"/>
      <point x="151" y="288.75792594"/>
      <point x="153.75792594" y="286"/>
    </contour>
  </outline>
</glyph>
<glyph name="B" format="2">
  <advance width="600"/>
  <unicode hex="0042"/>
  <outline>
    <contour>
      <point x="40" y="0" type="line"/>
      <point x="68" y="0" type="line"/>
      <point x="68" y="700" type="line"/>
      <point x="40" y="700" type="line"/>
    </contour>
    <contour>
      <point x="435" y="525" type="curve"/>
      <point x="435" y="613.36556"/>
      <point x="349.9341025" y="685"/>
      <point x="245" y="685" type="curve"/>
      <point x="140.0658975" y="685"/>
      <point x="55" y="613.36556"/>
      <point x="55" y="525" type="curve"/>
      <point x="55" y="436.63444"/>
      <point x="140.0658975" y="365"/>
      <point x="245" y="365" type="curve"/>
      <point x="349.9341025" y="365"/>
      <point x="435" y="436.63444"/>
    </contour>
    <contour>
      <point x="407" y="525" type="curve"/>
      <point x="407" y="452.098413"/>
      <point x="334.4701295" y="393"/>
      <point x="245" y="393" type="curve"/>
      <point x="155.52987050000002" y="393"/>
      <point x="83" y="452.098413"/>
      <point x="83" y="525" type="curve"/>
      <point x="83" y="597.901587"/>
      <point x="155.52987050000002" y="657"/>
      <point x="245" y="657" type="curve"/>
      <point x="334.4701295" y="657"/>
      <point x="407" y="597.901587"/>
    </contour>
    <contour>
      <point x="435" y="175" type="curve"/>
      <point x="435" y="263.36556"/>
      <point x="349.9341025" y="335"/>
      <point x="245" y="335" type="curve"/>
      <point x="140.0658975" y="335"/>
      <point x="55" y="263.36556"/>
      <point x="55" y="175" type="curve"/>
      <point x="55" y="86.63444"/>
      <point x="140.0658975" y="15"/>
      <point x="245" y="15" type="curve"/>
      <point x="349.9341025" y="15"/>
      <point x="435" y="86.63444"/>
    </contour>
    <contour>
      <point x="407" y="175" type="curve"/>
      <point x="407" y="102.09841300000001"/>
      <point x="334.4701295" y="43"/>
      <point x="245" y="43" type="curve"/>
      <point x="155.52987050000002" y="43"/>
      <point x="83" y="102.09841300000001"/>
      <point x="83" y="175" type="curve"/>
      <point x="83" y="247.901587"/>
      <point x="155.52987050000002" y="307"/>
      <point x="245" y="307" type="curve"/>
      <point x="334.4701295" y="307"/>
      <point x="407" y="247.901587"/>
    </contour>
  </outline>
</glyph>
<glyph name="G" format="2">
  <advance width="600"/>
  <unicode hex="0047"/>
  <outline>
    <contour>
      <point x="419.48" y="588.0" type="line"/>
      <point x="353.76" y="700"/>
      <point x="162.96" y="700"/>
      <point x="40" y="500.5" type="curve"/>
      <point x="40" y="199.5"/>
      <point x="162.96" y="0"/>
      <point x="353.76" y="0" type="curve"/>
      <point x="406.76" y="87.5"/>
      <point x="419.48" y="147.0"/>
      <point x="419.48" y="175.0" type="curve"/>
      <point x="397.36" y="213.5" type="line"/>
      <point x="332.56" y="28"/>
      <point x="68" y="238.0"/>
      <point x="68" y="350" type="curve"/>
      <point x="68" y="462.0"/>
      <point x="332.56" y="672"/>
      <point x="397.36" y="486.5" type="curve"/>
    </contour>
    <contour>
      <point x="257.84" y="294" type="curve"/>
      <point x="432.16" y="294" type="line"/>
      <point x="436.48991244" y="294"/>
      <point x="440" y="297.51008756"/>
      <point x="440" y="301.84" type="curve"/>
      <point x="440" y="314.16" type="line"/>
      <point x="440" y="318.48991244"/>
      <point x="436.48991244" y="322"/>
      <point x="432.16" y="322" type="curve"/>
      <point x="257.84" y="322" type="line"/>
      <point x="253.51008756" y="322"/>
      <point x="250" y="318.48991244"/>
      <point x="250" y="314.16" type="curve"/>
      <point x="250" y="301.84" type="line"/>
      <point x="250" y="297.51008756"/>
      <point x="253.51008756" y="294"/>
    </contour>
    <contour>
      <point x="383.84" y="132" type="curve"/>
      <point x="396.16" y="132" type="line"/>
      <point x="400.48991244" y="132"/>
      <point x="404" y="135.51008756000002"/>
      <point x="404" y="139.84" type="curve"/>
      <point x="404" y="292.16" type="line"/>
      <point x="404" y="296.48991244"/>
      <point x="400.48991244" y="300"/>
      <point x="396.16" y="300" type="curve"/>
      <point x="383.84" y="300" type="line"/>
      <point x="379.51008756" y="300"/>
      <point x="376" y="296.48991244"/>
      <point x="376" y="292.16" type="curve"/>
      <point x="376" y="139.84" type="line"/>
      <point x="376" y="135.51008756000002"/>
      <point x="379.51008756" y="132"/>
    </contour>
  </outline>
</glyph>
<glyph name="H" format="2">
  <advance width="600"/>
  <unicode hex="0048"/>
  <outline>
    <contour>
      <point x="40" y="0" type="line"/>
      <point x="68" y="0" type="line"/>
      <point x="68" y="700" type="line"/>
      <point x="40" y="700" type="line"/>
    </contour>
    <contour>
      <point x="396" y="0" type="line"/>
      <point x="424" y="0" type="line"/>
      <point x="424" y="700" type="line"/>
      <point x="396" y="700" type="line"/>
    </contour>
    <contour>
      <point x="40" y="320" type="line"/>
      <point x="460" y="320" type="line"/>
      <point x="460" y="348" type="line"/>
      <point x="40" y="348" type="line"/>
    </contour>
  </outline>
</glyph>
<glyph name="I" format="2">
  <advance width="600"/>
  <unicode hex="0049"/>
  <outline>
    <contour>
      <point x="218" y="0" type="line"/>
      <point x="246" y="0" type="line"/>
      <point x="246" y="700" type="line"/>
      <point x="218" y="700" type="line"/>
    </contour>
    <contour>
      <point x="180" y="0" type="line"/>
      <point x="320" y="0" type="line"/>
      <point x="320" y="18" type="line"/>
      <point x="180" y="18" type="line"/>
    </contour>
    <contour>
      <point x="180" y="682" type="line"/>
      <point x="320" y="682" type="line"/>
      <point x="320" y="700" type="line"/>
      <point x="180" y="700" type="line"/>
    </contour>
  </outline>
</glyph>
<glyph name="J" format="2">
  <advance width="600"/>
  <unicode hex="004A"/>
  <outline>
    <contour>
      <point x="352.84" y="150" type="curve"/>
      <point x="365.16" y="150" type="line"/>
      <point x="369.48991244" y="150"/>
      <point x="373" y="153.51008756000002"/>
      <point x="373" y="157.84" type="curve"/>
      <point x="373" y="692.16" type="line"/>
      <point x="373" y="696.48991244"/>
      <point x="369.48991244" y="700"/>
      <point x="365.16" y="700" type="curve"/>
      <point x="352.84" y="700" type="line"/>
      <point x="348.51008756" y="700"/>
      <point x="345" y="696.48991244"/>
      <point x="345" y="692.16" type="curve"/>
      <point x="345" y="157.84" type="line"/>
      <point x="345" y="153.51008756000002"/>
      <point x="348.51008756" y="150"/>
    </contour>
    <contour>
      <point x="409" y="150" type="line"/>
      <point x="409" y="42"/>
      <point x="328" y="-8"/>
      <point x="218" y="-8" type="curve"/>
      <point x="110" y="-8"/>
      <point x="48" y="47"/>
      <point x="48" y="160" type="curve"/>
      <point x="112" y="160" type="line"/>
      <point x="112" y="85"/>
      <point x="147" y="54"/>
      <point x="218" y="54" type="curve"/>
      <point x="286" y="54"/>
      <point x="345" y="83"/>
      <point x="345" y="150" type="curve"/>
    </contour>
  </outline>
</glyph>
<glyph name="K" format="2">
  <advance width="600"/>
  <unicode hex="004B"/>
  <outline>
    <contour>
      <point x="40" y="0" type="line"/>
      <point x="68" y="0" type="line"/>
      <point x="68" y="700" type="line"/>
      <point x="40" y="700" type="line"/>
    </contour>
    <contour>
      <point x="440.24450193573017" y="690.4579781970056" type="line"/>
      <point x="114.24450193573018" y="340.4579781970056" type="line"/>
      <point x="93.75549806426982" y="359.5420218029944" type="line"/>
      <point x="419.75549806426983" y="709.5420218029944" type="line"/>
    </contour>
    <contour>
      <point x="114.09942249443333" y="359.695445594656" type="line"/>
      <point x="450.0994224944333" y="9.69544559465599" type="line"/>
      <point x="429.9005775055667" y="-9.69544559465599" type="line"/>
      <point x="93.90057750556667" y="340.304554405344" type="line"/>
    </contour>
  </outline>
</glyph>
<glyph name="L" format="2">
  <advance width="600"/>
  <unicode hex="004C"/>
  <outline>
    <contour>
      <point x="40" y="0" type="line"/>
      <point x="68" y="0" type="line"/>
      <point x="68" y="700" type="line"/>
      <point x="40" y="700" type="line"/>
    </contour>
    <contour>
      <point x="40" y="0" type="line"/>
      <point x="440" y="0" type="line"/>
      <point x="440" y="28" type="line"/>
      <point x="40" y="28" type="line"/>
    </contour>
  </outline>
</glyph>
<glyph name="M" format="2">
  <advance width="600"/>
  <unicode hex="004D"/>
  <outline>
    <contour>
      <point x="40" y="0" type="line"/>
      <point x="68" y="0" type="line"/>
      <point x="68" y="700" type="line"/>
      <point x="40" y="700" type="line"/>
    </contour>
    <contour>
      <point x="430" y="0" type="line"/>
      <point x="458" y="0" type="line"/>
      <point x="458" y="700" type="line"/>
      <point x="430" y="700" type="line"/>
    </contour>
    <contour>
      <point x="116.9208914316956" y="705.3898575686502" type="line"/>
      <point x="262.92089143169557" y="355.38985756865014" type="line"/>
      <point x="237.0791085683044" y="344.61014243134986" type="line"/>
      <point x="91.0791085683044" y="694.6101424313498" type="line"/>
    </contour>
    <contour>
      <point x="408.92089143169557" y="694.6101424313498" type="line"/>
      <point x="262.92089143169557" y="344.61014243134986" type="line"/>
      <point x="237.0791085683044" y="355.38985756865014" type="line"/>
      <point x="383.07910856830443" y="705.3898575686502" type="line"/>
    </contour>
  </outline>
</glyph>
<glyph name="N" format="2">
  <advance width="600"/>
  <unicode hex="004E"/>
  <outline>
    <contour>
      <point x="40" y="0" type="line"/>
      <point x="68" y="0" type="line"/>
      <point x="68" y="700" type="line"/>
      <point x="40" y="700" type="line"/>
    </contour>
    <contour>
      <point x="396" y="0" type="line"/>
      <point x="424" y="0" type="line"/>
      <point x="424" y="700" type="line"/>
      <point x="396" y="700" type="line"/>
    </contour>
    <contour>
      <point x="116.9208914316956" y="705.3898575686502" type="line"/>
      <point x="408.92089143169557" y="5.389857568650162" type="line"/>
      <point x="383.07910856830443" y="-5.389857568650162" type="line"/>
      <point x="91.0791085683044" y="694.6101424313498" type="line"/>
    </contour>
  </outline>
</glyph>
<glyph name="O" format="2">
  <advance width="600"/>
  <unicode hex="004F"/>
  <outline>
    <contour>
      <point x="460" y="350" type="curve"/>
      <point x="460" y="543.2996625000001"/>
      <point x="365.9797975" y="700"/>
      <point x="250" y="700" type="curve"/>
      <point x="134.02020249999998" y="700"/>
      <point x="40" y="543.2996625000001"/>
      <point x="40" y="350" type="curve"/>
      <point x="40" y="156.7003375"/>
      <point x="134.02020249999998" y="0"/>
      <point x="250" y="0" type="curve"/>
      <point x="365.9797975" y="0"/>
      <point x="460" y="156.7003375"/>
    </contour>
    <contour>
      <point x="432" y="350" type="curve"/>
      <point x="432" y="172.1643105"/>
      <point x="350.5158245" y="28"/>
      <point x="250" y="28" type="curve"/>
      <point x="149.4841755" y="28"/>
      <point x="68" y="172.1643105"/>
      <point x="68" y="350" type="curve"/>
      <point x="68" y="527.8356895"/>
      <point x="149.4841755" y="672"/>
      <point x="250" y="672" type="curve"/>
      <point x="350.5158245" y="672"/>
      <point x="432" y="527.8356895"/>
    </contour>
    <contour>
      <point x="160" y="338" type="line"/>
      <point x="340" y="338" type="line"/>
      <point x="340" y="362" type="line"/>
      <point x="160" y="362" type="line"/>
    </contour>
  </outline>
</glyph>
<glyph name="P" format="2">
  <advance width="600"/>
  <unicode hex="0050"/>
  <outline>
    <contour>
      <point x="40" y="0" type="line"/>
      <point x="68" y="0" type="line"/>
      <point x="68" y="700" type="line"/>
      <point x="40" y="700" type="line"/>
    </contour>
    <contour>
      <point x="435" y="525" type="curve"/>
      <point x="435" y="613.36556"/>
      <point x="349.9341025" y="685"/>
      <point x="245" y="685" type="curve"/>
      <point x="140.0658975" y="685"/>
      <point x="55" y="613.36556"/>
      <point x="55" y="525" type="curve"/>
      <point x="55" y="436.63444"/>
      <point x="140.0658975" y="365"/>
      <point x="245" y="365" type="curve"/>
      <point x="349.9341025" y="365"/>
      <point x="435" y="436.63444"/>
    </contour>
    <contour>
      <point x="407" y="525" type="curve"/>
      <point x="407" y="452.098413"/>
      <point x="334.4701295" y="393"/>
      <point x="245" y="393" type="curve"/>
      <point x="155.52987050000002" y="393"/>
      <point x="83" y="452.098413"/>
      <point x="83" y="525" type="curve"/>
      <point x="83" y="597.901587"/>
      <point x="155.52987050000002" y="657"/>
      <point x="245" y="657" type="curve"/>
      <point x="334.4701295" y="657"/>
      <point x="407" y="597.901587"/>
    </contour>
  </outline>
</glyph>
<glyph name="Q" format="2">
  <advance width="600"/>
  <unicode hex="0051"/>
  <outline>
    <contour>
      <point x="460" y="350" type="curve"/>
      <point x="460" y="543.2996625000001"/>
      <point x="365.9797975" y="700"/>
      <point x="250" y="700" type="curve"/>
      <point x="134.02020249999998" y="700"/>
      <point x="40" y="543.2996625000001"/>
      <point x="40" y="350" type="curve"/>
      <point x="40" y="156.7003375"/>
      <point x="134.02020249999998" y="0"/>
      <point x="250" y="0" type="curve"/>
      <point x="365.9797975" y="0"/>
      <point x="460" y="156.7003375"/>
    </contour>
    <contour>
      <point x="432" y="350" type="curve"/>
      <point x="432" y="172.1643105"/>
      <point x="350.5158245" y="28"/>
      <point x="250" y="28" type="curve"/>
      <point x="149.4841755" y="28"/>
      <point x="68" y="172.1643105"/>
      <point x="68" y="350" type="curve"/>
      <point x="68" y="527.8356895"/>
      <point x="149.4841755" y="672"/>
      <point x="250" y="672" type="curve"/>
      <point x="350.5158245" y="672"/>
      <point x="432" y="527.8356895"/>
    </contour>
    <contour>
      <point x="305.1862516865943" y="144.60418016164604" type="line"/>
      <point x="470.1862516865943" y="-30.395819838353965" type="line"/>
      <point x="449.8137483134057" y="-49.604180161646035" type="line"/>
      <point x="284.8137483134057" y="125.39581983835397" type="line"/>
    </contour>
  </outline>
</glyph>
<glyph name="R" format="2">
  <advance width="600"/>
  <unicode hex="0052"/>
  <outline>
    <contour>
      <point x="40" y="0" type="line"/>
      <point x="68" y="0" type="line"/>
      <point x="68" y="700" type="line"/>
      <point x="40" y="700" type="line"/>
    </contour>
    <contour>
      <point x="435" y="525" type="curve"/>
      <point x="435" y="613.36556"/>
      <point x="349.9341025" y="685"/>
      <point x="245" y="685" type="curve"/>
      <point x="140.0658975" y="685"/>
      <point x="55" y="613.36556"/>
      <point x="55" y="525" type="curve"/>
      <point x="55" y="436.63444"/>
      <point x="140.0658975" y="365"/>
      <point x="245" y="365" type="curve"/>
      <point x="349.9341025" y="365"/>
      <point x="435" y="436.63444"/>
    </contour>
    <contour>
      <point x="407" y="525" type="curve"/>
      <point x="407" y="452.098413"/>
      <point x="334.4701295" y="393"/>
      <point x="245" y="393" type="curve"/>
      <point x="155.52987050000002" y="393"/>
      <point x="83" y="452.098413"/>
      <point x="83" y="525" type="curve"/>
      <point x="83" y="597.901587"/>
      <point x="155.52987050000002" y="657"/>
      <point x="245" y="657" type="curve"/>
      <point x="334.4701295" y="657"/>
      <point x="407" y="597.901587"/>
    </contour>
    <contour>
      <point x="262.3813865398576" y="366.5346206738137" type="line"/>
      <point x="452.3813865398576" y="6.53462067381372" type="line"/>
      <point x="427.6186134601424" y="-6.53462067381372" type="line"/>
      <point x="237.61861346014243" y="353.4653793261863" type="line"/>
    </contour>
  </outline>
</glyph>
<glyph name="S" format="2">
  <advance width="600"/>
  <unicode hex="0053"/>
  <outline>
    <contour>
      <point x="425.2" y="697.2" type="line"/>
      <point x="287.0" y="702.24"/>
      <point x="69.2" y="697.76"/>
      <point x="67.8" y="434.0" type="curve"/>
      <point x="66.4" y="357.0"/>
      <point x="227.8" y="352.24"/>
      <point x="246.3" y="350" type="curve"/>
      <point x="287.0" y="266.0"/>
      <point x="433.88" y="329.0"/>
      <point x="432.76" y="203.0" type="curve"/>
      <point x="431.64" y="1.4000000000000001"/>
      <point x="205.6" y="-1.68"/>
      <point x="66.4" y="3.9200000000000004" type="curve"/>
      <point x="69.48" y="27.439999999999998" type="line"/>
      <point x="213.0" y="17.36"/>
      <point x="416.8" y="23.8"/>
      <point x="418.76" y="189.0" type="curve"/>
      <point x="419.88" y="315.0"/>
      <point x="268.5" y="308.0"/>
      <point x="235.2" y="350.84" type="curve"/>
      <point x="187.1" y="354.2"/>
      <point x="77.88" y="353.36"/>
      <point x="79.56" y="448.0" type="curve"/>
      <point x="81.24" y="682.64"/>
      <point x="279.6" y="687.4"/>
      <point x="426.04" y="672.56" type="curve"/>
    </contour>
  </outline>
</glyph>
<glyph name="T" format="2">
  <advance width="600"/>
  <unicode hex="0054"/>
  <outline>
    <contour>
      <point x="40" y="672" type="line"/>
      <point x="460" y="672" type="line"/>
      <point x="460" y="700" type="line"/>
      <point x="40" y="700" type="line"/>
    </contour>
    <contour>
      <point x="218" y="0" type="line"/>
      <point x="246" y="0" type="line"/>
      <point x="246" y="700" type="line"/>
      <point x="218" y="700" type="line"/>
    </contour>
  </outline>
</glyph>
<glyph name="U" format="2">
  <advance width="600"/>
  <unicode hex="0055"/>
  <outline>
    <contour>
      <point x="47.84" y="210" type="curve"/>
      <point x="60.16" y="210" type="line"/>
      <point x="64.48991244" y="210"/>
      <point x="68" y="213.51008756000002"/>
      <point x="68" y="217.84" type="curve"/>
      <point x="68" y="692.16" type="line"/>
      <point x="68" y="696.48991244"/>
      <point x="64.48991244" y="700"/>
      <point x="60.16" y="700" type="curve"/>
      <point x="47.84" y="700" type="line"/>
      <point x="43.51008756" y="700"/>
      <point x="40" y="696.48991244"/>
      <point x="40" y="692.16" type="curve"/>
      <point x="40" y="217.84" type="line"/>
      <point x="40" y="213.51008756000002"/>
      <point x="43.51008756" y="210"/>
    </contour>
    <contour>
      <point x="403.84" y="210" type="curve"/>
      <point x="416.16" y="210" type="line"/>
      <point x="420.48991244" y="210"/>
      <point x="424" y="213.51008756000002"/>
      <point x="424" y="217.84" type="curve"/>
      <point x="424" y="692.16" type="line"/>
      <point x="424" y="696.48991244"/>
      <point x="420.48991244" y="700"/>
      <point x="416.16" y="700" type="curve"/>
      <point x="403.84" y="700" type="line"/>
      <point x="399.51008756" y="700"/>
      <point x="396" y="696.48991244"/>
      <point x="396" y="692.16" type="curve"/>
      <point x="396" y="217.84" type="line"/>
      <point x="396" y="213.51008756000002"/>
      <point x="399.51008756" y="210"/>
    </contour>
    <contour>
      <point x="40" y="210" type="line"/>
      <point x="40" y="68"/>
      <point x="127" y="-8"/>
      <point x="250" y="-8" type="curve"/>
      <point x="373" y="-8"/>
      <point x="460" y="68"/>
      <point x="460" y="210" type="curve"/>
      <point x="396" y="210" type="line"/>
      <point x="396" y="104"/>
      <point x="345" y="54"/>
      <point x="250" y="54" type="curve"/>
      <point x="155" y="54"/>
      <point x="104" y="104"/>
      <point x="104" y="210" type="curve"/>
    </contour>
  </outline>
</glyph>
<glyph name="V" format="2">
  <advance width="600"/>
  <unicode hex="0056"/>
  <outline>
    <contour>
      <point x="88.58199500203465" y="703.3954987505086" type="line"/>
      <point x="263.58199500203466" y="3.3954987505086613" type="line"/>
      <point x="236.41800499796534" y="-3.3954987505086613" type="line"/>
      <point x="61.418004997965355" y="696.6045012494914" type="line"/>
    </contour>
    <contour>
      <point x="438.58199500203466" y="696.6045012494914" type="line"/>
      <point x="263.58199500203466" y="-3.3954987505086613" type="line"/>
      <point x="236.41800499796534" y="3.3954987505086613" type="line"/>
      <point x="411.41800499796534" y="703.3954987505086" type="line"/>
    </contour>
  </outline>
</glyph>
<glyph name="W" format="2">
  <advance width="600"/>
  <unicode hex="0057"/>
  <outline>
    <contour>
      <point x="58.87282551649922" y="701.8827406058106" type="line"/>
      <point x="153.87282551649923" y="1.8827406058106084" type="line"/>
      <point x="126.12717448350078" y="-1.8827406058106084" type="line"/>
      <point x="31.127174483500777" y="698.1172593941894" type="line"/>
    </contour>
    <contour>
      <point x="468.87282551649923" y="698.1172593941894" type="line"/>
      <point x="373.87282551649923" y="-1.8827406058106084" type="line"/>
      <point x="346.12717448350077" y="1.8827406058106084" type="line"/>
      <point x="441.12717448350077" y="701.8827406058106" type="line"/>
    </contour>
    <contour>
      <point x="126.52570453619035" y="3.8004423103052867" type="line"/>
      <point x="236.52570453619035" y="393.8004423103053" type="line"/>
      <point x="263.47429546380965" y="386.1995576896947" type="line"/>
      <point x="153.47429546380965" y="-3.8004423103052867" type="line"/>
    </contour>
    <contour>
      <point x="346.52570453619035" y="-3.8004423103052867" type="line"/>
      <point x="236.52570453619035" y="386.1995576896947" type="line"/>
      <point x="263.47429546380965" y="393.8004423103053" type="line"/>
      <point x="373.47429546380965" y="3.8004423103052867" type="line"/>
    </contour>
  </outline>
</glyph>
<glyph name="X" format="2">
  <advance width="600"/>
  <unicode hex="0058"/>
  <outline>
    <contour>
      <point x="82.45002923245406" y="706.4028721766906" type="line"/>
      <point x="442.4500292324541" y="6.402872176690659" type="line"/>
      <point x="417.5499707675459" y="-6.402872176690659" type="line"/>
      <point x="57.54997076754594" y="693.5971278233094" type="line"/>
    </contour>
    <contour>
      <point x="442.4500292324541" y="693.5971278233094" type="line"/>
      <point x="82.45002923245406" y="-6.402872176690659" type="line"/>
      <point x="57.54997076754594" y="6.402872176690659" type="line"/>
      <point x="417.5499707675459" y="706.4028721766906" type="line"/>
    </contour>
  </outline>
</glyph>
<glyph name="Y" format="2">
  <advance width="600"/>
  <unicode hex="0059"/>
  <outline>
    <contour>
      <point x="82.45002923245406" y="706.4028721766906" type="line"/>
      <point x="262.4500292324541" y="356.40287217669066" type="line"/>
      <point x="237.54997076754594" y="343.59712782330934" type="line"/>
      <point x="57.54997076754594" y="693.5971278233094" type="line"/>
    </contour>
    <contour>
      <point x="442.4500292324541" y="693.5971278233094" type="line"/>
      <point x="262.4500292324541" y="343.59712782330934" type="line"/>
      <point x="237.54997076754594" y="356.40287217669066" type="line"/>
      <point x="417.5499707675459" y="706.4028721766906" type="line"/>
    </contour>
    <contour>
      <point x="218" y="0" type="line"/>
      <point x="246" y="0" type="line"/>
      <point x="246" y="350" type="line"/>
      <point x="218" y="350" type="line"/>
    </contour>
  </outline>
</glyph>
<glyph name="Z" format="2">
  <advance width="600"/>
  <unicode hex="005A"/>
  <outline>
    <contour>
      <point x="50" y="672" type="line"/>
      <point x="450" y="672" type="line"/>
      <point x="450" y="700" type="line"/>
      <point x="50" y="700" type="line"/>
    </contour>
    <contour>
      <point x="442.34071958040295" y="679.3889002247842" type="line"/>
      <point x="82.34071958040295" y="7.388900224784134" type="line"/>
      <point x="57.65928041959705" y="20.611099775215866" type="line"/>
      <point x="417.65928041959705" y="692.6110997752158" type="line"/>
    </contour>
    <contour>
      <point x="50" y="0" type="line"/>
      <point x="450" y="0" type="line"/>
      <point x="450" y="28" type="line"/>
      <point x="50" y="28" type="line"/>
    </contour>
  </outline>
</glyph>
<glyph name="uni005B" format="2">
  <advance width="600"/>
  <unicode hex="005B"/>
  <outline>
    <contour>
      <point x="150" y="80" type="line"/>
      <point x="186" y="80" type="line"/>
      <point x="186" y="620" type="line"/>
      <point x="150" y="620" type="line"/>
    </contour>
    <contour>
      <point x="150" y="620" type="line"/>
      <point x="250" y="620" type="line"/>
      <point x="250" y="656" type="line"/>
      <point x="150" y="656" type="line"/>
    </contour>
    <contour>
      <point x="150" y="80" type="line"/>
      <point x="250" y="80" type="line"/>
      <point x="250" y="116" type="line"/>
      <point x="150" y="116" type="line"/>
    </contour>
  </outline>
</glyph>
<glyph name="uni005D" format="2">
  <advance width="600"/>
  <unicode hex="005D"/>
  <outline>
    <contour>
      <point x="314" y="80" type="line"/>
      <point x="350" y="80" type="line"/>
      <point x="350" y="620" type="line"/>
      <point x="314" y="620" type="line"/>
    </contour>
    <contour>
      <point x="278" y="620" type="line"/>
      <point x="378" y="620" type="line"/>
      <point x="378" y="656" type="line"/>
      <point x="278" y="656" type="line"/>
    </contour>
    <contour>
      <point x="278" y="80" type="line"/>
      <point x="378" y="80" type="line"/>
      <point x="378" y="116" type="line"/>
      <point x="278" y="116" type="line"/>
    </contour>
  </outline>
</glyph>
<glyph name="uni005E" format="2">
  <advance width="600"/>
  <unicode hex="005E"/>
  <outline>
    <contour>
      <point x="80" y="0" type="line"/>
      <point x="420" y="0" type="line"/>
      <point x="420" y="36" type="line"/>
      <point x="80" y="36" type="line"/>
    </contour>
    <contour>
      <point x="80" y="664" type="line"/>
      <point x="420" y="664" type="line"/>
      <point x="420" y="700" type="line"/>
      <point x="80" y="700" type="line"/>
    </contour>
    <contour>
      <point x="80" y="0" type="line"/>
      <point x="116" y="0" type="line"/>
      <point x="116" y="700" type="line"/>
      <point x="80" y="700" type="line"/>
    </contour>
    <contour>
      <point x="384" y="0" type="line"/>
      <point x="420" y="0" type="line"/>
      <point x="420" y="700" type="line"/>
      <point x="384" y="700" type="line"/>
    </contour>
  </outline>
</glyph>
<glyph name="uni005F" format="2">
  <advance width="600"/>
  <unicode hex="005F"/>
  <outline>
    <contour>
      <point x="90" y="0" type="line"/>
      <point x="410" y="0" type="line"/>
      <point x="410" y="36" type="line"/>
      <point x="90" y="36" type="line"/>
    </contour>
  </outline>
</glyph>
<glyph name="a" format="2">
  <advance width="600"/>
  <unicode hex="0061"/>
  <outline>
    <contour>
      <point x="378" y="244" type="curve"/>
      <point x="378" y="378.757479"/>
      <point x="310.8427125" y="488"/>
      <point x="228" y="488" type="curve"/>
      <point x="145.1572875" y="488"/>
      <point x="78" y="378.757479"/>
      <point x="78" y="244" type="curve"/>
      <point x="78" y="109.24252100000001"/>
      <point x="145.1572875" y="0"/>
      <point x="228" y="0" type="curve"/>
      <point x="310.8427125" y="0"/>
      <point x="378" y="109.24252100000001"/>
    </contour>
    <contour>
      <point x="350" y="244" type="curve"/>
      <point x="350" y="124.706494"/>
      <point x="295.3787395" y="28"/>
      <point x="228" y="28" type="curve"/>
      <point x="160.6212605" y="28"/>
      <point x="106" y="124.706494"/>
      <point x="106" y="244" type="curve"/>
      <point x="106" y="363.293506"/>
      <point x="160.6212605" y="460"/>
      <point x="228" y="460" type="curve"/>
      <point x="295.3787395" y="460"/>
      <point x="350" y="363.293506"/>
    </contour>
    <contour>
      <point x="351.84" y="0" type="curve"/>
      <point x="364.16" y="0" type="line"/>
      <point x="368.48991244" y="0"/>
      <point x="372" y="3.5100875600000006"/>
      <point x="372" y="7.840000000000001" type="curve"/>
      <point x="372" y="547.16" type="line"/>
      <point x="372" y="551.48991244"/>
      <point x="368.48991244" y="555"/>
      <point x="364.16" y="555" type="curve"/>
      <point x="351.84" y="555" type="line"/>
      <point x="347.51008756" y="555"/>
      <point x="344" y="551.48991244"/>
      <point x="344" y="547.16" type="curve"/>
      <point x="344" y="7.840000000000001" type="line"/>
      <point x="344" y="3.5100875600000006"/>
      <point x="347.51008756" y="0"/>
    </contour>
  </outline>
</glyph>
<glyph name="d" format="2">
  <advance width="600"/>
  <unicode hex="0064"/>
  <outline>
    <contour>
      <point x="355.84" y="0" type="curve"/>
      <point x="368.16" y="0" type="line"/>
      <point x="372.48991244" y="0"/>
      <point x="376" y="3.5100875600000006"/>
      <point x="376" y="7.840000000000001" type="curve"/>
      <point x="376" y="752.16" type="line"/>
      <point x="376" y="756.48991244"/>
      <point x="372.48991244" y="760"/>
      <point x="368.16" y="760" type="curve"/>
      <point x="355.84" y="760" type="line"/>
      <point x="351.51008756" y="760"/>
      <point x="348" y="756.48991244"/>
      <point x="348" y="752.16" type="curve"/>
      <point x="348" y="7.840000000000001" type="line"/>
      <point x="348" y="3.5100875600000006"/>
      <point x="351.51008756" y="0"/>
    </contour>
    <contour>
      <point x="430" y="278" type="curve"/>
      <point x="430" y="431.53516049999996"/>
      <point x="349.411255" y="556"/>
      <point x="250" y="556" type="curve"/>
      <point x="150.58874500000002" y="556"/>
      <point x="70" y="431.53516049999996"/>
      <point x="70" y="278" type="curve"/>
      <point x="70" y="124.46483950000001"/>
      <point x="150.58874500000002" y="0"/>
      <point x="250" y="0" type="curve"/>
      <point x="349.411255" y="0"/>
      <point x="430" y="124.46483950000001"/>
    </contour>
    <contour>
      <point x="402" y="278" type="curve"/>
      <point x="402" y="139.9288125"/>
      <point x="333.947282" y="28"/>
      <point x="250" y="28" type="curve"/>
      <point x="166.052718" y="28"/>
      <point x="98" y="139.9288125"/>
      <point x="98" y="278" type="curve"/>
      <point x="98" y="416.0711875"/>
      <point x="166.052718" y="528"/>
      <point x="250" y="528" type="curve"/>
      <point x="333.947282" y="528"/>
      <point x="402" y="416.0711875"/>
    </contour>
  </outline>
</glyph>
<glyph name="e" format="2">
  <advance width="600"/>
  <unicode hex="0065"/>
  <outline>
    <contour>
      <point x="388.6" y="467.04" type="line"/>
      <point x="336.4" y="556"/>
      <point x="174.4" y="556"/>
      <point x="70" y="397.53999999999996" type="curve"/>
      <point x="70" y="158.46"/>
      <point x="174.4" y="0"/>
      <point x="336.4" y="0" type="curve"/>
      <point x="381.4" y="69.5"/>
      <point x="388.6" y="116.76000000000002"/>
      <point x="388.6" y="139.0" type="curve"/>
      <point x="367.04" y="169.57999999999998" type="line"/>
      <point x="318.4" y="28"/>
      <point x="98" y="189.04"/>
      <point x="98" y="278" type="curve"/>
      <point x="98" y="366.96000000000004"/>
      <point x="318.4" y="528"/>
      <point x="367.04" y="386.42" type="curve"/>
    </contour>
    <contour>
      <point x="98.72" y="246" type="curve"/>
      <point x="395.28" y="246" type="line"/>
      <point x="398.99135351999996" y="246"/>
      <point x="402" y="249.00864648"/>
      <point x="402" y="252.72" type="curve"/>
      <point x="402" y="267.28" type="line"/>
      <point x="402" y="270.99135351999996"/>
      <point x="398.99135351999996" y="274"/>
      <point x="395.28" y="274" type="curve"/>
      <point x="98.72" y="274" type="line"/>
      <point x="95.00864648" y="274"/>
      <point x="92" y="270.99135351999996"/>
      <point x="92" y="267.28" type="curve"/>
      <point x="92" y="252.72" type="line"/>
      <point x="92" y="249.00864648"/>
      <point x="95.00864648" y="246"/>
    </contour>
  </outline>
</glyph>
<glyph name="f" format="2">
  <advance width="600"/>
  <unicode hex="0066"/>
  <outline>
    <contour>
      <point x="222.84" y="0" type="curve"/>
      <point x="235.16" y="0" type="line"/>
      <point x="239.48991243999998" y="0"/>
      <point x="243" y="3.5100875600000006"/>
      <point x="243" y="7.840000000000001" type="curve"/>
      <point x="243" y="752.16" type="line"/>
      <point x="243" y="756.48991244"/>
      <point x="239.48991243999998" y="760"/>
      <point x="235.16" y="760" type="curve"/>
      <point x="222.84" y="760" type="line"/>
      <point x="218.51008756000002" y="760"/>
      <point x="215" y="756.48991244"/>
      <point x="215" y="752.16" type="curve"/>
      <point x="215" y="7.840000000000001" type="line"/>
      <point x="215" y="3.5100875600000006"/>
      <point x="218.51008756000002" y="0"/>
    </contour>
    <contour>
      <point x="215" y="500" type="line"/>
      <point x="215" y="670"/>
      <point x="294" y="770"/>
      <point x="398" y="734" type="curve"/>
      <point x="398" y="670" type="line"/>
      <point x="325" y="687"/>
      <point x="279" y="632"/>
      <point x="279" y="500" type="curve"/>
    </contour>
    <contour>
      <point x="111.72" y="350" type="curve"/>
      <point x="388.28" y="350" type="line"/>
      <point x="391.99135351999996" y="350"/>
      <point x="395" y="353.00864648000004"/>
      <point x="395" y="356.72" type="curve"/>
      <point x="395" y="371.28" type="line"/>
      <point x="395" y="374.99135351999996"/>
      <point x="391.99135351999996" y="378"/>
      <point x="388.28" y="378" type="curve"/>
      <point x="111.72" y="378" type="line"/>
      <point x="108.00864648" y="378"/>
      <point x="105" y="374.99135351999996"/>
      <point x="105" y="371.28" type="curve"/>
      <point x="105" y="356.72" type="line"/>
      <point x="105" y="353.00864648000004"/>
      <point x="108.00864648" y="350"/>
    </contour>
  </outline>
</glyph>
<glyph name="g" format="2">
  <advance width="600"/>
  <unicode hex="0067"/>
  <outline>
    <contour>
      <point x="378" y="260" type="curve"/>
      <point x="378" y="392.54834"/>
      <point x="310.8427125" y="500"/>
      <point x="228" y="500" type="curve"/>
      <point x="145.1572875" y="500"/>
      <point x="78" y="392.54834"/>
      <point x="78" y="260" type="curve"/>
      <point x="78" y="127.45166"/>
      <point x="145.1572875" y="20"/>
      <point x="228" y="20" type="curve"/>
      <point x="310.8427125" y="20"/>
      <point x="378" y="127.45166"/>
    </contour>
    <contour>
      <point x="350" y="260" type="curve"/>
      <point x="350" y="142.915633"/>
      <point x="295.3787395" y="48"/>
      <point x="228" y="48" type="curve"/>
      <point x="160.6212605" y="48"/>
      <point x="106" y="142.915633"/>
      <point x="106" y="260" type="curve"/>
      <point x="106" y="377.084367"/>
      <point x="160.6212605" y="472"/>
      <point x="228" y="472" type="curve"/>
      <point x="295.3787395" y="472"/>
      <point x="350" y="377.084367"/>
    </contour>
    <contour>
      <point x="351.84" y="-210" type="curve"/>
      <point x="364.16" y="-210" type="line"/>
      <point x="368.48991244" y="-210"/>
      <point x="372" y="-206.48991243999998"/>
      <point x="372" y="-202.16" type="curve"/>
      <point x="372" y="547.16" type="line"/>
      <point x="372" y="551.48991244"/>
      <point x="368.48991244" y="555"/>
      <point x="364.16" y="555" type="curve"/>
      <point x="351.84" y="555" type="line"/>
      <point x="347.51008756" y="555"/>
      <point x="344" y="551.48991244"/>
      <point x="344" y="547.16" type="curve"/>
      <point x="344" y="-202.16" type="line"/>
      <point x="344" y="-206.48991243999998"/>
      <point x="347.51008756" y="-210"/>
    </contour>
    <contour>
      <point x="408" y="0" type="line"/>
      <point x="408" y="-210"/>
      <point x="324" y="-210"/>
      <point x="230" y="-210" type="curve"/>
      <point x="173" y="-210"/>
      <point x="139" y="-185"/>
      <point x="128" y="-146" type="curve"/>
      <point x="192" y="-146" type="line"/>
      <point x="205" y="-175"/>
      <point x="221" y="-180"/>
      <point x="245" y="-180" type="curve"/>
      <point x="305" y="-180"/>
      <point x="344" y="-138"/>
      <point x="344" y="0" type="curve"/>
    </contour>
  </outline>
</glyph>
<glyph name="i" format="2">
  <advance width="600"/>
  <unicode hex="0069"/>
  <outline>
    <contour>
      <point x="225.84" y="0" type="curve"/>
      <point x="238.16" y="0" type="line"/>
      <point x="242.48991243999998" y="0"/>
      <point x="246" y="3.5100875600000006"/>
      <point x="246" y="7.840000000000001" type="curve"/>
      <point x="246" y="447.16" type="line"/>
      <point x="246" y="451.48991244"/>
      <point x="242.48991243999998" y="455"/>
      <point x="238.16" y="455" type="curve"/>
      <point x="225.84" y="455" type="line"/>
      <point x="221.51008756000002" y="455"/>
      <point x="218" y="451.48991244"/>
      <point x="218" y="447.16" type="curve"/>
      <point x="218" y="7.840000000000001" type="line"/>
      <point x="218" y="3.5100875600000006"/>
      <point x="221.51008756000002" y="0"/>
    </contour>
    <contour>
      <point x="265.4" y="525" type="curve"/>
      <point x="265.4" y="533.50518515"/>
      <point x="258.50518515" y="540.4"/>
      <point x="250" y="540.4" type="curve"/>
      <point x="241.49481485" y="540.4"/>
      <point x="234.6" y="533.50518515"/>
      <point x="234.6" y="525" type="curve"/>
      <point x="234.6" y="516.49481485"/>
      <point x="241.49481485" y="509.6"/>
      <point x="250" y="509.6" type="curve"/>
      <point x="258.50518515" y="509.6"/>
      <point x="265.4" y="516.49481485"/>
    </contour>
  </outline>
</glyph>
<glyph name="j" format="2">
  <advance width="600"/>
  <unicode hex="006A"/>
  <outline>
    <contour>
      <point x="225.84" y="-190" type="curve"/>
      <point x="238.16" y="-190" type="line"/>
      <point x="242.48991243999998" y="-190"/>
      <point x="246" y="-186.48991243999998"/>
      <point x="246" y="-182.16" type="curve"/>
      <point x="246" y="447.16" type="line"/>
      <point x="246" y="451.48991244"/>
      <point x="242.48991243999998" y="455"/>
      <point x="238.16" y="455" type="curve"/>
      <point x="225.84" y="455" type="line"/>
      <point x="221.51008756000002" y="455"/>
      <point x="218" y="451.48991244"/>
      <point x="218" y="447.16" type="curve"/>
      <point x="218" y="-182.16" type="line"/>
      <point x="218" y="-186.48991243999998"/>
      <point x="221.51008756000002" y="-190"/>
    </contour>
    <contour>
      <point x="265.4" y="525" type="curve"/>
      <point x="265.4" y="533.50518515"/>
      <point x="258.50518515" y="540.4"/>
      <point x="250" y="540.4" type="curve"/>
      <point x="241.49481485" y="540.4"/>
      <point x="234.6" y="533.50518515"/>
      <point x="234.6" y="525" type="curve"/>
      <point x="234.6" y="516.49481485"/>
      <point x="241.49481485" y="509.6"/>
      <point x="250" y="509.6" type="curve"/>
      <point x="258.50518515" y="509.6"/>
      <point x="265.4" y="516.49481485"/>
    </contour>
    <contour>
      <point x="282" y="-190" type="line"/>
      <point x="282" y="-210"/>
      <point x="247" y="-210"/>
      <point x="201" y="-210" type="curve"/>
      <point x="177" y="-210" type="line"/>
      <point x="177" y="-185" type="line"/>
      <point x="201" y="-185" type="line"/>
      <point x="212" y="-185"/>
      <point x="218" y="-188"/>
      <point x="218" y="-190" type="curve"/>
    </contour>
  </outline>
</glyph>
<glyph name="k" format="2">
  <advance width="600"/>
  <unicode hex="006B"/>
  <outline>
    <contour>
      <point x="67.84" y="0" type="curve"/>
      <point x="80.16" y="0" type="line"/>
      <point x="84.48991244" y="0"/>
      <point x="88" y="3.5100875600000006"/>
      <point x="88" y="7.840000000000001" type="curve"/>
      <point x="88" y="752.16" type="line"/>
      <point x="88" y="756.48991244"/>
      <point x="84.48991244" y="760"/>
      <point x="80.16" y="760" type="curve"/>
      <point x="67.84" y="760" type="line"/>
      <point x="63.51008756" y="760"/>
      <point x="60" y="756.48991244"/>
      <point x="60" y="752.16" type="curve"/>
      <point x="60" y="7.840000000000001" type="line"/>
      <point x="60" y="3.5100875600000006"/>
      <point x="63.51008756" y="0"/>
    </contour>
    <contour>
      <point x="113.53210063136433" y="287.29640160535877" type="line"/>
      <point x="359.5321006313643" y="564.2964016053587" type="line"/>
      <point x="380.4678993686357" y="545.7035983946413" type="line"/>
      <point x="134.46789936863567" y="268.70359839464123" type="line"/>
    </contour>
    <contour>
      <point x="134.29860300808895" y="287.48360564773657" type="line"/>
      <point x="390.29860300808895" y="9.483605647736587" type="line"/>
      <point x="369.70139699191105" y="-9.483605647736587" type="line"/>
      <point x="113.70139699191105" y="268.51639435226343" type="line"/>
    </contour>
  </outline>
</glyph>
<glyph name="l" format="2">
  <advance width="600"/>
  <unicode hex="006C"/>
  <outline>
    <contour>
      <point x="225.84" y="0" type="curve"/>
      <point x="238.16" y="0" type="line"/>
      <point x="242.48991243999998" y="0"/>
      <point x="246" y="3.5100875600000006"/>
      <point x="246" y="7.840000000000001" type="curve"/>
      <point x="246" y="752.16" type="line"/>
      <point x="246" y="756.48991244"/>
      <point x="242.48991243999998" y="760"/>
      <point x="238.16" y="760" type="curve"/>
      <point x="225.84" y="760" type="line"/>
      <point x="221.51008756000002" y="760"/>
      <point x="218" y="756.48991244"/>
      <point x="218" y="752.16" type="curve"/>
      <point x="218" y="7.840000000000001" type="line"/>
      <point x="218" y="3.5100875600000006"/>
      <point x="221.51008756000002" y="0"/>
    </contour>
    <contour>
      <point x="180" y="0" type="line"/>
      <point x="320" y="0" type="line"/>
      <point x="320" y="18" type="line"/>
      <point x="180" y="18" type="line"/>
    </contour>
    <contour>
      <point x="180" y="682" type="line"/>
      <point x="320" y="682" type="line"/>
      <point x="320" y="700" type="line"/>
      <point x="180" y="700" type="line"/>
    </contour>
  </outline>
</glyph>
<glyph name="m" format="2">
  <advance width="600"/>
  <unicode hex="006D"/>
  <outline>
    <contour>
      <point x="47.84" y="0" type="curve"/>
      <point x="60.16" y="0" type="line"/>
      <point x="64.48991244" y="0"/>
      <point x="68" y="3.5100875600000006"/>
      <point x="68" y="7.840000000000001" type="curve"/>
      <point x="68" y="547.16" type="line"/>
      <point x="68" y="551.48991244"/>
      <point x="64.48991244" y="555"/>
      <point x="60.16" y="555" type="curve"/>
      <point x="47.84" y="555" type="line"/>
      <point x="43.51008756" y="555"/>
      <point x="40" y="551.48991244"/>
      <point x="40" y="547.16" type="curve"/>
      <point x="40" y="7.840000000000001" type="line"/>
      <point x="40" y="3.5100875600000006"/>
      <point x="43.51008756" y="0"/>
    </contour>
    <contour>
      <point x="104" y="0" type="line"/>
      <point x="104" y="555" type="line"/>
      <point x="153.64" y="565"/>
      <point x="250" y="460.65"/>
      <point x="250" y="349.65" type="curve"/>
      <point x="250" y="0" type="line"/>
      <point x="222" y="0" type="line"/>
      <point x="222" y="349.65" type="line"/>
      <point x="222" y="539.6"/>
      <point x="181.64" y="527"/>
      <point x="132" y="527" type="curve"/>
      <point x="132" y="0" type="line"/>
    </contour>
    <contour>
      <point x="239" y="0" type="line"/>
      <point x="239" y="555" type="line"/>
      <point x="284.9" y="565"/>
      <point x="374" y="460.65"/>
      <point x="374" y="349.65" type="curve"/>
      <point x="374" y="0" type="line"/>
      <point x="346" y="0" type="line"/>
      <point x="346" y="349.65" type="line"/>
      <point x="346" y="539.6"/>
      <point x="312.9" y="527"/>
      <point x="267" y="527" type="curve"/>
      <point x="267" y="0" type="line"/>
    </contour>
  </outline>
</glyph>
<glyph name="n" format="2">
  <advance width="600"/>
  <unicode hex="006E"/>
  <outline>
    <contour>
      <point x="67.84" y="0" type="curve"/>
      <point x="80.16" y="0" type="line"/>
      <point x="84.48991244" y="0"/>
      <point x="88" y="3.5100875600000006"/>
      <point x="88" y="7.840000000000001" type="curve"/>
      <point x="88" y="547.16" type="line"/>
      <point x="88" y="551.48991244"/>
      <point x="84.48991244" y="555"/>
      <point x="80.16" y="555" type="curve"/>
      <point x="67.84" y="555" type="line"/>
      <point x="63.51008756" y="555"/>
      <point x="60" y="551.48991244"/>
      <point x="60" y="547.16" type="curve"/>
      <point x="60" y="7.840000000000001" type="line"/>
      <point x="60" y="3.5100875600000006"/>
      <point x="63.51008756" y="0"/>
    </contour>
    <contour>
      <point x="124" y="0" type="line"/>
      <point x="124" y="555" type="line"/>
      <point x="198.8" y="565"/>
      <point x="344" y="460.65"/>
      <point x="344" y="349.65" type="curve"/>
      <point x="344" y="0" type="line"/>
      <point x="316" y="0" type="line"/>
      <point x="316" y="349.65" type="line"/>
      <point x="316" y="539.6"/>
      <point x="226.8" y="527"/>
      <point x="152" y="527" type="curve"/>
      <point x="152" y="0" type="line"/>
    </contour>
  </outline>
</glyph>
<glyph name="p" format="2">
  <advance width="600"/>
  <unicode hex="0070"/>
  <outline>
    <contour>
      <point x="67.84" y="-210" type="curve"/>
      <point x="80.16" y="-210" type="line"/>
      <point x="84.48991244" y="-210"/>
      <point x="88" y="-206.48991243999998"/>
      <point x="88" y="-202.16" type="curve"/>
      <point x="88" y="547.16" type="line"/>
      <point x="88" y="551.48991244"/>
      <point x="84.48991244" y="555"/>
      <point x="80.16" y="555" type="curve"/>
      <point x="67.84" y="555" type="line"/>
      <point x="63.51008756" y="555"/>
      <point x="60" y="551.48991244"/>
      <point x="60" y="547.16" type="curve"/>
      <point x="60" y="-202.16" type="line"/>
      <point x="60" y="-206.48991243999998"/>
      <point x="63.51008756" y="-210"/>
    </contour>
    <contour>
      <point x="430" y="278" type="curve"/>
      <point x="430" y="431.53516049999996"/>
      <point x="349.411255" y="556"/>
      <point x="250" y="556" type="curve"/>
      <point x="150.58874500000002" y="556"/>
      <point x="70" y="431.53516049999996"/>
      <point x="70" y="278" type="curve"/>
      <point x="70" y="124.46483950000001"/>
      <point x="150.58874500000002" y="0"/>
      <point x="250" y="0" type="curve"/>
      <point x="349.411255" y="0"/>
      <point x="430" y="124.46483950000001"/>
    </contour>
    <contour>
      <point x="402" y="278" type="curve"/>
      <point x="402" y="139.9288125"/>
      <point x="333.947282" y="28"/>
      <point x="250" y="28" type="curve"/>
      <point x="166.052718" y="28"/>
      <point x="98" y="139.9288125"/>
      <point x="98" y="278" type="curve"/>
      <point x="98" y="416.0711875"/>
      <point x="166.052718" y="528"/>
      <point x="250" y="528" type="curve"/>
      <point x="333.947282" y="528"/>
      <point x="402" y="416.0711875"/>
    </contour>
  </outline>
</glyph>
<glyph name="r" format="2">
  <advance width="600"/>
  <unicode hex="0072"/>
  <outline>
    <contour>
      <point x="67.84" y="0" type="curve"/>
      <point x="80.16" y="0" type="line"/>
      <point x="84.48991244" y="0"/>
      <point x="88" y="3.5100875600000006"/>
      <point x="88" y="7.840000000000001" type="curve"/>
      <point x="88" y="547.16" type="line"/>
      <point x="88" y="551.48991244"/>
      <point x="84.48991244" y="555"/>
      <point x="80.16" y="555" type="curve"/>
      <point x="67.84" y="555" type="line"/>
      <point x="63.51008756" y="555"/>
      <point x="60" y="551.48991244"/>
      <point x="60" y="547.16" type="curve"/>
      <point x="60" y="7.840000000000001" type="line"/>
      <point x="60" y="3.5100875600000006"/>
      <point x="63.51008756" y="0"/>
    </contour>
    <contour>
      <point x="124" y="305" type="line"/>
      <point x="154" y="474"/>
      <point x="270" y="555"/>
      <point x="390" y="472" type="curve"/>
      <point x="390" y="400" type="line"/>
      <point x="284" y="450"/>
      <point x="205" y="417"/>
      <point x="188" y="305" type="curve"/>
    </contour>
  </outline>
</glyph>
<glyph name="t" format="2">
  <advance width="600"/>
  <unicode hex="0074"/>
  <outline>
    <contour>
      <point x="222.84" y="0" type="curve"/>
      <point x="235.16" y="0" type="line"/>
      <point x="239.48991243999998" y="0"/>
      <point x="243" y="3.5100875600000006"/>
      <point x="243" y="7.840000000000001" type="curve"/>
      <point x="243" y="752.16" type="line"/>
      <point x="243" y="756.48991244"/>
      <point x="239.48991243999998" y="760"/>
      <point x="235.16" y="760" type="curve"/>
      <point x="222.84" y="760" type="line"/>
      <point x="218.51008756000002" y="760"/>
      <point x="215" y="756.48991244"/>
      <point x="215" y="752.16" type="curve"/>
      <point x="215" y="7.840000000000001" type="line"/>
      <point x="215" y="3.5100875600000006"/>
      <point x="218.51008756000002" y="0"/>
    </contour>
    <contour>
      <point x="111.72" y="360" type="curve"/>
      <point x="368.28" y="360" type="line"/>
      <point x="371.99135351999996" y="360"/>
      <point x="375" y="363.00864648000004"/>
      <point x="375" y="366.72" type="curve"/>
      <point x="375" y="381.28" type="line"/>
      <point x="375" y="384.99135351999996"/>
      <point x="371.99135351999996" y="388"/>
      <point x="368.28" y="388" type="curve"/>
      <point x="111.72" y="388" type="line"/>
      <point x="108.00864648" y="388"/>
      <point x="105" y="384.99135351999996"/>
      <point x="105" y="381.28" type="curve"/>
      <point x="105" y="366.72" type="line"/>
      <point x="105" y="363.00864648000004"/>
      <point x="108.00864648" y="360"/>
    </contour>
  </outline>
</glyph>
<glyph name="u" format="2">
  <advance width="600"/>
  <unicode hex="0075"/>
  <outline>
    <contour>
      <point x="67.84" y="190" type="curve"/>
      <point x="80.16" y="190" type="line"/>
      <point x="84.48991244" y="190"/>
      <point x="88" y="193.51008756000002"/>
      <point x="88" y="197.84" type="curve"/>
      <point x="88" y="547.16" type="line"/>
      <point x="88" y="551.48991244"/>
      <point x="84.48991244" y="555"/>
      <point x="80.16" y="555" type="curve"/>
      <point x="67.84" y="555" type="line"/>
      <point x="63.51008756" y="555"/>
      <point x="60" y="551.48991244"/>
      <point x="60" y="547.16" type="curve"/>
      <point x="60" y="197.84" type="line"/>
      <point x="60" y="193.51008756000002"/>
      <point x="63.51008756" y="190"/>
    </contour>
    <contour>
      <point x="323.84" y="0" type="curve"/>
      <point x="336.16" y="0" type="line"/>
      <point x="340.48991244" y="0"/>
      <point x="344" y="3.5100875600000006"/>
      <point x="344" y="7.840000000000001" type="curve"/>
      <point x="344" y="547.16" type="line"/>
      <point x="344" y="551.48991244"/>
      <point x="340.48991244" y="555"/>
      <point x="336.16" y="555" type="curve"/>
      <point x="323.84" y="555" type="line"/>
      <point x="319.51008756" y="555"/>
      <point x="316" y="551.48991244"/>
      <point x="316" y="547.16" type="curve"/>
      <point x="316" y="7.840000000000001" type="line"/>
      <point x="316" y="3.5100875600000006"/>
      <point x="319.51008756" y="0"/>
    </contour>
    <contour>
      <point x="60" y="190" type="line"/>
      <point x="60" y="67"/>
      <point x="125" y="-4"/>
      <point x="234" y="-4" type="curve"/>
      <point x="320" y="-4"/>
      <point x="344" y="67"/>
      <point x="344" y="190" type="curve"/>
      <point x="280" y="190" type="line"/>
      <point x="280" y="91"/>
      <point x="263" y="54"/>
      <point x="234" y="54" type="curve"/>
      <point x="201" y="54"/>
      <point x="124" y="91"/>
      <point x="124" y="190" type="curve"/>
    </contour>
  </outline>
</glyph>
<glyph name="v" format="2">
  <advance width="600"/>
  <unicode hex="0076"/>
  <outline>
    <contour>
      <point x="88.3519740261211" y="559.2100819001282" type="line"/>
      <point x="263.35197402612107" y="4.210081900128272" type="line"/>
      <point x="236.6480259738789" y="-4.210081900128272" type="line"/>
      <point x="61.64802597387891" y="550.7899180998718" type="line"/>
    </contour>
    <contour>
      <point x="438.35197402612107" y="550.7899180998718" type="line"/>
      <point x="263.35197402612107" y="-4.210081900128272" type="line"/>
      <point x="236.6480259738789" y="4.210081900128272" type="line"/>
      <point x="411.64802597387893" y="559.2100819001282" type="line"/>
    </contour>
  </outline>
</glyph>
<glyph name="w" format="2">
  <advance width="600"/>
  <unicode hex="0077"/>
  <outline>
    <contour>
      <point x="58.83864189565786" y="557.1194316416774" type="line"/>
      <point x="143.83864189565787" y="2.1194316416773296" type="line"/>
      <point x="116.16135810434214" y="-2.1194316416773296" type="line"/>
      <point x="31.161358104342142" y="552.8805683583226" type="line"/>
    </contour>
    <contour>
      <point x="468.8386418956579" y="552.8805683583226" type="line"/>
      <point x="383.8386418956579" y="-2.1194316416773296" type="line"/>
      <point x="356.1613581043421" y="2.1194316416773296" type="line"/>
      <point x="441.1613581043421" y="557.1194316416774" type="line"/>
    </contour>
    <contour>
      <point x="117.00132632760636" y="5.199469468957452" type="line"/>
      <point x="237.00132632760636" y="305.19946946895743" type="line"/>
      <point x="262.99867367239364" y="294.80053053104257" type="line"/>
      <point x="142.99867367239364" y="-5.199469468957452" type="line"/>
    </contour>
    <contour>
      <point x="357.00132632760636" y="-5.199469468957452" type="line"/>
      <point x="237.00132632760636" y="294.80053053104257" type="line"/>
      <point x="262.99867367239364" y="305.19946946895743" type="line"/>
      <point x="382.99867367239364" y="5.199469468957452" type="line"/>
    </contour>
  </outline>
</glyph>
<glyph name="x" format="2">
  <advance width="600"/>
  <unicode hex="0078"/>
  <outline>
    <contour>
      <point x="81.74545801838723" y="562.6186754713863" type="line"/>
      <point x="441.74545801838724" y="7.618675471386306" type="line"/>
      <point x="418.25454198161276" y="-7.618675471386306" type="line"/>
      <point x="58.25454198161278" y="547.3813245286137" type="line"/>
    </contour>
    <contour>
      <point x="441.74545801838724" y="547.3813245286137" type="line"/>
      <point x="81.74545801838723" y="-7.618675471386306" type="line"/>
      <point x="58.25454198161278" y="7.618675471386306" type="line"/>
      <point x="418.25454198161276" y="562.6186754713863" type="line"/>
    </contour>
  </outline>
</glyph>
<glyph name="z" format="2">
  <advance width="600"/>
  <unicode hex="007A"/>
  <outline>
    <contour>
      <point x="70" y="527" type="line"/>
      <point x="430" y="527" type="line"/>
      <point x="430" y="555" type="line"/>
      <point x="70" y="555" type="line"/>
    </contour>
    <contour>
      <point x="421.9666654393796" y="533.7337135851965" type="line"/>
      <point x="101.96666543937957" y="6.733713585196463" type="line"/>
      <point x="78.03333456062043" y="21.266286414803538" type="line"/>
      <point x="398.0333345606204" y="548.2662864148035" type="line"/>
    </contour>
    <contour>
      <point x="70" y="0" type="line"/>
      <point x="430" y="0" type="line"/>
      <point x="430" y="28" type="line"/>
      <point x="70" y="28" type="line"/>
    </contour>
  </outline>
</glyph>
<glyph name="uni00A1" format="2">
  <advance width="600"/>
  <unicode hex="00A1"/>
  <outline>
    <contour>
      <point x="286.0" y="0" type="line"/>
      <point x="314.0" y="0" type="line"/>
      <point x="314.0" y="425" type="line"/>
      <point x="286.0" y="425" type="line"/>
    </contour>
    <contour>
      <point x="314.0" y="520" type="curve" smooth="yes"/>
      <point x="314.0" y="527.7319865"/>
      <point x="307.7319865" y="534.0"/>
      <point x="300.0" y="534.0" type="curve" smooth="yes"/>
      <point x="292.2680135" y="534.0"/>
      <point x="286.0" y="527.7319865"/>
      <point x="286.0" y="520" type="curve" smooth="yes"/>
      <point x="286.0" y="512.2680135"/>
      <point x="292.2680135" y="506.0"/>
      <point x="300.0" y="506.0" type="curve" smooth="yes"/>
      <point x="307.7319865" y="506.0"/>
      <point x="314.0" y="512.2680135"/>
    </contour>
  </outline>
</glyph>
<glyph name="uni00A9" format="2">
  <advance width="600"/>
  <unicode hex="00A9"/>
  <outline>
    <contour>
      <point x="490.0" y="350" type="curve" smooth="yes"/>
      <point x="490.0" y="493.59403499999996"/>
      <point x="404.9341025" y="610"/>
      <point x="300.0" y="610" type="curve" smooth="yes"/>
      <point x="195.0658975" y="610"/>
      <point x="110.0" y="493.59403499999996"/>
      <point x="110.0" y="350" type="curve" smooth="yes"/>
      <point x="110.0" y="206.405965"/>
      <point x="195.0658975" y="90"/>
      <point x="300.0" y="90" type="curve" smooth="yes"/>
      <point x="404.9341025" y="90"/>
      <point x="490.0" y="206.405965"/>
    </contour>
    <contour>
      <point x="462.0" y="350" type="curve" smooth="yes"/>
      <point x="462.0" y="221.869938"/>
      <point x="389.4701295" y="118"/>
      <point x="300.0" y="118" type="curve" smooth="yes"/>
      <point x="210.52987050000002" y="118"/>
      <point x="138.0" y="221.869938"/>
      <point x="138.0" y="350" type="curve" smooth="yes"/>
      <point x="138.0" y="478.130062"/>
      <point x="210.52987050000002" y="582"/>
      <point x="300.0" y="582" type="curve" smooth="yes"/>
      <point x="389.4701295" y="582"/>
      <point x="462.0" y="478.130062"/>
    </contour>
    <contour>
      <point x="245.0" y="180" type="line"/>
      <point x="273.0" y="180" type="line"/>
      <point x="273.0" y="520" type="line"/>
      <point x="245.0" y="520" type="line"/>
    </contour>
    <contour>
      <point x="290.0" y="180" type="line"/>
      <point x="400.0" y="180" type="line"/>
      <point x="400.0" y="208" type="line"/>
      <point x="290.0" y="208" type="line"/>
    </contour>
    <contour>
      <point x="290.0" y="480" type="line"/>
      <point x="400.0" y="480" type="line"/>
      <point x="400.0" y="508" type="line"/>
      <point x="290.0" y="508" type="line"/>
    </contour>
  </outline>
</glyph>
<glyph name="uni00AE" format="2">
  <advance width="600"/>
  <unicode hex="00AE"/>
  <outline>
    <contour>
      <point x="490.0" y="350" type="curve" smooth="yes"/>
      <point x="490.0" y="493.59403499999996"/>
      <point x="404.9341025" y="610"/>
      <point x="300.0" y="610" type="curve" smooth="yes"/>
      <point x="195.0658975" y="610"/>
      <point x="110.0" y="493.59403499999996"/>
      <point x="110.0" y="350" type="curve" smooth="yes"/>
      <point x="110.0" y="206.405965"/>
      <point x="195.0658975" y="90"/>
      <point x="300.0" y="90" type="curve" smooth="yes"/>
      <point x="404.9341025" y="90"/>
      <point x="490.0" y="206.405965"/>
    </contour>
    <contour>
      <point x="462.0" y="350" type="curve" smooth="yes"/>
      <point x="462.0" y="221.869938"/>
      <point x="389.4701295" y="118"/>
      <point x="300.0" y="118" type="curve" smooth="yes"/>
      <point x="210.52987050000002" y="118"/>
      <point x="138.0" y="221.869938"/>
      <point x="138.0" y="350" type="curve" smooth="yes"/>
      <point x="138.0" y="478.130062"/>
      <point x="210.52987050000002" y="582"/>
      <point x="300.0" y="582" type="curve" smooth="yes"/>
      <point x="389.4701295" y="582"/>
      <point x="462.0" y="478.130062"/>
    </contour>
    <contour>
      <point x="238.0" y="225" type="line"/>
      <point x="266.0" y="225" type="line"/>
      <point x="266.0" y="450" type="line"/>
      <point x="238.0" y="450" type="line"/>
    </contour>
    <contour>
      <point x="238.0" y="410" type="line"/>
      <point x="326.0" y="410" type="line"/>
      <point x="326.0" y="438" type="line"/>
      <point x="238.0" y="438" type="line"/>
    </contour>
    <contour>
      <point x="308.0" y="340" type="line"/>
      <point x="336.0" y="340" type="line"/>
      <point x="336.0" y="435" type="line"/>
      <point x="308.0" y="435" type="line"/>
    </contour>
    <contour>
      <point x="308.32315289413907" y="346.64378677770975" type="line"/>
      <point x="370.32315289413907" y="231.64378677770978" type="line"/>
      <point x="345.67684710586093" y="218.35621322229022" type="line"/>
      <point x="283.67684710586093" y="333.35621322229025" type="line"/>
    </contour>
  </outline>
</glyph>
<glyph name="uni00B0" format="2">
  <advance width="600"/>
  <unicode hex="00B0"/>
  <outline>
    <contour>
      <point x="370.0" y="500" type="curve" smooth="yes"/>
      <point x="370.0" y="538.6599325"/>
      <point x="338.65993249999997" y="570"/>
      <point x="300.0" y="570" type="curve" smooth="yes"/>
      <point x="261.34006750000003" y="570"/>
      <point x="230.0" y="538.6599325"/>
      <point x="230.0" y="500" type="curve" smooth="yes"/>
      <point x="230.0" y="461.34006750000003"/>
      <point x="261.34006750000003" y="430"/>
      <point x="300.0" y="430" type="curve" smooth="yes"/>
      <point x="338.65993249999997" y="430"/>
      <point x="370.0" y="461.34006750000003"/>
    </contour>
    <contour>
      <point x="342.0" y="500" type="curve" smooth="yes"/>
      <point x="342.0" y="476.8040405"/>
      <point x="323.1959595" y="458"/>
      <point x="300.0" y="458" type="curve" smooth="yes"/>
      <point x="276.8040405" y="458"/>
      <point x="258.0" y="476.8040405"/>
      <point x="258.0" y="500" type="curve" smooth="yes"/>
      <point x="258.0" y="523.1959595"/>
      <point x="276.8040405" y="542"/>
      <point x="300.0" y="542" type="curve" smooth="yes"/>
      <point x="323.1959595" y="542"/>
      <point x="342.0" y="523.1959595"/>
    </contour>
  </outline>
</glyph>
<glyph name="uni00B1" format="2">
  <advance width="600"/>
  <unicode hex="00B1"/>
  <outline>
    <contour>
      <point x="150.0" y="410" type="line"/>
      <point x="450.0" y="410" type="line"/>
      <point x="450.0" y="438" type="line"/>
      <point x="150.0" y="438" type="line"/>
    </contour>
    <contour>
      <point x="286.0" y="270" type="line"/>
      <point x="314.0" y="270" type="line"/>
      <point x="314.0" y="550" type="line"/>
      <point x="286.0" y="550" type="line"/>
    </contour>
    <contour>
      <point x="150.0" y="120" type="line"/>
      <point x="450.0" y="120" type="line"/>
      <point x="450.0" y="148" type="line"/>
      <point x="150.0" y="148" type="line"/>
    </contour>
  </outline>
</glyph>
<glyph name="uni00B7" format="2">
  <advance width="600"/>
  <unicode hex="00B7"/>
  <outline>
    <contour>
      <point x="314.0" y="280" type="curve" smooth="yes"/>
      <point x="314.0" y="287.7319865"/>
      <point x="307.7319865" y="294.0"/>
      <point x="300.0" y="294.0" type="curve" smooth="yes"/>
      <point x="292.2680135" y="294.0"/>
      <point x="286.0" y="287.7319865"/>
      <point x="286.0" y="280" type="curve" smooth="yes"/>
      <point x="286.0" y="272.2680135"/>
      <point x="292.2680135" y="266.0"/>
      <point x="300.0" y="266.0" type="curve" smooth="yes"/>
      <point x="307.7319865" y="266.0"/>
      <point x="314.0" y="272.2680135"/>
    </contour>
  </outline>
</glyph>
<glyph name="uni00D1" format="2">
  <advance width="600"/>
  <unicode hex="00D1"/>
  <outline>
    <contour>
      <point x="236.83883890073005" y="763.3730872846713" type="line"/>
      <point x="276.83883890073" y="791.3730872846713" type="line"/>
      <point x="287.16116109927" y="776.6269127153287" type="line"/>
      <point x="247.16116109926995" y="748.6269127153287" type="line"/>
    </contour>
    <contour>
      <point x="287.16116109927" y="791.3730872846713" type="line"/>
      <point x="327.16116109927" y="763.3730872846713" type="line"/>
      <point x="316.83883890073" y="748.6269127153287" type="line"/>
      <point x="276.83883890073" y="776.6269127153287" type="line"/>
    </contour>
    <contour>
      <point x="316.66120865755136" y="763.2455025361803" type="line"/>
      <point x="354.66120865755136" y="791.2455025361803" type="line"/>
      <point x="365.33879134244864" y="776.7544974638197" type="line"/>
      <point x="327.33879134244864" y="748.7544974638197" type="line"/>
    </contour>
    <component base="N"/>
  </outline>
</glyph>
<glyph name="uni00D7" format="2">
  <advance width="600"/>
  <unicode hex="00D7"/>
  <outline>
    <contour>
      <point x="160.10050506338834" y="219.89949493661166" type="line"/>
      <point x="420.1005050633883" y="479.8994949366117" type="line"/>
      <point x="439.8994949366117" y="460.1005050633883" type="line"/>
      <point x="179.89949493661166" y="200.10050506338834" type="line"/>
    </contour>
    <contour>
      <point x="420.1005050633883" y="200.10050506338834" type="line"/>
      <point x="160.10050506338834" y="460.1005050633883" type="line"/>
      <point x="179.89949493661166" y="479.8994949366117" type="line"/>
      <point x="439.8994949366117" y="219.89949493661166" type="line"/>
    </contour>
  </outline>
</glyph>
<glyph name="uni00E0" format="2">
  <advance width="600"/>
  <unicode hex="00E0"/>
  <outline>
    <contour>
      <point x="344.4460662933042" y="626.7192174578062" type="line"/>
      <point x="268.4460662933042" y="548.7192174578062" type="line"/>
      <point x="255.55393370669577" y="561.2807825421938" type="line"/>
      <point x="331.5539337066958" y="639.2807825421938" type="line"/>
    </contour>
    <component base="a"/>
  </outline>
</glyph>
<glyph name="uni00EE" format="2">
  <advance width="600"/>
  <unicode hex="00EE"/>
  <outline>
    <contour>
      <point x="235.19544837391626" y="577.8905073778038" type="line"/>
      <point x="293.1954483739163" y="644.8905073778038" type="line"/>
      <point x="306.8045516260837" y="633.1094926221962" type="line"/>
      <point x="248.80455162608374" y="566.1094926221962" type="line"/>
    </contour>
    <contour>
      <point x="306.8045516260837" y="644.8905073778038" type="line"/>
      <point x="364.8045516260837" y="577.8905073778038" type="line"/>
      <point x="351.1954483739163" y="566.1094926221962" type="line"/>
      <point x="293.1954483739163" y="633.1094926221962" type="line"/>
    </contour>
    <component base="i"/>
  </outline>
</glyph>
<glyph name="uni00F1" format="2">
  <advance width="600"/>
  <unicode hex="00F1"/>
  <outline>
    <contour>
      <point x="236.83883890073005" y="614.3730872846713" type="line"/>
      <point x="276.83883890073" y="642.3730872846713" type="line"/>
      <point x="287.16116109927" y="627.6269127153287" type="line"/>
      <point x="247.16116109926995" y="599.6269127153287" type="line"/>
    </contour>
    <contour>
      <point x="287.16116109927" y="642.3730872846713" type="line"/>
      <point x="327.16116109927" y="614.3730872846713" type="line"/>
      <point x="316.83883890073" y="599.6269127153287" type="line"/>
      <point x="276.83883890073" y="627.6269127153287" type="line"/>
    </contour>
    <contour>
      <point x="316.66120865755136" y="614.2455025361803" type="line"/>
      <point x="354.66120865755136" y="642.2455025361803" type="line"/>
      <point x="365.33879134244864" y="627.7544974638197" type="line"/>
      <point x="327.33879134244864" y="599.7544974638197" type="line"/>
    </contour>
    <component base="n"/>
  </outline>
</glyph>
<glyph name="uni00F7" format="2">
  <advance width="600"/>
  <unicode hex="00F7"/>
  <outline>
    <contour>
      <point x="150.0" y="320" type="line"/>
      <point x="450.0" y="320" type="line"/>
      <point x="450.0" y="348" type="line"/>
      <point x="150.0" y="348" type="line"/>
    </contour>
    <contour>
      <point x="314.0" y="500" type="curve" smooth="yes"/>
      <point x="314.0" y="507.7319865"/>
      <point x="307.7319865" y="514.0"/>
      <point x="300.0" y="514.0" type="curve" smooth="yes"/>
      <point x="292.2680135" y="514.0"/>
      <point x="286.0" y="507.7319865"/>
      <point x="286.0" y="500" type="curve" smooth="yes"/>
      <point x="286.0" y="492.2680135"/>
      <point x="292.2680135" y="486.0"/>
      <point x="300.0" y="486.0" type="curve" smooth="yes"/>
      <point x="307.7319865" y="486.0"/>
      <point x="314.0" y="492.2680135"/>
    </contour>
    <contour>
      <point x="314.0" y="140" type="curve" smooth="yes"/>
      <point x="314.0" y="147.7319865"/>
      <point x="307.7319865" y="154.0"/>
      <point x="300.0" y="154.0" type="curve" smooth="yes"/>
      <point x="292.2680135" y="154.0"/>
      <point x="286.0" y="147.7319865"/>
      <point x="286.0" y="140" type="curve" smooth="yes"/>
      <point x="286.0" y="132.2680135"/>
      <point x="292.2680135" y="126.0"/>
      <point x="300.0" y="126.0" type="curve" smooth="yes"/>
      <point x="307.7319865" y="126.0"/>
      <point x="314.0" y="132.2680135"/>
    </contour>
  </outline>
</glyph>
<glyph name="uni0100" format="2">
  <advance width="600"/>
  <unicode hex="0100"/>
  <outline>
    <contour>
      <point x="232.0" y="746" type="line"/>
      <point x="368.0" y="746" type="line"/>
      <point x="368.0" y="764" type="line"/>
      <point x="232.0" y="764" type="line"/>
    </contour>
    <component base="A"/>
  </outline>
</glyph>
<glyph name="uni0106" format="2">
  <advance width="600"/>
  <unicode hex="0106"/>
  <outline>
    <contour>
      <point x="255.55393370669577" y="710.2807825421938" type="line"/>
      <point x="331.5539337066958" y="788.2807825421938" type="line"/>
      <point x="344.4460662933042" y="775.7192174578062" type="line"/>
      <point x="268.4460662933042" y="697.7192174578062" type="line"/>
    </contour>
    <component base="C"/>
  </outline>
</glyph>
<glyph name="uni0115" format="2">
  <advance width="600"/>
  <unicode hex="0115"/>
  <outline>
    <contour>
      <point x="364.0" y="615" type="curve" smooth="yes"/>
      <point x="364.0" y="595.67003375"/>
      <point x="335.346224" y="580"/>
      <point x="300.0" y="580" type="curve" smooth="yes"/>
      <point x="264.653776" y="580"/>
      <point x="236.0" y="595.67003375"/>
      <point x="236.0" y="615" type="curve" smooth="yes"/>
      <point x="236.0" y="634.32996625"/>
      <point x="264.653776" y="650"/>
      <point x="300.0" y="650" type="curve" smooth="yes"/>
      <point x="335.346224" y="650"/>
      <point x="364.0" y="634.32996625"/>
    </contour>
    <contour>
      <point x="230.0" y="579" type="line"/>
      <point x="370.0" y="579" type="line"/>
      <point x="370.0" y="617" type="line"/>
      <point x="230.0" y="617" type="line"/>
    </contour>
    <component base="e"/>
  </outline>
</glyph>
<glyph name="uni0124" format="2">
  <advance width="600"/>
  <unicode hex="0124"/>
  <outline>
    <contour>
      <point x="235.19544837391626" y="726.8905073778038" type="line"/>
      <point x="293.1954483739163" y="793.8905073778038" type="line"/>
      <point x="306.8045516260837" y="782.1094926221962" type="line"/>
      <point x="248.80455162608374" y="715.1094926221962" type="line"/>
    </contour>
    <contour>
      <point x="306.8045516260837" y="793.8905073778038" type="line"/>
      <point x="364.8045516260837" y="726.8905073778038" type="line"/>
      <point x="351.1954483739163" y="715.1094926221962" type="line"/>
      <point x="293.1954483739163" y="782.1094926221962" type="line"/>
    </contour>
    <component base="H"/>
  </outline>
</glyph>
<glyph name="uni0127" format="2">
  <advance width="600"/>
  <unicode hex="0127"/>
  <outline>
    <contour>
      <point x="154.05037558605488" y="104.21941603509394" type="line"/>
      <point x="430.0503755860549" y="624.2194160350939" type="line"/>
      <point x="445.9496244139451" y="615.7805839649061" type="line"/>
      <point x="169.94962441394512" y="95.78058396490606" type="line"/>
    </contour>
    <component base="h"/>
  </outline>
</glyph>
<glyph name="uni0128" format="2">
  <advance width="600"/>
  <unicode hex="0128"/>
  <outline>
    <contour>
      <point x="238.0" y="754" type="line"/>
      <point x="262.0" y="780" type="line"/>
      <point x="286.0" y="780" type="line"/>
      <point x="310.0" y="754" type="line"/>
      <point x="334.0" y="754" type="line"/>
      <point x="362.0" y="780" type="line"/>
      <point x="362.0" y="769.56" type="line"/>
      <point x="334.0" y="743.56" type="line"/>
      <point x="310.0" y="743.56" type="line"/>
      <point x="286.0" y="769.56" type="line"/>
      <point x="262.0" y="769.56" type="line"/>
      <point x="238.0" y="743.56" type="line"/>
    </contour>
    <component base="I"/>
  </outline>
</glyph>
<glyph name="uni012B" format="2">
  <advance width="600"/>
  <unicode hex="012B"/>
  <outline>
    <contour>
      <point x="232.0" y="597" type="line"/>
      <point x="368.0" y="597" type="line"/>
      <point x="368.0" y="615" type="line"/>
      <point x="232.0" y="615" type="line"/>
    </contour>
    <component base="i"/>
  </outline>
</glyph>
<glyph name="uni012F" format="2">
  <advance width="600"/>
  <unicode hex="012F"/>
  <outline>
    <contour>
      <point x="320.7557634883852" y="12.082451856697016" type="line"/>
      <point x="364.7557634883852" y="-172.91754814330298" type="line"/>
      <point x="347.2442365116148" y="-177.08245185669702" type="line"/>
      <point x="303.2442365116148" y="7.917548143302983" type="line"/>
    </contour>
    <component base="i"/>
  </outline>
</glyph>
<glyph name="uni013A" format="2">
  <advance width="600"/>
  <unicode hex="013A"/>
  <outline>
    <contour>
      <point x="255.55393370669577" y="561.2807825421938" type="line"/>
      <point x="331.5539337066958" y="639.2807825421938" type="line"/>
      <point x="344.4460662933042" y="626.7192174578062" type="line"/>
      <point x="268.4460662933042" y="548.7192174578062" type="line"/>
    </contour>
    <component base="l"/>
  </outline>
</glyph>
<glyph name="uni0140" format="2">
  <advance width="600"/>
  <unicode hex="0140"/>
  <outline>
    <contour>
      <point x="450.0" y="266.4" type="curve" smooth="yes"/>
      <point x="450.0" y="273.02741699999996"/>
      <point x="444.627417" y="278.4"/>
      <point x="438.0" y="278.4" type="curve" smooth="yes"/>
      <point x="431.372583" y="278.4"/>
      <point x="426.0" y="273.02741699999996"/>
      <point x="426.0" y="266.4" type="curve" smooth="yes"/>
      <point x="426.0" y="259.772583"/>
      <point x="431.372583" y="254.39999999999998"/>
      <point x="438.0" y="254.39999999999998" type="curve" smooth="yes"/>
      <point x="444.627417" y="254.39999999999998"/>
      <point x="450.0" y="259.772583"/>
    </contour>
    <component base="l"/>
  </outline>
</glyph>
<glyph name="uni0149" format="2">
  <advance width="600"/>
  <unicode hex="0149"/>
  <outline>
    <contour>
      <point x="179.40216918523217" y="565.4757731555878" type="line"/>
      <point x="131.40216918523217" y="635.4757731555878" type="line"/>
      <point x="144.59783081476783" y="644.5242268444122" type="line"/>
      <point x="192.59783081476783" y="574.5242268444122" type="line"/>
    </contour>
    <component base="n"/>
  </outline>
</glyph>
<glyph name="uni0151" format="2">
  <advance width="600"/>
  <unicode hex="0151"/>
  <outline>
    <contour>
      <point x="237.63208273409202" y="577.1685389775772" type="line"/>
      <point x="284.632082734092" y="644.1685389775772" type="line"/>
      <point x="299.367917265908" y="633.8314610224228" type="line"/>
      <point x="252.36791726590798" y="566.8314610224228" type="line"/>
    </contour>
    <contour>
      <point x="300.632082734092" y="577.1685389775772" type="line"/>
      <point x="347.632082734092" y="644.1685389775772" type="line"/>
      <point x="362.367917265908" y="633.8314610224228" type="line"/>
      <point x="315.367917265908" y="566.8314610224228" type="line"/>
    </contour>
    <component base="o"/>
  </outline>
</glyph>
<glyph name="uni0156" format="2">
  <advance width="600"/>
  <unicode hex="0156"/>
  <outline>
    <contour>
      <point x="309.0" y="-105.0" type="curve" smooth="yes"/>
      <point x="309.0" y="-100.02943725"/>
      <point x="304.97056275" y="-96.0"/>
      <point x="300.0" y="-96.0" type="curve" smooth="yes"/>
      <point x="295.02943725" y="-96.0"/>
      <point x="291.0" y="-100.02943725"/>
      <point x="291.0" y="-105.0" type="curve" smooth="yes"/>
      <point x="291.0" y="-109.97056275"/>
      <point x="295.02943725" y="-114.0"/>
      <point x="300.0" y="-114.0" type="curve" smooth="yes"/>
      <point x="304.97056275" y="-114.0"/>
      <point x="309.0" y="-109.97056275"/>
    </contour>
    <contour>
      <point x="308.86969111921337" y="-13.525968364595851" type="line"/>
      <point x="276.86969111921337" y="-199.52596836459585" type="line"/>
      <point x="259.13030888078663" y="-196.47403163540415" type="line"/>
      <point x="291.13030888078663" y="-10.474031635404149" type="line"/>
    </contour>
    <component base="R"/>
  </outline>
</glyph>
<glyph name="uni0158" format="2">
  <advance width="600"/>
  <unicode hex="0158"/>
  <outline>
    <contour>
      <point x="248.80455162608374" y="793.8905073778038" type="line"/>
      <point x="306.8045516260837" y="726.8905073778038" type="line"/>
      <point x="293.1954483739163" y="715.1094926221962" type="line"/>
      <point x="235.19544837391626" y="782.1094926221962" type="line"/>
    </contour>
    <contour>
      <point x="293.1954483739163" y="726.8905073778038" type="line"/>
      <point x="351.1954483739163" y="793.8905073778038" type="line"/>
      <point x="364.8045516260837" y="782.1094926221962" type="line"/>
      <point x="306.8045516260837" y="715.1094926221962" type="line"/>
    </contour>
    <component base="R"/>
  </outline>
</glyph>
<glyph name="uni017B" format="2">
  <advance width="600"/>
  <unicode hex="017B"/>
  <outline>
    <contour>
      <point x="309.0" y="764" type="curve" smooth="yes"/>
      <point x="309.0" y="768.97056275"/>
      <point x="304.97056275" y="773.0"/>
      <point x="300.0" y="773.0" type="curve" smooth="yes"/>
      <point x="295.02943725" y="773.0"/>
      <point x="291.0" y="768.97056275"/>
      <point x="291.0" y="764" type="curve" smooth="yes"/>
      <point x="291.0" y="759.02943725"/>
      <point x="295.02943725" y="755.0"/>
      <point x="300.0" y="755.0" type="curve" smooth="yes"/>
      <point x="304.97056275" y="755.0"/>
      <point x="309.0" y="759.02943725"/>
    </contour>
    <component base="Z"/>
  </outline>
</glyph>
<glyph name="uni017C" format="2">
  <advance width="600"/>
  <unicode hex="017C"/>
  <outline>
    <contour>
      <point x="309.0" y="615" type="curve" smooth="yes"/>
      <point x="309.0" y="619.97056275"/>
      <point x="304.97056275" y="624.0"/>
      <point x="300.0" y="624.0" type="curve" smooth="yes"/>
      <point x="295.02943725" y="624.0"/>
      <point x="291.0" y="619.97056275"/>
      <point x="291.0" y="615" type="curve" smooth="yes"/>
      <point x="291.0" y="610.02943725"/>
      <point x="295.02943725" y="606.0"/>
      <point x="300.0" y="606.0" type="curve" smooth="yes"/>
      <point x="304.97056275" y="606.0"/>
      <point x="309.0" y="610.02943725"/>
    </contour>
    <component base="z"/>
  </outline>
</glyph>
<glyph name="uni01AF" format="2">
  <advance width="600"/>
  <unicode hex="01AF"/>
  <outline>
    <contour>
      <point x="362.0" y="752" type="line"/>
      <point x="384.0" y="760" type="line"/>
      <point x="416.0" y="794" type="line"/>
      <point x="404.0" y="794" type="line"/>
      <point x="368.0" y="766" type="line"/>
      <point x="362.0" y="740" type="line"/>
    </contour>
    <component base="U"/>
  </outline>
</glyph>
<glyph name="uni01B0" format="2">
  <advance width="600"/>
  <unicode hex="01B0"/>
  <outline>
    <contour>
      <point x="362.0" y="603" type="line"/>
      <point x="384.0" y="611" type="line"/>
      <point x="416.0" y="645" type="line"/>
      <point x="404.0" y="645" type="line"/>
      <point x="368.0" y="617" type="line"/>
      <point x="362.0" y="591" type="line"/>
    </contour>
    <component base="u"/>
  </outline>
</glyph>
<glyph name="uni0218" format="2">
  <advance width="600"/>
  <unicode hex="0218"/>
  <outline>
    <contour>
      <point x="309.0" y="-105.0" type="curve" smooth="yes"/>
      <point x="309.0" y="-100.02943725"/>
      <point x="304.97056275" y="-96.0"/>
      <point x="300.0" y="-96.0" type="curve" smooth="yes"/>
      <point x="295.02943725" y="-96.0"/>
      <point x="291.0" y="-100.02943725"/>
      <point x="291.0" y="-105.0" type="curve" smooth="yes"/>
      <point x="291.0" y="-109.97056275"/>
      <point x="295.02943725" y="-114.0"/>
      <point x="300.0" y="-114.0" type="curve" smooth="yes"/>
      <point x="304.97056275" y="-114.0"/>
      <point x="309.0" y="-109.97056275"/>
    </contour>
    <contour>
      <point x="312.92600079970623" y="-13.15174203867177" type="line"/>
      <point x="288.92600079970623" y="-199.15174203867178" type="line"/>
      <point x="271.07399920029377" y="-196.84825796132822" type="line"/>
      <point x="295.07399920029377" y="-10.84825796132823" type="line"/>
    </contour>
    <component base="S"/>
  </outline>
</glyph>
<glyph name="uni038F" format="2">
  <advance width="600"/>
  <unicode hex="038F"/>
  <outline>
    <contour>
      <point x="65.84" y="0" type="curve"/>
      <point x="162.16" y="0" type="line"/>
      <point x="166.48991243999998" y="0"/>
      <point x="170" y="3.5100875600000006"/>
      <point x="170" y="7.840000000000001" type="curve"/>
      <point x="170" y="20.16" type="line"/>
      <point x="170" y="24.48991244"/>
      <point x="166.48991243999998" y="28"/>
      <point x="162.16" y="28" type="curve"/>
      <point x="65.84" y="28" type="line"/>
      <point x="61.51008756" y="28"/>
      <point x="58" y="24.48991244"/>
      <point x="58" y="20.16" type="curve"/>
      <point x="58" y="7.840000000000001" type="line"/>
      <point x="58" y="3.5100875600000006"/>
      <point x="61.51008756" y="0"/>
    </contour>
    <contour>
      <point x="337.84" y="0" type="curve"/>
      <point x="434.16" y="0" type="line"/>
      <point x="438.48991244" y="0"/>
      <point x="442" y="3.5100875600000006"/>
      <point x="442" y="7.840000000000001" type="curve"/>
      <point x="442" y="20.16" type="line"/>
      <point x="442" y="24.48991244"/>
      <point x="438.48991244" y="28"/>
      <point x="434.16" y="28" type="curve"/>
      <point x="337.84" y="28" type="line"/>
      <point x="333.51008756" y="28"/>
      <point x="330" y="24.48991244"/>
      <point x="330" y="20.16" type="curve"/>
      <point x="330" y="7.840000000000001" type="line"/>
      <point x="330" y="3.5100875600000006"/>
      <point x="333.51008756" y="0"/>
    </contour>
    <contour>
      <point x="92" y="44" type="line"/>
      <point x="38" y="190"/>
      <point x="68" y="708"/>
      <point x="250" y="708" type="curve"/>
      <point x="432" y="708"/>
      <point x="462" y="190"/>
      <point x="408" y="44" type="curve"/>
      <point x="344" y="44" type="line"/>
      <point x="384" y="172"/>
      <point x="360" y="642"/>
      <point x="250" y="642" type="curve"/>
      <point x="140" y="642"/>
      <point x="116" y="172"/>
      <point x="156" y="44" type="curve"/>
    </contour>
    <contour>
      <point x="255.55393370669577" y="710.2807825421938" type="line"/>
      <point x="331.5539337066958" y="788.2807825421938" type="line"/>
      <point x="344.4460662933042" y="775.7192174578062" type="line"/>
      <point x="268.4460662933042" y="697.7192174578062" type="line"/>
    </contour>
  </outline>
</glyph>
<glyph name="uni0390" format="2">
  <advance width="600"/>
  <unicode hex="0390"/>
  <outline>
    <contour>
      <point x="271.0" y="615" type="curve"/>
      <point x="271.0" y="619.97056275"/>
      <point x="266.97056275" y="624.0"/>
      <point x="262.0" y="624.0" type="curve"/>
      <point x="257.02943725" y="624.0"/>
      <point x="253.0" y="619.97056275"/>
      <point x="253.0" y="615" type="curve"/>
      <point x="253.0" y="610.02943725"/>
      <point x="257.02943725" y="606.0"/>
      <point x="262.0" y="606.0" type="curve"/>
      <point x="266.97056275" y="606.0"/>
      <point x="271.0" y="610.02943725"/>
    </contour>
    <contour>
      <point x="347.0" y="615" type="curve"/>
      <point x="347.0" y="619.97056275"/>
      <point x="342.97056275" y="624.0"/>
      <point x="338.0" y="624.0" type="curve"/>
      <point x="333.02943725" y="624.0"/>
      <point x="329.0" y="619.97056275"/>
      <point x="329.0" y="615" type="curve"/>
      <point x="329.0" y="610.02943725"/>
      <point x="333.02943725" y="606.0"/>
      <point x="338.0" y="606.0" type="curve"/>
      <point x="342.97056275" y="606.0"/>
      <point x="347.0" y="610.02943725"/>
    </contour>
    <contour>
      <point x="255.55393370669577" y="561.2807825421938" type="line"/>
      <point x="331.5539337066958" y="639.2807825421938" type="line"/>
      <point x="344.4460662933042" y="626.7192174578062" type="line"/>
      <point x="268.4460662933042" y="548.7192174578062" type="line"/>
    </contour>
    <component base="i"/>
  </outline>
</glyph>
<glyph name="uni0393" format="2">
  <advance width="600"/>
  <unicode hex="0393"/>
  <outline>
    <contour>
      <point x="65.84" y="0" type="curve"/>
      <point x="78.16" y="0" type="line"/>
      <point x="82.48991244" y="0"/>
      <point x="86" y="3.5100875600000006"/>
      <point x="86" y="7.840000000000001" type="curve"/>
      <point x="86" y="692.16" type="line"/>
      <point x="86" y="696.48991244"/>
      <point x="82.48991244" y="700"/>
      <point x="78.16" y="700" type="curve"/>
      <point x="65.84" y="700" type="line"/>
      <point x="61.51008756" y="700"/>
      <point x="58" y="696.48991244"/>
      <point x="58" y="692.16" type="curve"/>
      <point x="58" y="7.840000000000001" type="line"/>
      <point x="58" y="3.5100875600000006"/>
      <point x="61.51008756" y="0"/>
    </contour>
    <contour>
      <point x="58" y="672" type="line"/>
      <point x="408" y="672" type="line"/>
      <point x="408" y="700" type="line"/>
      <point x="58" y="700" type="line"/>
    </contour>
  </outline>
</glyph>
<glyph name="uni0394" format="2">
  <advance width="600"/>
  <unicode hex="0394"/>
  <outline>
    <contour>
      <point x="54.45048490496419" y="3.52287392470931" type="line"/>
      <point x="236.45048490496418" y="703.5228739247093" type="line"/>
      <point x="263.5495150950358" y="696.4771260752907" type="line"/>
      <point x="81.54951509503582" y="-3.52287392470931" type="line"/>
    </contour>
    <contour>
      <point x="418.4504849049642" y="-3.52287392470931" type="line"/>
      <point x="236.45048490496418" y="696.4771260752907" type="line"/>
      <point x="263.5495150950358" y="703.5228739247093" type="line"/>
      <point x="445.5495150950358" y="3.52287392470931" type="line"/>
    </contour>
    <contour>
      <point x="79.84" y="0" type="curve"/>
      <point x="420.16" y="0" type="line"/>
      <point x="424.48991244" y="0"/>
      <point x="428" y="3.5100875600000006"/>
      <point x="428" y="7.840000000000001" type="curve"/>
      <point x="428" y="20.16" type="line"/>
      <point x="428" y="24.48991244"/>
      <point x="424.48991244" y="28"/>
      <point x="420.16" y="28" type="curve"/>
      <point x="79.84" y="28" type="line"/>
      <point x="75.51008756" y="28"/>
      <point x="72" y="24.48991244"/>
      <point x="72" y="20.16" type="curve"/>
      <point x="72" y="7.840000000000001" type="line"/>
      <point x="72" y="3.5100875600000006"/>
      <point x="75.51008756" y="0"/>
    </contour>
  </outline>
</glyph>
<glyph name="uni039B" format="2">
  <advance width="600"/>
  <unicode hex="039B"/>
  <outline>
    <contour>
      <point x="54.45048490496419" y="3.52287392470931" type="line"/>
      <point x="236.45048490496418" y="703.5228739247093" type="line"/>
      <point x="263.5495150950358" y="696.4771260752907" type="line"/>
      <point x="81.54951509503582" y="-3.52287392470931" type="line"/>
    </contour>
    <contour>
      <point x="418.4504849049642" y="-3.52287392470931" type="line"/>
      <point x="236.45048490496418" y="696.4771260752907" type="line"/>
      <point x="263.5495150950358" y="703.5228739247093" type="line"/>
      <point x="445.5495150950358" y="3.52287392470931" type="line"/>
    </contour>
  </outline>
</glyph>
<glyph name="uni03A0" format="2">
  <advance width="600"/>
  <unicode hex="03A0"/>
  <outline>
    <contour>
      <point x="67.84" y="0" type="curve"/>
      <point x="80.16" y="0" type="line"/>
      <point x="84.48991244" y="0"/>
      <point x="88" y="3.5100875600000006"/>
      <point x="88" y="7.840000000000001" type="curve"/>
      <point x="88" y="692.16" type="line"/>
      <point x="88" y="696.48991244"/>
      <point x="84.48991244" y="700"/>
      <point x="80.16" y="700" type="curve"/>
      <point x="67.84" y="700" type="line"/>
      <point x="63.51008756" y="700"/>
      <point x="60" y="696.48991244"/>
      <point x="60" y="692.16" type="curve"/>
      <point x="60" y="7.840000000000001" type="line"/>
      <point x="60" y="3.5100875600000006"/>
      <point x="63.51008756" y="0"/>
    </contour>
    <contour>
      <point x="383.84" y="0" type="curve"/>
      <point x="396.16" y="0" type="line"/>
      <point x="400.48991244" y="0"/>
      <point x="404" y="3.5100875600000006"/>
      <point x="404" y="7.840000000000001" type="curve"/>
      <point x="404" y="692.16" type="line"/>
      <point x="404" y="696.48991244"/>
      <point x="400.48991244" y="700"/>
      <point x="396.16" y="700" type="curve"/>
      <point x="383.84" y="700" type="line"/>
      <point x="379.51008756" y="700"/>
      <point x="376" y="696.48991244"/>
      <point x="376" y="692.16" type="curve"/>
      <point x="376" y="7.840000000000001" type="line"/>
      <point x="376" y="3.5100875600000006"/>
      <point x="379.51008756" y="0"/>
    </contour>
    <contour>
      <point x="60" y="672" type="line"/>
      <point x="440" y="672" type="line"/>
      <point x="440" y="700" type="line"/>
      <point x="60" y="700" type="line"/>
    </contour>
  </outline>
</glyph>
<glyph name="uni03A3" format="2">
  <advance width="600"/>
  <unicode hex="03A3"/>
  <outline>
    <contour>
      <point x="89.84" y="672" type="curve"/>
      <point x="414.16" y="672" type="line"/>
      <point x="418.48991244" y="672"/>
      <point x="422" y="675.51008756"/>
      <point x="422" y="679.84" type="curve"/>
      <point x="422" y="692.16" type="line"/>
      <point x="422" y="696.48991244"/>
      <point x="418.48991244" y="700"/>
      <point x="414.16" y="700" type="curve"/>
      <point x="89.84" y="700" type="line"/>
      <point x="85.51008756" y="700"/>
      <point x="82" y="696.48991244"/>
      <point x="82" y="692.16" type="curve"/>
      <point x="82" y="679.84" type="line"/>
      <point x="82" y="675.51008756"/>
      <point x="85.51008756" y="672"/>
    </contour>
    <contour>
      <point x="409.26403711420073" y="677.6860678442804" type="line"/>
      <point x="161.26403711420073" y="341.6860678442804" type="line"/>
      <point x="138.73596288579927" y="358.3139321557196" type="line"/>
      <point x="386.73596288579927" y="694.3139321557196" type="line"/>
    </contour>
    <contour>
      <point x="161.26403711420073" y="358.3139321557196" type="line"/>
      <point x="409.26403711420073" y="22.313932155719595" type="line"/>
      <point x="386.73596288579927" y="5.686067844280405" type="line"/>
      <point x="138.73596288579927" y="341.6860678442804" type="line"/>
    </contour>
    <contour>
      <point x="89.84" y="0" type="curve"/>
      <point x="414.16" y="0" type="line"/>
      <point x="418.48991244" y="0"/>
      <point x="422" y="3.5100875600000006"/>
      <point x="422" y="7.840000000000001" type="curve"/>
      <point x="422" y="20.16" type="line"/>
      <point x="422" y="24.48991244"/>
      <point x="418.48991244" y="28"/>
      <point x="414.16" y="28" type="curve"/>
      <point x="89.84" y="28" type="line"/>
      <point x="85.51008756" y="28"/>
      <point x="82" y="24.48991244"/>
      <point x="82" y="20.16" type="curve"/>
      <point x="82" y="7.840000000000001" type="line"/>
      <point x="82" y="3.5100875600000006"/>
      <point x="85.51008756" y="0"/>
    </contour>
  </outline>
</glyph>
<glyph name="uni03A6" format="2">
  <advance width="600"/>
  <unicode hex="03A6"/>
  <outline>
    <contour>
      <point x="428" y="350.0" type="curve"/>
      <point x="428" y="488.0711875"/>
      <point x="348.3066855" y="600.0"/>
      <point x="250" y="600.0" type="curve"/>
      <point x="151.69331449999999" y="600.0"/>
      <point x="72" y="488.0711875"/>
      <point x="72" y="350.0" type="curve"/>
      <point x="72" y="211.9288125"/>
      <point x="151.69331449999999" y="100.0"/>
      <point x="250" y="100.0" type="curve"/>
      <point x="348.3066855" y="100.0"/>
      <point x="428" y="211.9288125"/>
    </contour>
    <contour>
      <point x="400" y="350.0" type="curve"/>
      <point x="400" y="227.3927855"/>
      <point x="332.8427125" y="128.0"/>
      <point x="250" y="128.0" type="curve"/>
      <point x="167.1572875" y="128.0"/>
      <point x="100" y="227.3927855"/>
      <point x="100" y="350.0" type="curve"/>
      <point x="100" y="472.6072145"/>
      <point x="167.1572875" y="572.0"/>
      <point x="250" y="572.0" type="curve"/>
      <point x="332.8427125" y="572.0"/>
      <point x="400" y="472.6072145"/>
    </contour>
    <contour>
      <point x="243.84" y="-56" type="curve"/>
      <point x="256.16" y="-56" type="line"/>
      <point x="260.48991244" y="-56"/>
      <point x="264.0" y="-52.48991244"/>
      <point x="264.0" y="-48.16" type="curve"/>
      <point x="264.0" y="748.16" type="line"/>
      <point x="264.0" y="752.48991244"/>
      <point x="260.48991244" y="756"/>
      <point x="256.16" y="756" type="curve"/>
      <point x="243.84" y="756" type="line"/>
      <point x="239.51008756000002" y="756"/>
      <point x="236.0" y="752.48991244"/>
      <point x="236.0" y="748.16" type="curve"/>
      <point x="236.0" y="-48.16" type="line"/>
      <point x="236.0" y="-52.48991244"/>
      <point x="239.51008756000002" y="-56"/>
    </contour>
  </outline>
</glyph>
<glyph name="uni03A8" format="2">
  <advance width="600"/>
  <unicode hex="03A8"/>
  <outline>
    <contour>
      <point x="428" y="478" type="curve"/>
      <point x="428" y="575.202116"/>
      <point x="348.3066855" y="654"/>
      <point x="250" y="654" type="curve"/>
      <point x="151.69331449999999" y="654"/>
      <point x="72" y="575.202116"/>
      <point x="72" y="478" type="curve"/>
      <point x="72" y="380.797884"/>
      <point x="151.69331449999999" y="302"/>
      <point x="250" y="302" type="curve"/>
      <point x="348.3066855" y="302"/>
      <point x="428" y="380.797884"/>
    </contour>
    <contour>
      <point x="400" y="478" type="curve"/>
      <point x="400" y="396.261857"/>
      <point x="332.8427125" y="330"/>
      <point x="250" y="330" type="curve"/>
      <point x="167.1572875" y="330"/>
      <point x="100" y="396.261857"/>
      <point x="100" y="478" type="curve"/>
      <point x="100" y="559.738143"/>
      <point x="167.1572875" y="626"/>
      <point x="250" y="626" type="curve"/>
      <point x="332.8427125" y="626"/>
      <point x="400" y="559.738143"/>
    </contour>
    <contour>
      <point x="243.84" y="0" type="curve"/>
      <point x="256.16" y="0" type="line"/>
      <point x="260.48991244" y="0"/>
      <point x="264.0" y="3.5100875600000006"/>
      <point x="264.0" y="7.840000000000001" type="curve"/>
      <point x="264.0" y="462.16" type="line"/>
      <point x="264.0" y="466.48991244"/>
      <point x="260.48991244" y="470"/>
      <point x="256.16" y="470" type="curve"/>
      <point x="243.84" y="470" type="line"/>
      <point x="239.51008756000002" y="470"/>
      <point x="236.0" y="466.48991244"/>
      <point x="236.0" y="462.16" type="curve"/>
      <point x="236.0" y="7.840000000000001" type="line"/>
      <point x="236.0" y="3.5100875600000006"/>
      <point x="239.51008756000002" y="0"/>
    </contour>
  </outline>
</glyph>
<glyph name="uni03AC" format="2">
  <advance width="600"/>
  <unicode hex="03AC"/>
  <outline>
    <contour>
      <point x="359" y="246" type="curve"/>
      <point x="359" y="381.8620485"/>
      <point x="294.08128875" y="492"/>
      <point x="214" y="492" type="curve"/>
      <point x="133.91871125" y="492"/>
      <point x="69" y="381.8620485"/>
      <point x="69" y="246" type="curve"/>
      <point x="69" y="110.13795150000001"/>
      <point x="133.91871125" y="0"/>
      <point x="214" y="0" type="curve"/>
      <point x="294.08128875" y="0"/>
      <point x="359" y="110.13795150000001"/>
    </contour>
    <contour>
      <point x="331" y="246" type="curve"/>
      <point x="331" y="125.6019245"/>
      <point x="278.61731575" y="28"/>
      <point x="214" y="28" type="curve"/>
      <point x="149.38268425" y="28"/>
      <point x="97" y="125.6019245"/>
      <point x="97" y="246" type="curve"/>
      <point x="97" y="366.3980755"/>
      <point x="149.38268425" y="464"/>
      <point x="214" y="464" type="curve"/>
      <point x="278.61731575" y="464"/>
      <point x="331" y="366.3980755"/>
    </contour>
    <contour>
      <point x="372.84" y="0" type="curve"/>
      <point x="385.16" y="0" type="line"/>
      <point x="389.48991244" y="0"/>
      <point x="393" y="3.5100875600000006"/>
      <point x="393" y="7.840000000000001" type="curve"/>
      <point x="393" y="547.16" type="line"/>
      <point x="393" y="551.48991244"/>
      <point x="389.48991244" y="555"/>
      <point x="385.16" y="555" type="curve"/>
      <point x="372.84" y="555" type="line"/>
      <point x="368.51008756" y="555"/>
      <point x="365" y="551.48991244"/>
      <point x="365" y="547.16" type="curve"/>
      <point x="365" y="7.840000000000001" type="line"/>
      <point x="365" y="3.5100875600000006"/>
      <point x="368.51008756" y="0"/>
    </contour>
    <contour>
      <point x="365" y="0" type="line"/>
      <point x="430" y="0" type="line"/>
      <point x="430" y="28" type="line"/>
      <point x="365" y="28" type="line"/>
    </contour>
    <contour>
      <point x="255.55393370669577" y="561.2807825421938" type="line"/>
      <point x="331.5539337066958" y="639.2807825421938" type="line"/>
      <point x="344.4460662933042" y="626.7192174578062" type="line"/>
      <point x="268.4460662933042" y="548.7192174578062" type="line"/>
    </contour>
  </outline>
</glyph>
<glyph name="uni03AE" format="2">
  <advance width="600"/>
  <unicode hex="03AE"/>
  <outline>
    <contour>
      <point x="67.84" y="0" type="curve"/>
      <point x="80.16" y="0" type="line"/>
      <point x="84.48991244" y="0"/>
      <point x="88" y="3.5100875600000006"/>
      <point x="88" y="7.840000000000001" type="curve"/>
      <point x="88" y="547.16" type="line"/>
      <point x="88" y="551.48991244"/>
      <point x="84.48991244" y="555"/>
      <point x="80.16" y="555" type="curve"/>
      <point x="67.84" y="555" type="line"/>
      <point x="63.51008756" y="555"/>
      <point x="60" y="551.48991244"/>
      <point x="60" y="547.16" type="curve"/>
      <point x="60" y="7.840000000000001" type="line"/>
      <point x="60" y="3.5100875600000006"/>
      <point x="63.51008756" y="0"/>
    </contour>
    <contour>
      <point x="124" y="-210" type="line"/>
      <point x="124" y="555" type="line"/>
      <point x="198.8" y="565"/>
      <point x="344" y="424.95"/>
      <point x="344" y="271.95" type="curve"/>
      <point x="344" y="-210" type="line"/>
      <point x="316" y="-210" type="line"/>
      <point x="316" y="271.95" type="line"/>
      <point x="316" y="539.6"/>
      <point x="226.8" y="527"/>
      <point x="152" y="527" type="curve"/>
      <point x="152" y="-210" type="line"/>
    </contour>
    <contour>
      <point x="255.55393370669577" y="561.2807825421938" type="line"/>
      <point x="331.5539337066958" y="639.2807825421938" type="line"/>
      <point x="344.4460662933042" y="626.7192174578062" type="line"/>
      <point x="268.4460662933042" y="548.7192174578062" type="line"/>
    </contour>
  </outline>
</glyph>
<glyph name="uni03B1" format="2">
  <advance width="600"/>
  <unicode hex="03B1"/>
  <outline>
    <contour>
      <point x="359" y="246" type="curve"/>
      <point x="359" y="381.8620485"/>
      <point x="294.08128875" y="492"/>
      <point x="214" y="492" type="curve"/>
      <point x="133.91871125" y="492"/>
      <point x="69" y="381.8620485"/>
      <point x="69" y="246" type="curve"/>
      <point x="69" y="110.13795150000001"/>
      <point x="133.91871125" y="0"/>
      <point x="214" y="0" type="curve"/>
      <point x="294.08128875" y="0"/>
      <point x="359" y="110.13795150000001"/>
    </contour>
    <contour>
      <point x="331" y="246" type="curve"/>
      <point x="331" y="125.6019245"/>
      <point x="278.61731575" y="28"/>
      <point x="214" y="28" type="curve"/>
      <point x="149.38268425" y="28"/>
      <point x="97" y="125.6019245"/>
      <point x="97" y="246" type="curve"/>
      <point x="97" y="366.3980755"/>
      <point x="149.38268425" y="464"/>
      <point x="214" y="464" type="curve"/>
      <point x="278.61731575" y="464"/>
      <point x="331" y="366.3980755"/>
    </contour>
    <contour>
      <point x="372.84" y="0" type="curve"/>
      <point x="385.16" y="0" type="line"/>
      <point x="389.48991244" y="0"/>
      <point x="393" y="3.5100875600000006"/>
      <point x="393" y="7.840000000000001" type="curve"/>
      <point x="393" y="547.16" type="line"/>
      <point x="393" y="551.48991244"/>
      <point x="389.48991244" y="555"/>
      <point x="385.16" y="555" type="curve"/>
      <point x="372.84" y="555" type="line"/>
      <point x="368.51008756" y="555"/>
      <point x="365" y="551.48991244"/>
      <point x="365" y="547.16" type="curve"/>
      <point x="365" y="7.840000000000001" type="line"/>
      <point x="365" y="3.5100875600000006"/>
      <point x="368.51008756" y="0"/>
    </contour>
    <contour>
      <point x="365" y="0" type="line"/>
      <point x="430" y="0" type="line"/>
      <point x="430" y="28" type="line"/>
      <point x="365" y="28" type="line"/>
    </contour>
  </outline>
</glyph>
<glyph name="uni03B2" format="2">
  <advance width="600"/>
  <unicode hex="03B2"/>
  <outline>
    <contour>
      <point x="79.84" y="-210" type="curve"/>
      <point x="92.16" y="-210" type="line"/>
      <point x="96.48991244" y="-210"/>
      <point x="100" y="-206.48991243999998"/>
      <point x="100" y="-202.16" type="curve"/>
      <point x="100" y="752.16" type="line"/>
      <point x="100" y="756.48991244"/>
      <point x="96.48991244" y="760"/>
      <point x="92.16" y="760" type="curve"/>
      <point x="79.84" y="760" type="line"/>
      <point x="75.51008756" y="760"/>
      <point x="72" y="756.48991244"/>
      <point x="72" y="752.16" type="curve"/>
      <point x="72" y="-202.16" type="line"/>
      <point x="72" y="-206.48991243999998"/>
      <point x="75.51008756" y="-210"/>
    </contour>
    <contour>
      <point x="382" y="386" type="curve"/>
      <point x="382" y="478.783838"/>
      <point x="316.6335735" y="554"/>
      <point x="236" y="554" type="curve"/>
      <point x="155.3664265" y="554"/>
      <point x="90" y="478.783838"/>
      <point x="90" y="386" type="curve"/>
      <point x="90" y="293.216162"/>
      <point x="155.3664265" y="218"/>
      <point x="236" y="218" type="curve"/>
      <point x="316.6335735" y="218"/>
      <point x="382" y="293.216162"/>
    </contour>
    <contour>
      <point x="354" y="386" type="curve"/>
      <point x="354" y="308.680135"/>
      <point x="301.1696005" y="246"/>
      <point x="236" y="246" type="curve"/>
      <point x="170.8303995" y="246"/>
      <point x="118" y="308.680135"/>
      <point x="118" y="386" type="curve"/>
      <point x="118" y="463.319865"/>
      <point x="170.8303995" y="526"/>
      <point x="236" y="526" type="curve"/>
      <point x="301.1696005" y="526"/>
      <point x="354" y="463.319865"/>
    </contour>
    <contour>
      <point x="382" y="142" type="curve"/>
      <point x="382" y="224.8427125"/>
      <point x="316.6335735" y="292"/>
      <point x="236" y="292" type="curve"/>
      <point x="155.3664265" y="292"/>
      <point x="90" y="224.8427125"/>
      <point x="90" y="142" type="curve"/>
      <point x="90" y="59.157287499999995"/>
      <point x="155.3664265" y="-8"/>
      <point x="236" y="-8" type="curve"/>
      <point x="316.6335735" y="-8"/>
      <point x="382" y="59.157287499999995"/>
    </contour>
    <contour>
      <point x="354" y="142" type="curve"/>
      <point x="354" y="74.6212605"/>
      <point x="301.1696005" y="20"/>
      <point x="236" y="20" type="curve"/>
      <point x="170.8303995" y="20"/>
      <point x="118" y="74.6212605"/>
      <point x="118" y="142" type="curve"/>
      <point x="118" y="209.3787395"/>
      <point x="170.8303995" y="264"/>
      <point x="236" y="264" type="curve"/>
      <point x="301.1696005" y="264"/>
      <point x="354" y="209.3787395"/>
    </contour>
  </outline>
</glyph>
<glyph name="uni03B3" format="2">
  <advance width="600"/>
  <unicode hex="03B3"/>
  <outline>
    <contour>
      <point x="87.0630175328702" y="560.0356303414692" type="line"/>
      <point x="257.0630175328702" y="119.03563034146924" type="line"/>
      <point x="230.93698246712978" y="108.96436965853076" type="line"/>
      <point x="60.936982467129795" y="549.9643696585308" type="line"/>
    </contour>
    <contour>
      <point x="438.94123506948966" y="549.6591728284645" type="line"/>
      <point x="256.94123506948966" y="108.65917282846459" type="line"/>
      <point x="231.05876493051034" y="119.34082717153541" type="line"/>
      <point x="413.05876493051034" y="560.3408271715355" type="line"/>
    </contour>
    <contour>
      <point x="219.84" y="-210" type="curve"/>
      <point x="232.16" y="-210" type="line"/>
      <point x="236.48991243999998" y="-210"/>
      <point x="240" y="-206.48991243999998"/>
      <point x="240" y="-202.16" type="curve"/>
      <point x="240" y="-63.84" type="line"/>
      <point x="240" y="-59.51008756"/>
      <point x="236.48991243999998" y="-56"/>
      <point x="232.16" y="-56" type="curve"/>
      <point x="219.84" y="-56" type="line"/>
      <point x="215.51008756000002" y="-56"/>
      <point x="212" y="-59.51008756"/>
      <point x="212" y="-63.84" type="curve"/>
      <point x="212" y="-202.16" type="line"/>
      <point x="212" y="-206.48991243999998"/>
      <point x="215.51008756000002" y="-210"/>
    </contour>
  </outline>
</glyph>
<glyph name="uni03B4" format="2">
  <advance width="600"/>
  <unicode hex="03B4"/>
  <outline>
    <contour>
      <point x="396" y="226" type="curve"/>
      <point x="396" y="350.8163535"/>
      <point x="328.8427125" y="452"/>
      <point x="246" y="452" type="curve"/>
      <point x="163.1572875" y="452"/>
      <point x="96" y="350.8163535"/>
      <point x="96" y="226" type="curve"/>
      <point x="96" y="101.18364650000001"/>
      <point x="163.1572875" y="0"/>
      <point x="246" y="0" type="curve"/>
      <point x="328.8427125" y="0"/>
      <point x="396" y="101.18364650000001"/>
    </contour>
    <contour>
      <point x="368" y="226" type="curve"/>
      <point x="368" y="116.6476195"/>
      <point x="313.3787395" y="28"/>
      <point x="246" y="28" type="curve"/>
      <point x="178.6212605" y="28"/>
      <point x="124" y="116.6476195"/>
      <point x="124" y="226" type="curve"/>
      <point x="124" y="335.3523805"/>
      <point x="178.6212605" y="424"/>
      <point x="246" y="424" type="curve"/>
      <point x="313.3787395" y="424"/>
      <point x="368" y="335.3523805"/>
    </contour>
    <contour>
      <point x="154" y="420" type="line"/>
      <point x="120" y="620"/>
      <point x="220" y="748"/>
      <point x="374" y="706" type="curve"/>
      <point x="356" y="642" type="line"/>
      <point x="258" y="658"/>
      <point x="214" y="586"/>
      <point x="218" y="438" type="curve"/>
    </contour>
  </outline>
</glyph>
<glyph name="uni03B5" format="2">
  <advance width="600"/>
  <unicode hex="03B5"/>
  <outline>
    <contour>
      <point x="396.15999999999997" y="443.92" type="line"/>
      <point x="333.52" y="522"/>
      <point x="176.92000000000002" y="522"/>
      <point x="76" y="382.92" type="curve"/>
      <point x="76" y="173.07999999999998"/>
      <point x="176.92000000000002" y="34"/>
      <point x="333.52" y="34" type="curve"/>
      <point x="377.02" y="95.0"/>
      <point x="396.15999999999997" y="136.48000000000002"/>
      <point x="396.15999999999997" y="156.0" type="curve"/>
      <point x="372.64" y="182.84" type="line"/>
      <point x="316.12" y="62"/>
      <point x="104" y="199.92000000000002"/>
      <point x="104" y="278" type="curve"/>
      <point x="104" y="356.08"/>
      <point x="316.12" y="494"/>
      <point x="372.64" y="373.15999999999997" type="curve"/>
    </contour>
    <contour>
      <point x="226.72" y="246" type="curve"/>
      <point x="373.28" y="246" type="line"/>
      <point x="376.99135351999996" y="246"/>
      <point x="380" y="249.00864648"/>
      <point x="380" y="252.72" type="curve"/>
      <point x="380" y="267.28" type="line"/>
      <point x="380" y="270.99135351999996"/>
      <point x="376.99135351999996" y="274"/>
      <point x="373.28" y="274" type="curve"/>
      <point x="226.72" y="274" type="line"/>
      <point x="223.00864648" y="274"/>
      <point x="220" y="270.99135351999996"/>
      <point x="220" y="267.28" type="curve"/>
      <point x="220" y="252.72" type="line"/>
      <point x="220" y="249.00864648"/>
      <point x="223.00864648" y="246"/>
    </contour>
  </outline>
</glyph>
<glyph name="uni03B8" format="2">
  <advance width="600"/>
  <unicode hex="03B8"/>
  <outline>
    <contour>
      <point x="420" y="278" type="curve"/>
      <point x="420" y="431.53516049999996"/>
      <point x="343.88840749999997" y="556"/>
      <point x="250" y="556" type="curve"/>
      <point x="156.1115925" y="556"/>
      <point x="80" y="431.53516049999996"/>
      <point x="80" y="278" type="curve"/>
      <point x="80" y="124.46483950000001"/>
      <point x="156.1115925" y="0"/>
      <point x="250" y="0" type="curve"/>
      <point x="343.88840749999997" y="0"/>
      <point x="420" y="124.46483950000001"/>
    </contour>
    <contour>
      <point x="392" y="278" type="curve"/>
      <point x="392" y="139.9288125"/>
      <point x="328.4244345" y="28"/>
      <point x="250" y="28" type="curve"/>
      <point x="171.57556549999998" y="28"/>
      <point x="108" y="139.9288125"/>
      <point x="108" y="278" type="curve"/>
      <point x="108" y="416.0711875"/>
      <point x="171.57556549999998" y="528"/>
      <point x="250" y="528" type="curve"/>
      <point x="328.4244345" y="528"/>
      <point x="392" y="416.0711875"/>
    </contour>
    <contour>
      <point x="110.72" y="246" type="curve"/>
      <point x="389.28" y="246" type="line"/>
      <point x="392.99135351999996" y="246"/>
      <point x="396" y="249.00864648"/>
      <point x="396" y="252.72" type="curve"/>
      <point x="396" y="267.28" type="line"/>
      <point x="396" y="270.99135351999996"/>
      <point x="392.99135351999996" y="274"/>
      <point x="389.28" y="274" type="curve"/>
      <point x="110.72" y="274" type="line"/>
      <point x="107.00864648" y="274"/>
      <point x="104" y="270.99135351999996"/>
      <point x="104" y="267.28" type="curve"/>
      <point x="104" y="252.72" type="line"/>
      <point x="104" y="249.00864648"/>
      <point x="107.00864648" y="246"/>
    </contour>
  </outline>
</glyph>
<glyph name="uni03BC" format="2">
  <advance width="600"/>
  <unicode hex="03BC"/>
  <outline>
    <contour>
      <point x="67.84" y="-210" type="curve"/>
      <point x="80.16" y="-210" type="line"/>
      <point x="84.48991244" y="-210"/>
      <point x="88" y="-206.48991243999998"/>
      <point x="88" y="-202.16" type="curve"/>
      <point x="88" y="547.16" type="line"/>
      <point x="88" y="551.48991244"/>
      <point x="84.48991244" y="555"/>
      <point x="80.16" y="555" type="curve"/>
      <point x="67.84" y="555" type="line"/>
      <point x="63.51008756" y="555"/>
      <point x="60" y="551.48991244"/>
      <point x="60" y="547.16" type="curve"/>
      <point x="60" y="-202.16" type="line"/>
      <point x="60" y="-206.48991243999998"/>
      <point x="63.51008756" y="-210"/>
    </contour>
    <contour>
      <point x="323.84" y="0" type="curve"/>
      <point x="336.16" y="0" type="line"/>
      <point x="340.48991244" y="0"/>
      <point x="344" y="3.5100875600000006"/>
      <point x="344" y="7.840000000000001" type="curve"/>
      <point x="344" y="547.16" type="line"/>
      <point x="344" y="551.48991244"/>
      <point x="340.48991244" y="555"/>
      <point x="336.16" y="555" type="curve"/>
      <point x="323.84" y="555" type="line"/>
      <point x="319.51008756" y="555"/>
      <point x="316" y="551.48991244"/>
      <point x="316" y="547.16" type="curve"/>
      <point x="316" y="7.840000000000001" type="line"/>
      <point x="316" y="3.5100875600000006"/>
      <point x="319.51008756" y="0"/>
    </contour>
    <contour>
      <point x="124" y="180" type="line"/>
      <point x="124" y="70"/>
      <point x="160" y="48"/>
      <point x="234" y="48" type="curve"/>
      <point x="306" y="48"/>
      <point x="344" y="92"/>
      <point x="344" y="190" type="curve"/>
      <point x="280" y="190" type="line"/>
      <point x="280" y="106"/>
      <point x="264" y="54"/>
      <point x="234" y="54" type="curve"/>
      <point x="202" y="54"/>
      <point x="124" y="96"/>
      <point x="124" y="190" type="curve"/>
    </contour>
  </outline>
</glyph>
<glyph name="uni03C0" format="2">
  <advance width="600"/>
  <unicode hex="03C0"/>
  <outline>
    <contour>
      <point x="65.84" y="527" type="curve"/>
      <point x="434.16" y="527" type="line"/>
      <point x="438.48991244" y="527"/>
      <point x="442" y="530.51008756"/>
      <point x="442" y="534.84" type="curve"/>
      <point x="442" y="547.16" type="line"/>
      <point x="442" y="551.48991244"/>
      <point x="438.48991244" y="555"/>
      <point x="434.16" y="555" type="curve"/>
      <point x="65.84" y="555" type="line"/>
      <point x="61.51008756" y="555"/>
      <point x="58" y="551.48991244"/>
      <point x="58" y="547.16" type="curve"/>
      <point x="58" y="534.84" type="line"/>
      <point x="58" y="530.51008756"/>
      <point x="61.51008756" y="527"/>
    </contour>
    <contour>
      <point x="107.84" y="0" type="curve"/>
      <point x="120.16" y="0" type="line"/>
      <point x="124.48991244" y="0"/>
      <point x="128" y="3.5100875600000006"/>
      <point x="128" y="7.840000000000001" type="curve"/>
      <point x="128" y="547.16" type="line"/>
      <point x="128" y="551.48991244"/>
      <point x="124.48991244" y="555"/>
      <point x="120.16" y="555" type="curve"/>
      <point x="107.84" y="555" type="line"/>
      <point x="103.51008756" y="555"/>
      <point x="100" y="551.48991244"/>
      <point x="100" y="547.16" type="curve"/>
      <point x="100" y="7.840000000000001" type="line"/>
      <point x="100" y="3.5100875600000006"/>
      <point x="103.51008756" y="0"/>
    </contour>
    <contour>
      <point x="349.84" y="0" type="curve"/>
      <point x="362.16" y="0" type="line"/>
      <point x="366.48991244" y="0"/>
      <point x="370" y="3.5100875600000006"/>
      <point x="370" y="7.840000000000001" type="curve"/>
      <point x="370" y="547.16" type="line"/>
      <point x="370" y="551.48991244"/>
      <point x="366.48991244" y="555"/>
      <point x="362.16" y="555" type="curve"/>
      <point x="349.84" y="555" type="line"/>
      <point x="345.51008756" y="555"/>
      <point x="342" y="551.48991244"/>
      <point x="342" y="547.16" type="curve"/>
      <point x="342" y="7.840000000000001" type="line"/>
      <point x="342" y="3.5100875600000006"/>
      <point x="345.51008756" y="0"/>
    </contour>
  </outline>
</glyph>
<glyph name="uni03C1" format="2">
  <advance width="600"/>
  <unicode hex="03C1"/>
  <outline>
    <contour>
      <point x="73.84" y="-210" type="curve"/>
      <point x="86.16" y="-210" type="line"/>
      <point x="90.48991244" y="-210"/>
      <point x="94" y="-206.48991243999998"/>
      <point x="94" y="-202.16" type="curve"/>
      <point x="94" y="547.16" type="line"/>
      <point x="94" y="551.48991244"/>
      <point x="90.48991244" y="555"/>
      <point x="86.16" y="555" type="curve"/>
      <point x="73.84" y="555" type="line"/>
      <point x="69.51008756" y="555"/>
      <point x="66" y="551.48991244"/>
      <point x="66" y="547.16" type="curve"/>
      <point x="66" y="-202.16" type="line"/>
      <point x="66" y="-206.48991243999998"/>
      <point x="69.51008756" y="-210"/>
    </contour>
    <contour>
      <point x="382" y="278" type="curve"/>
      <point x="382" y="413.8620485"/>
      <point x="314.8427125" y="524"/>
      <point x="232" y="524" type="curve"/>
      <point x="149.1572875" y="524"/>
      <point x="82" y="413.8620485"/>
      <point x="82" y="278" type="curve"/>
      <point x="82" y="142.1379515"/>
      <point x="149.1572875" y="32"/>
      <point x="232" y="32" type="curve"/>
      <point x="314.8427125" y="32"/>
      <point x="382" y="142.1379515"/>
    </contour>
    <contour>
      <point x="354" y="278" type="curve"/>
      <point x="354" y="157.6019245"/>
      <point x="299.3787395" y="60"/>
      <point x="232" y="60" type="curve"/>
      <point x="164.6212605" y="60"/>
      <point x="110" y="157.6019245"/>
      <point x="110" y="278" type="curve"/>
      <point x="110" y="398.3980755"/>
      <point x="164.6212605" y="496"/>
      <point x="232" y="496" type="curve"/>
      <point x="299.3787395" y="496"/>
      <point x="354" y="398.3980755"/>
    </contour>
  </outline>
</glyph>
<glyph name="uni03C2" format="2">
  <advance width="600"/>
  <unicode hex="03C2"/>
  <outline>
    <contour>
      <point x="408.4" y="467.04" type="line"/>
      <point x="336.4" y="556"/>
      <point x="174.4" y="556"/>
      <point x="70" y="397.53999999999996" type="curve"/>
      <point x="70" y="158.46"/>
      <point x="174.4" y="0"/>
      <point x="336.4" y="0" type="curve"/>
      <point x="381.4" y="69.5"/>
      <point x="408.4" y="116.76000000000002"/>
      <point x="408.4" y="139.0" type="curve"/>
      <point x="383.76" y="169.57999999999998" type="line"/>
      <point x="318.4" y="28"/>
      <point x="98" y="189.04"/>
      <point x="98" y="278" type="curve"/>
      <point x="98" y="366.96000000000004"/>
      <point x="318.4" y="528"/>
      <point x="383.76" y="386.42" type="curve"/>
    </contour>
    <contour>
      <point x="307.84" y="-210" type="curve"/>
      <point x="320.16" y="-210" type="line"/>
      <point x="324.48991244" y="-210"/>
      <point x="328" y="-206.48991243999998"/>
      <point x="328" y="-202.16" type="curve"/>
      <point x="328" y="-55.84" type="line"/>
      <point x="328" y="-51.51008756"/>
      <point x="324.48991244" y="-48"/>
      <point x="320.16" y="-48" type="curve"/>
      <point x="307.84" y="-48" type="line"/>
      <point x="303.51008756" y="-48"/>
      <point x="300" y="-51.51008756"/>
      <point x="300" y="-55.84" type="curve"/>
      <point x="300" y="-202.16" type="line"/>
      <point x="300" y="-206.48991243999998"/>
      <point x="303.51008756" y="-210"/>
    </contour>
  </outline>
</glyph>
<glyph name="uni03C3" format="2">
  <advance width="600"/>
  <unicode hex="03C3"/>
  <outline>
    <contour>
      <point x="408.4" y="467.04" type="line"/>
      <point x="336.4" y="556"/>
      <point x="174.4" y="556"/>
      <point x="70" y="397.53999999999996" type="curve"/>
      <point x="70" y="158.46"/>
      <point x="174.4" y="0"/>
      <point x="336.4" y="0" type="curve"/>
      <point x="381.4" y="69.5"/>
      <point x="408.4" y="116.76000000000002"/>
      <point x="408.4" y="139.0" type="curve"/>
      <point x="383.76" y="169.57999999999998" type="line"/>
      <point x="318.4" y="28"/>
      <point x="98" y="189.04"/>
      <point x="98" y="278" type="curve"/>
      <point x="98" y="366.96000000000004"/>
      <point x="318.4" y="528"/>
      <point x="383.76" y="386.42" type="curve"/>
    </contour>
  </outline>
</glyph>
<glyph name="uni03C4" format="2">
  <advance width="600"/>
  <unicode hex="03C4"/>
  <outline>
    <contour>
      <point x="79.84" y="527" type="curve"/>
      <point x="420.16" y="527" type="line"/>
      <point x="424.48991244" y="527"/>
      <point x="428" y="530.51008756"/>
      <point x="428" y="534.84" type="curve"/>
      <point x="428" y="547.16" type="line"/>
      <point x="428" y="551.48991244"/>
      <point x="424.48991244" y="555"/>
      <point x="420.16" y="555" type="curve"/>
      <point x="79.84" y="555" type="line"/>
      <point x="75.51008756" y="555"/>
      <point x="72" y="551.48991244"/>
      <point x="72" y="547.16" type="curve"/>
      <point x="72" y="534.84" type="line"/>
      <point x="72" y="530.51008756"/>
      <point x="75.51008756" y="527"/>
    </contour>
    <contour>
      <point x="225.84" y="0" type="curve"/>
      <point x="238.16" y="0" type="line"/>
      <point x="242.48991243999998" y="0"/>
      <point x="246" y="3.5100875600000006"/>
      <point x="246" y="7.840000000000001" type="curve"/>
      <point x="246" y="547.16" type="line"/>
      <point x="246" y="551.48991244"/>
      <point x="242.48991243999998" y="555"/>
      <point x="238.16" y="555" type="curve"/>
      <point x="225.84" y="555" type="line"/>
      <point x="221.51008756000002" y="555"/>
      <point x="218" y="551.48991244"/>
      <point x="218" y="547.16" type="curve"/>
      <point x="218" y="7.840000000000001" type="line"/>
      <point x="218" y="3.5100875600000006"/>
      <point x="221.51008756000002" y="0"/>
    </contour>
  </outline>
</glyph>
<glyph name="uni03C6" format="2">
  <advance width="600"/>
  <unicode hex="03C6"/>
  <outline>
    <contour>
      <point x="428" y="278" type="curve"/>
      <point x="428" y="411.65290949999996"/>
      <point x="348.3066855" y="520"/>
      <point x="250" y="520" type="curve"/>
      <point x="151.69331449999999" y="520"/>
      <point x="72" y="411.65290949999996"/>
      <point x="72" y="278" type="curve"/>
      <point x="72" y="144.3470905"/>
      <point x="151.69331449999999" y="36"/>
      <point x="250" y="36" type="curve"/>
      <point x="348.3066855" y="36"/>
      <point x="428" y="144.3470905"/>
    </contour>
    <contour>
      <point x="400" y="278" type="curve"/>
      <point x="400" y="159.8110635"/>
      <point x="332.8427125" y="64"/>
      <point x="250" y="64" type="curve"/>
      <point x="167.1572875" y="64"/>
      <point x="100" y="159.8110635"/>
      <point x="100" y="278" type="curve"/>
      <point x="100" y="396.1889365"/>
      <point x="167.1572875" y="492"/>
      <point x="250" y="492" type="curve"/>
      <point x="332.8427125" y="492"/>
      <point x="400" y="396.1889365"/>
    </contour>
    <contour>
      <point x="243.84" y="-210" type="curve"/>
      <point x="256.16" y="-210" type="line"/>
      <point x="260.48991244" y="-210"/>
      <point x="264.0" y="-206.48991243999998"/>
      <point x="264.0" y="-202.16" type="curve"/>
      <point x="264.0" y="752.16" type="line"/>
      <point x="264.0" y="756.48991244"/>
      <point x="260.48991244" y="760"/>
      <point x="256.16" y="760" type="curve"/>
      <point x="243.84" y="760" type="line"/>
      <point x="239.51008756000002" y="760"/>
      <point x="236.0" y="756.48991244"/>
      <point x="236.0" y="752.16" type="curve"/>
      <point x="236.0" y="-202.16" type="line"/>
      <point x="236.0" y="-206.48991243999998"/>
      <point x="239.51008756000002" y="-210"/>
    </contour>
  </outline>
</glyph>
<glyph name="uni03CE" format="2">
  <advance width="600"/>
  <unicode hex="03CE"/>
  <outline>
    <contour>
      <point x="63.84" y="0" type="curve"/>
      <point x="76.16" y="0" type="line"/>
      <point x="80.48991244" y="0"/>
      <point x="84" y="3.5100875600000006"/>
      <point x="84" y="7.840000000000001" type="curve"/>
      <point x="84" y="242.16" type="line"/>
      <point x="84" y="246.48991243999998"/>
      <point x="80.48991244" y="250"/>
      <point x="76.16" y="250" type="curve"/>
      <point x="63.84" y="250" type="line"/>
      <point x="59.51008756" y="250"/>
      <point x="56" y="246.48991243999998"/>
      <point x="56" y="242.16" type="curve"/>
      <point x="56" y="7.840000000000001" type="line"/>
      <point x="56" y="3.5100875600000006"/>
      <point x="59.51008756" y="0"/>
    </contour>
    <contour>
      <point x="391.84" y="0" type="curve"/>
      <point x="404.16" y="0" type="line"/>
      <point x="408.48991244" y="0"/>
      <point x="412" y="3.5100875600000006"/>
      <point x="412" y="7.840000000000001" type="curve"/>
      <point x="412" y="242.16" type="line"/>
      <point x="412" y="246.48991243999998"/>
      <point x="408.48991244" y="250"/>
      <point x="404.16" y="250" type="curve"/>
      <point x="391.84" y="250" type="line"/>
      <point x="387.51008756" y="250"/>
      <point x="384" y="246.48991243999998"/>
      <point x="384" y="242.16" type="curve"/>
      <point x="384" y="7.840000000000001" type="line"/>
      <point x="384" y="3.5100875600000006"/>
      <point x="387.51008756" y="0"/>
    </contour>
    <contour>
      <point x="56" y="248" type="line"/>
      <point x="56" y="480"/>
      <point x="154" y="560"/>
      <point x="250" y="394" type="curve"/>
      <point x="346" y="560"/>
      <point x="444" y="480"/>
      <point x="444" y="248" type="curve"/>
      <point x="380" y="248" type="line"/>
      <point x="380" y="413"/>
      <point x="326" y="452"/>
      <point x="250" y="276" type="curve"/>
      <point x="174" y="452"/>
      <point x="120" y="413"/>
      <point x="120" y="248" type="curve"/>
    </contour>
    <contour>
      <point x="255.55393370669577" y="561.2807825421938" type="line"/>
      <point x="331.5539337066958" y="639.2807825421938" type="line"/>
      <point x="344.4460662933042" y="626.7192174578062" type="line"/>
      <point x="268.4460662933042" y="548.7192174578062" type="line"/>
    </contour>
  </outline>
</glyph>
<glyph name="uni0414" format="2">
  <advance width="600"/>
  <unicode hex="0414"/>
  <outline>
    <contour>
      <point x="78.2079039896009" y="2.403765304669558" type="line"/>
      <point x="200.2079039896009" y="702.4037653046696" type="line"/>
      <point x="227.7920960103991" y="697.5962346953304" type="line"/>
      <point x="105.7920960103991" y="-2.403765304669558" type="line"/>
    </contour>
    <contour>
      <point x="394.2079039896009" y="-2.403765304669558" type="line"/>
      <point x="272.2079039896009" y="697.5962346953304" type="line"/>
      <point x="299.7920960103991" y="702.4037653046696" type="line"/>
      <point x="421.7920960103991" y="2.403765304669558" type="line"/>
    </contour>
    <contour>
      <point x="59.84" y="0" type="curve"/>
      <point x="440.16" y="0" type="line"/>
      <point x="444.48991244" y="0"/>
      <point x="448" y="3.5100875600000006"/>
      <point x="448" y="7.840000000000001" type="curve"/>
      <point x="448" y="20.16" type="line"/>
      <point x="448" y="24.48991244"/>
      <point x="444.48991244" y="28"/>
      <point x="440.16" y="28" type="curve"/>
      <point x="59.84" y="28" type="line"/>
      <point x="55.51008756" y="28"/>
      <point x="52" y="24.48991244"/>
      <point x="52" y="20.16" type="curve"/>
      <point x="52" y="7.840000000000001" type="line"/>
      <point x="52" y="3.5100875600000006"/>
      <point x="55.51008756" y="0"/>
    </contour>
  </outline>
</glyph>
<glyph name="uni0416" format="2">
  <advance width="600"/>
  <unicode hex="0416"/>
  <outline>
    <contour>
      <point x="243.84" y="0" type="curve"/>
      <point x="256.16" y="0" type="line"/>
      <point x="260.48991244" y="0"/>
      <point x="264.0" y="3.5100875600000006"/>
      <point x="264.0" y="7.840000000000001" type="curve"/>
      <point x="264.0" y="692.16" type="line"/>
      <point x="264.0" y="696.48991244"/>
      <point x="260.48991244" y="700"/>
      <point x="256.16" y="700" type="curve"/>
      <point x="243.84" y="700" type="line"/>
      <point x="239.51008756000002" y="700"/>
      <point x="236.0" y="696.48991244"/>
      <point x="236.0" y="692.16" type="curve"/>
      <point x="236.0" y="7.840000000000001" type="line"/>
      <point x="236.0" y="3.5100875600000006"/>
      <point x="239.51008756000002" y="0"/>
    </contour>
    <contour>
      <point x="86.5076535770542" y="706.2895629416043" type="line"/>
      <point x="438.5076535770542" y="6.289562941604396" type="line"/>
      <point x="413.4923464229458" y="-6.289562941604396" type="line"/>
      <point x="61.4923464229458" y="693.7104370583957" type="line"/>
    </contour>
    <contour>
      <point x="438.5076535770542" y="693.7104370583957" type="line"/>
      <point x="86.5076535770542" y="-6.289562941604396" type="line"/>
      <point x="61.4923464229458" y="6.289562941604396" type="line"/>
      <point x="413.4923464229458" y="706.2895629416043" type="line"/>
    </contour>
  </outline>
</glyph>
<glyph name="uni0417" format="2">
  <advance width="600"/>
  <unicode hex="0417"/>
  <outline>
    <contour>
      <point x="415.2" y="697.2" type="line"/>
      <point x="285.0" y="702.24"/>
      <point x="79.2" y="697.76"/>
      <point x="77.8" y="434.0" type="curve"/>
      <point x="76.4" y="357.0"/>
      <point x="229.0" y="352.24"/>
      <point x="246.5" y="350" type="curve"/>
      <point x="285.0" y="266.0"/>
      <point x="423.88" y="329.0"/>
      <point x="422.76" y="203.0" type="curve"/>
      <point x="421.64" y="1.4000000000000001"/>
      <point x="208.0" y="-1.68"/>
      <point x="76.4" y="3.9200000000000004" type="curve"/>
      <point x="79.48" y="27.439999999999998" type="line"/>
      <point x="215.0" y="17.36"/>
      <point x="406.8" y="23.8"/>
      <point x="408.76" y="189.0" type="curve"/>
      <point x="409.88" y="315.0"/>
      <point x="267.5" y="308.0"/>
      <point x="236.0" y="350.84" type="curve"/>
      <point x="190.5" y="354.2"/>
      <point x="87.88" y="353.36"/>
      <point x="89.56" y="448.0" type="curve"/>
      <point x="91.24" y="682.64"/>
      <point x="278.0" y="687.4"/>
      <point x="416.04" y="672.56" type="curve"/>
    </contour>
  </outline>
</glyph>
<glyph name="uni0426" format="2">
  <advance width="600"/>
  <unicode hex="0426"/>
  <outline>
    <contour>
      <point x="65.84" y="150" type="curve"/>
      <point x="78.16" y="150" type="line"/>
      <point x="82.48991244" y="150"/>
      <point x="86" y="153.51008756000002"/>
      <point x="86" y="157.84" type="curve"/>
      <point x="86" y="692.16" type="line"/>
      <point x="86" y="696.48991244"/>
      <point x="82.48991244" y="700"/>
      <point x="78.16" y="700" type="curve"/>
      <point x="65.84" y="700" type="line"/>
      <point x="61.51008756" y="700"/>
      <point x="58" y="696.48991244"/>
      <point x="58" y="692.16" type="curve"/>
      <point x="58" y="157.84" type="line"/>
      <point x="58" y="153.51008756000002"/>
      <point x="61.51008756" y="150"/>
    </contour>
    <contour>
      <point x="383.84" y="0" type="curve"/>
      <point x="396.16" y="0" type="line"/>
      <point x="400.48991244" y="0"/>
      <point x="404" y="3.5100875600000006"/>
      <point x="404" y="7.840000000000001" type="curve"/>
      <point x="404" y="692.16" type="line"/>
      <point x="404" y="696.48991244"/>
      <point x="400.48991244" y="700"/>
      <point x="396.16" y="700" type="curve"/>
      <point x="383.84" y="700" type="line"/>
      <point x="379.51008756" y="700"/>
      <point x="376" y="696.48991244"/>
      <point x="376" y="692.16" type="curve"/>
      <point x="376" y="7.840000000000001" type="line"/>
      <point x="376" y="3.5100875600000006"/>
      <point x="379.51008756" y="0"/>
    </contour>
    <contour>
      <point x="58" y="0" type="line"/>
      <point x="440" y="0" type="line"/>
      <point x="440" y="28" type="line"/>
      <point x="58" y="28" type="line"/>
    </contour>
    <contour>
      <point x="383.84" y="-210" type="curve"/>
      <point x="396.16" y="-210" type="line"/>
      <point x="400.48991244" y="-210"/>
      <point x="404" y="-206.48991243999998"/>
      <point x="404" y="-202.16" type="curve"/>
      <point x="404" y="-57.84" type="line"/>
      <point x="404" y="-53.51008756"/>
      <point x="400.48991244" y="-50"/>
      <point x="396.16" y="-50" type="curve"/>
      <point x="383.84" y="-50" type="line"/>
      <point x="379.51008756" y="-50"/>
      <point x="376" y="-53.51008756"/>
      <point x="376" y="-57.84" type="curve"/>
      <point x="376" y="-202.16" type="line"/>
      <point x="376" y="-206.48991243999998"/>
      <point x="379.51008756" y="-210"/>
    </contour>
  </outline>
</glyph>
<glyph name="uni0427" format="2">
  <advance width="600"/>
  <unicode hex="0427"/>
  <outline>
    <contour>
      <point x="65.84" y="330" type="curve"/>
      <point x="78.16" y="330" type="line"/>
      <point x="82.48991244" y="330"/>
      <point x="86" y="333.51008756"/>
      <point x="86" y="337.84" type="curve"/>
      <point x="86" y="692.16" type="line"/>
      <point x="86" y="696.48991244"/>
      <point x="82.48991244" y="700"/>
      <point x="78.16" y="700" type="curve"/>
      <point x="65.84" y="700" type="line"/>
      <point x="61.51008756" y="700"/>
      <point x="58" y="696.48991244"/>
      <point x="58" y="692.16" type="curve"/>
      <point x="58" y="337.84" type="line"/>
      <point x="58" y="333.51008756"/>
      <point x="61.51008756" y="330"/>
    </contour>
    <contour>
      <point x="383.84" y="0" type="curve"/>
      <point x="396.16" y="0" type="line"/>
      <point x="400.48991244" y="0"/>
      <point x="404" y="3.5100875600000006"/>
      <point x="404" y="7.840000000000001" type="curve"/>
      <point x="404" y="692.16" type="line"/>
      <point x="404" y="696.48991244"/>
      <point x="400.48991244" y="700"/>
      <point x="396.16" y="700" type="curve"/>
      <point x="383.84" y="700" type="line"/>
      <point x="379.51008756" y="700"/>
      <point x="376" y="696.48991244"/>
      <point x="376" y="692.16" type="curve"/>
      <point x="376" y="7.840000000000001" type="line"/>
      <point x="376" y="3.5100875600000006"/>
      <point x="379.51008756" y="0"/>
    </contour>
    <contour>
      <point x="65.84" y="300" type="curve"/>
      <point x="432.16" y="300" type="line"/>
      <point x="436.48991244" y="300"/>
      <point x="440" y="303.51008756"/>
      <point x="440" y="307.84" type="curve"/>
      <point x="440" y="320.16" type="line"/>
      <point x="440" y="324.48991244"/>
      <point x="436.48991244" y="328"/>
      <point x="432.16" y="328" type="curve"/>
      <point x="65.84" y="328" type="line"/>
      <point x="61.51008756" y="328"/>
      <point x="58" y="324.48991244"/>
      <point x="58" y="320.16" type="curve"/>
      <point x="58" y="307.84" type="line"/>
      <point x="58" y="303.51008756"/>
      <point x="61.51008756" y="300"/>
    </contour>
  </outline>
</glyph>
<glyph name="uni0428" format="2">
  <advance width="600"/>
  <unicode hex="0428"/>
  <outline>
    <contour>
      <point x="65.84" y="0" type="curve"/>
      <point x="78.16" y="0" type="line"/>
      <point x="82.48991244" y="0"/>
      <point x="86" y="3.5100875600000006"/>
      <point x="86" y="7.840000000000001" type="curve"/>
      <point x="86" y="692.16" type="line"/>
      <point x="86" y="696.48991244"/>
      <point x="82.48991244" y="700"/>
      <point x="78.16" y="700" type="curve"/>
      <point x="65.84" y="700" type="line"/>
      <point x="61.51008756" y="700"/>
      <point x="58" y="696.48991244"/>
      <point x="58" y="692.16" type="curve"/>
      <point x="58" y="7.840000000000001" type="line"/>
      <point x="58" y="3.5100875600000006"/>
      <point x="61.51008756" y="0"/>
    </contour>
    <contour>
      <point x="225.84" y="0" type="curve"/>
      <point x="238.16" y="0" type="line"/>
      <point x="242.48991243999998" y="0"/>
      <point x="246" y="3.5100875600000006"/>
      <point x="246" y="7.840000000000001" type="curve"/>
      <point x="246" y="692.16" type="line"/>
      <point x="246" y="696.48991244"/>
      <point x="242.48991243999998" y="700"/>
      <point x="238.16" y="700" type="curve"/>
      <point x="225.84" y="700" type="line"/>
      <point x="221.51008756000002" y="700"/>
      <point x="218" y="696.48991244"/>
      <point x="218" y="692.16" type="curve"/>
      <point x="218" y="7.840000000000001" type="line"/>
      <point x="218" y="3.5100875600000006"/>
      <point x="221.51008756000002" y="0"/>
    </contour>
    <contour>
      <point x="383.84" y="0" type="curve"/>
      <point x="396.16" y="0" type="line"/>
      <point x="400.48991244" y="0"/>
      <point x="404" y="3.5100875600000006"/>
      <point x="404" y="7.840000000000001" type="curve"/>
      <point x="404" y="692.16" type="line"/>
      <point x="404" y="696.48991244"/>
      <point x="400.48991244" y="700"/>
      <point x="396.16" y="700" type="curve"/>
      <point x="383.84" y="700" type="line"/>
      <point x="379.51008756" y="700"/>
      <point x="376" y="696.48991244"/>
      <point x="376" y="692.16" type="curve"/>
      <point x="376" y="7.840000000000001" type="line"/>
      <point x="376" y="3.5100875600000006"/>
      <point x="379.51008756" y="0"/>
    </contour>
    <contour>
      <point x="58" y="0" type="line"/>
      <point x="440" y="0" type="line"/>
      <point x="440" y="28" type="line"/>
      <point x="58" y="28" type="line"/>
    </contour>
  </outline>
</glyph>
<glyph name="uni042E" format="2">
  <advance width="600"/>
  <unicode hex="042E"/>
  <outline>
    <contour>
      <point x="61.84" y="0" type="curve"/>
      <point x="74.16" y="0" type="line"/>
      <point x="78.48991244" y="0"/>
      <point x="82" y="3.5100875600000006"/>
      <point x="82" y="7.840000000000001" type="curve"/>
      <point x="82" y="692.16" type="line"/>
      <point x="82" y="696.48991244"/>
      <point x="78.48991244" y="700"/>
      <point x="74.16" y="700" type="curve"/>
      <point x="61.84" y="700" type="line"/>
      <point x="57.51008756" y="700"/>
      <point x="54" y="696.48991244"/>
      <point x="54" y="692.16" type="curve"/>
      <point x="54" y="7.840000000000001" type="line"/>
      <point x="54" y="3.5100875600000006"/>
      <point x="57.51008756" y="0"/>
    </contour>
    <contour>
      <point x="61.84" y="320" type="curve"/>
      <point x="184.16" y="320" type="line"/>
      <point x="188.48991243999998" y="320"/>
      <point x="192" y="323.51008756"/>
      <point x="192" y="327.84" type="curve"/>
      <point x="192" y="340.16" type="line"/>
      <point x="192" y="344.48991244"/>
      <point x="188.48991243999998" y="348"/>
      <point x="184.16" y="348" type="curve"/>
      <point x="61.84" y="348" type="line"/>
      <point x="57.51008756" y="348"/>
      <point x="54" y="344.48991244"/>
      <point x="54" y="340.16" type="curve"/>
      <point x="54" y="327.84" type="line"/>
      <point x="54" y="323.51008756"/>
      <point x="57.51008756" y="320"/>
    </contour>
    <contour>
      <point x="438" y="350" type="curve"/>
      <point x="438" y="488.0711875"/>
      <point x="378.901587" y="600"/>
      <point x="306" y="600" type="curve"/>
      <point x="233.098413" y="600"/>
      <point x="174" y="488.0711875"/>
      <point x="174" y="350" type="curve"/>
      <point x="174" y="211.9288125"/>
      <point x="233.098413" y="100"/>
      <point x="306" y="100" type="curve"/>
      <point x="378.901587" y="100"/>
      <point x="438" y="211.9288125"/>
    </contour>
    <contour>
      <point x="410" y="350" type="curve"/>
      <point x="410" y="227.3927855"/>
      <point x="363.437614" y="128"/>
      <point x="306" y="128" type="curve"/>
      <point x="248.562386" y="128"/>
      <point x="202" y="227.3927855"/>
      <point x="202" y="350" type="curve"/>
      <point x="202" y="472.6072145"/>
      <point x="248.562386" y="572"/>
      <point x="306" y="572" type="curve"/>
      <point x="363.437614" y="572"/>
      <point x="410" y="472.6072145"/>
    </contour>
  </outline>
</glyph>
<glyph name="uni042F" format="2">
  <advance width="600"/>
  <unicode hex="042F"/>
  <outline>
    <contour>
      <point x="355.84" y="0" type="curve"/>
      <point x="368.16" y="0" type="line"/>
      <point x="372.48991244" y="0"/>
      <point x="376" y="3.5100875600000006"/>
      <point x="376" y="7.840000000000001" type="curve"/>
      <point x="376" y="692.16" type="line"/>
      <point x="376" y="696.48991244"/>
      <point x="372.48991244" y="700"/>
      <point x="368.16" y="700" type="curve"/>
      <point x="355.84" y="700" type="line"/>
      <point x="351.51008756" y="700"/>
      <point x="348" y="696.48991244"/>
      <point x="348" y="692.16" type="curve"/>
      <point x="348" y="7.840000000000001" type="line"/>
      <point x="348" y="3.5100875600000006"/>
      <point x="351.51008756" y="0"/>
    </contour>
    <contour>
      <point x="406" y="512" type="curve"/>
      <point x="406" y="598.156421"/>
      <point x="334.36556" y="668"/>
      <point x="246" y="668" type="curve"/>
      <point x="157.63443999999998" y="668"/>
      <point x="86" y="598.156421"/>
      <point x="86" y="512" type="curve"/>
      <point x="86" y="425.843579"/>
      <point x="157.63443999999998" y="356"/>
      <point x="246" y="356" type="curve"/>
      <point x="334.36556" y="356"/>
      <point x="406" y="425.843579"/>
    </contour>
    <contour>
      <point x="378" y="512" type="curve"/>
      <point x="378" y="441.307552"/>
      <point x="318.901587" y="384"/>
      <point x="246" y="384" type="curve"/>
      <point x="173.098413" y="384"/>
      <point x="114" y="441.307552"/>
      <point x="114" y="512" type="curve"/>
      <point x="114" y="582.692448"/>
      <point x="173.098413" y="640"/>
      <point x="246" y="640" type="curve"/>
      <point x="318.901587" y="640"/>
      <point x="378" y="582.692448"/>
    </contour>
    <contour>
      <point x="274.335535492728" y="347.3792323626601" type="line"/>
      <point x="84.33553549272801" y="-6.620767637339896" type="line"/>
      <point x="59.66446450727199" y="6.620767637339896" type="line"/>
      <point x="249.664464507272" y="360.6207676373399" type="line"/>
    </contour>
  </outline>
</glyph>
<glyph name="uni0434" format="2">
  <advance width="600"/>
  <unicode hex="0434"/>
  <outline>
    <contour>
      <point x="392" y="234" type="curve"/>
      <point x="392" y="363.2346315"/>
      <point x="328.4244345" y="468"/>
      <point x="250" y="468" type="curve"/>
      <point x="171.57556549999998" y="468"/>
      <point x="108" y="363.2346315"/>
      <point x="108" y="234" type="curve"/>
      <point x="108" y="104.7653685"/>
      <point x="171.57556549999998" y="0"/>
      <point x="250" y="0" type="curve"/>
      <point x="328.4244345" y="0"/>
      <point x="392" y="104.7653685"/>
    </contour>
    <contour>
      <point x="364" y="234" type="curve"/>
      <point x="364" y="120.2293415"/>
      <point x="312.9604615" y="28"/>
      <point x="250" y="28" type="curve"/>
      <point x="187.0395385" y="28"/>
      <point x="136" y="120.2293415"/>
      <point x="136" y="234" type="curve"/>
      <point x="136" y="347.77065849999997"/>
      <point x="187.0395385" y="440"/>
      <point x="250" y="440" type="curve"/>
      <point x="312.9604615" y="440"/>
      <point x="364" y="347.77065849999997"/>
    </contour>
    <contour>
      <point x="161.4216847087746" y="-3.9822581004056468" type="line"/>
      <point x="107.42168470877459" y="-185.98225810040566" type="line"/>
      <point x="80.57831529122541" y="-178.01774189959434" type="line"/>
      <point x="134.5783152912254" y="3.9822581004056468" type="line"/>
    </contour>
    <contour>
      <point x="365.4216847087746" y="3.9822581004056468" type="line"/>
      <point x="419.4216847087746" y="-178.01774189959434" type="line"/>
      <point x="392.5783152912254" y="-185.98225810040566" type="line"/>
      <point x="338.5783152912254" y="-3.9822581004056468" type="line"/>
    </contour>
    <contour>
      <point x="79.84" y="-190" type="curve"/>
      <point x="420.16" y="-190" type="line"/>
      <point x="424.48991244" y="-190"/>
      <point x="428" y="-186.48991243999998"/>
      <point x="428" y="-182.16" type="curve"/>
      <point x="428" y="-169.84" type="line"/>
      <point x="428" y="-165.51008756000002"/>
      <point x="424.48991244" y="-162"/>
      <point x="420.16" y="-162" type="curve"/>
      <point x="79.84" y="-162" type="line"/>
      <point x="75.51008756" y="-162"/>
      <point x="72" y="-165.51008756000002"/>
      <point x="72" y="-169.84" type="curve"/>
      <point x="72" y="-182.16" type="line"/>
      <point x="72" y="-186.48991243999998"/>
      <point x="75.51008756" y="-190"/>
    </contour>
  </outline>
</glyph>
<glyph name="uni0436" format="2">
  <advance width="600"/>
  <unicode hex="0436"/>
  <outline>
    <contour>
      <point x="243.84" y="0" type="curve"/>
      <point x="256.16" y="0" type="line"/>
      <point x="260.48991244" y="0"/>
      <point x="264.0" y="3.5100875600000006"/>
      <point x="264.0" y="7.840000000000001" type="curve"/>
      <point x="264.0" y="547.16" type="line"/>
      <point x="264.0" y="551.48991244"/>
      <point x="260.48991244" y="555"/>
      <point x="256.16" y="555" type="curve"/>
      <point x="243.84" y="555" type="line"/>
      <point x="239.51008756000002" y="555"/>
      <point x="236.0" y="551.48991244"/>
      <point x="236.0" y="547.16" type="curve"/>
      <point x="236.0" y="7.840000000000001" type="line"/>
      <point x="236.0" y="3.5100875600000006"/>
      <point x="239.51008756000002" y="0"/>
    </contour>
    <contour>
      <point x="81.74545801838723" y="562.6186754713863" type="line"/>
      <point x="441.74545801838724" y="7.618675471386306" type="line"/>
      <point x="418.25454198161276" y="-7.618675471386306" type="line"/>
      <point x="58.25454198161278" y="547.3813245286137" type="line"/>
    </contour>
    <contour>
      <point x="441.74545801838724" y="547.3813245286137" type="line"/>
      <point x="81.74545801838723" y="-7.618675471386306" type="line"/>
      <point x="58.25454198161278" y="7.618675471386306" type="line"/>
      <point x="418.25454198161276" y="562.6186754713863" type="line"/>
    </contour>
  </outline>
</glyph>
<glyph name="uni0437" format="2">
  <advance width="600"/>
  <unicode hex="0437"/>
  <outline>
    <contour>
      <point x="405.2" y="552.7" type="line"/>
      <point x="283.0" y="557.74"/>
      <point x="89.2" y="553.26"/>
      <point x="87.8" y="344.6" type="curve"/>
      <point x="86.4" y="283.55"/>
      <point x="230.2" y="280.24"/>
      <point x="246.7" y="278" type="curve"/>
      <point x="283.0" y="211.4"/>
      <point x="413.88" y="261.35"/>
      <point x="412.76" y="161.45" type="curve"/>
      <point x="411.64" y="1.9000000000000001"/>
      <point x="210.4" y="-1.18"/>
      <point x="86.4" y="4.42" type="curve"/>
      <point x="89.48" y="27.939999999999998" type="line"/>
      <point x="217.0" y="17.86"/>
      <point x="396.8" y="24.3"/>
      <point x="398.76" y="150.35" type="curve"/>
      <point x="399.88" y="250.25"/>
      <point x="266.5" y="244.7"/>
      <point x="236.8" y="278.84" type="curve"/>
      <point x="193.9" y="282.2"/>
      <point x="97.88" y="281.36"/>
      <point x="99.56" y="355.7" type="curve"/>
      <point x="101.24" y="538.14"/>
      <point x="276.4" y="542.9"/>
      <point x="406.04" y="528.06" type="curve"/>
    </contour>
  </outline>
</glyph>
<glyph name="uni0439" format="2">
  <advance width="600"/>
  <unicode hex="0439"/>
  <outline>
    <contour>
      <point x="364.0" y="615" type="curve"/>
      <point x="364.0" y="595.67003375"/>
      <point x="335.346224" y="580"/>
      <point x="300.0" y="580" type="curve"/>
      <point x="264.653776" y="580"/>
      <point x="236.0" y="595.67003375"/>
      <point x="236.0" y="615" type="curve"/>
      <point x="236.0" y="634.32996625"/>
      <point x="264.653776" y="650"/>
      <point x="300.0" y="650" type="curve"/>
      <point x="335.346224" y="650"/>
      <point x="364.0" y="634.32996625"/>
    </contour>
    <contour>
      <point x="230.0" y="579" type="line"/>
      <point x="370.0" y="579" type="line"/>
      <point x="370.0" y="617" type="line"/>
      <point x="230.0" y="617" type="line"/>
    </contour>
    <component base="n"/>
  </outline>
</glyph>
<glyph name="uni0447" format="2">
  <advance width="600"/>
  <unicode hex="0447"/>
  <outline>
    <contour>
      <point x="65.84" y="250" type="curve"/>
      <point x="78.16" y="250" type="line"/>
      <point x="82.48991244" y="250"/>
      <point x="86" y="253.51008756"/>
      <point x="86" y="257.84" type="curve"/>
      <point x="86" y="547.16" type="line"/>
      <point x="86" y="551.48991244"/>
      <point x="82.48991244" y="555"/>
      <point x="78.16" y="555" type="curve"/>
      <point x="65.84" y="555" type="line"/>
      <point x="61.51008756" y="555"/>
      <point x="58" y="551.48991244"/>
      <point x="58" y="547.16" type="curve"/>
      <point x="58" y="257.84" type="line"/>
      <point x="58" y="253.51008756"/>
      <point x="61.51008756" y="250"/>
    </contour>
    <contour>
      <point x="355.84" y="0" type="curve"/>
      <point x="368.16" y="0" type="line"/>
      <point x="372.48991244" y="0"/>
      <point x="376" y="3.5100875600000006"/>
      <point x="376" y="7.840000000000001" type="curve"/>
      <point x="376" y="547.16" type="line"/>
      <point x="376" y="551.48991244"/>
      <point x="372.48991244" y="555"/>
      <point x="368.16" y="555" type="curve"/>
      <point x="355.84" y="555" type="line"/>
      <point x="351.51008756" y="555"/>
      <point x="348" y="551.48991244"/>
      <point x="348" y="547.16" type="curve"/>
      <point x="348" y="7.840000000000001" type="line"/>
      <point x="348" y="3.5100875600000006"/>
      <point x="351.51008756" y="0"/>
    </contour>
    <contour>
      <point x="65.84" y="220" type="curve"/>
      <point x="432.16" y="220" type="line"/>
      <point x="436.48991244" y="220"/>
      <point x="440" y="223.51008756000002"/>
      <point x="440" y="227.84" type="curve"/>
      <point x="440" y="240.16" type="line"/>
      <point x="440" y="244.48991243999998"/>
      <point x="436.48991244" y="248"/>
      <point x="432.16" y="248" type="curve"/>
      <point x="65.84" y="248" type="line"/>
      <point x="61.51008756" y="248"/>
      <point x="58" y="244.48991243999998"/>
      <point x="58" y="240.16" type="curve"/>
      <point x="58" y="227.84" type="line"/>
      <point x="58" y="223.51008756000002"/>
      <point x="61.51008756" y="220"/>
    </contour>
  </outline>
</glyph>
<glyph name="uni0448" format="2">
  <advance width="600"/>
  <unicode hex="0448"/>
  <outline>
    <contour>
      <point x="65.84" y="0" type="curve"/>
      <point x="78.16" y="0" type="line"/>
      <point x="82.48991244" y="0"/>
      <point x="86" y="3.5100875600000006"/>
      <point x="86" y="7.840000000000001" type="curve"/>
      <point x="86" y="547.16" type="line"/>
      <point x="86" y="551.48991244"/>
      <point x="82.48991244" y="555"/>
      <point x="78.16" y="555" type="curve"/>
      <point x="65.84" y="555" type="line"/>
      <point x="61.51008756" y="555"/>
      <point x="58" y="551.48991244"/>
      <point x="58" y="547.16" type="curve"/>
      <point x="58" y="7.840000000000001" type="line"/>
      <point x="58" y="3.5100875600000006"/>
      <point x="61.51008756" y="0"/>
    </contour>
    <contour>
      <point x="225.84" y="0" type="curve"/>
      <point x="238.16" y="0" type="line"/>
      <point x="242.48991243999998" y="0"/>
      <point x="246" y="3.5100875600000006"/>
      <point x="246" y="7.840000000000001" type="curve"/>
      <point x="246" y="547.16" type="line"/>
      <point x="246" y="551.48991244"/>
      <point x="242.48991243999998" y="555"/>
      <point x="238.16" y="555" type="curve"/>
      <point x="225.84" y="555" type="line"/>
      <point x="221.51008756000002" y="555"/>
      <point x="218" y="551.48991244"/>
      <point x="218" y="547.16" type="curve"/>
      <point x="218" y="7.840000000000001" type="line"/>
      <point x="218" y="3.5100875600000006"/>
      <point x="221.51008756000002" y="0"/>
    </contour>
    <contour>
      <point x="355.84" y="0" type="curve"/>
      <point x="368.16" y="0" type="line"/>
      <point x="372.48991244" y="0"/>
      <point x="376" y="3.5100875600000006"/>
      <point x="376" y="7.840000000000001" type="curve"/>
      <point x="376" y="547.16" type="line"/>
      <point x="376" y="551.48991244"/>
      <point x="372.48991244" y="555"/>
      <point x="368.16" y="555" type="curve"/>
      <point x="355.84" y="555" type="line"/>
      <point x="351.51008756" y="555"/>
      <point x="348" y="551.48991244"/>
      <point x="348" y="547.16" type="curve"/>
      <point x="348" y="7.840000000000001" type="line"/>
      <point x="348" y="3.5100875600000006"/>
      <point x="351.51008756" y="0"/>
    </contour>
    <contour>
      <point x="58" y="0" type="line"/>
      <point x="440" y="0" type="line"/>
      <point x="440" y="28" type="line"/>
      <point x="58" y="28" type="line"/>
    </contour>
  </outline>
</glyph>
<glyph name="uni044E" format="2">
  <advance width="600"/>
  <unicode hex="044E"/>
  <outline>
    <contour>
      <point x="61.84" y="0" type="curve"/>
      <point x="74.16" y="0" type="line"/>
      <point x="78.48991244" y="0"/>
      <point x="82" y="3.5100875600000006"/>
      <point x="82" y="7.840000000000001" type="curve"/>
      <point x="82" y="547.16" type="line"/>
      <point x="82" y="551.48991244"/>
      <point x="78.48991244" y="555"/>
      <point x="74.16" y="555" type="curve"/>
      <point x="61.84" y="555" type="line"/>
      <point x="57.51008756" y="555"/>
      <point x="54" y="551.48991244"/>
      <point x="54" y="547.16" type="curve"/>
      <point x="54" y="7.840000000000001" type="line"/>
      <point x="54" y="3.5100875600000006"/>
      <point x="57.51008756" y="0"/>
    </contour>
    <contour>
      <point x="61.84" y="246" type="curve"/>
      <point x="166.16" y="246" type="line"/>
      <point x="170.48991243999998" y="246"/>
      <point x="174" y="249.51008756000002"/>
      <point x="174" y="253.84" type="curve"/>
      <point x="174" y="266.16" type="line"/>
      <point x="174" y="270.48991244"/>
      <point x="170.48991243999998" y="274"/>
      <point x="166.16" y="274" type="curve"/>
      <point x="61.84" y="274" type="line"/>
      <point x="57.51008756" y="274"/>
      <point x="54" y="270.48991244"/>
      <point x="54" y="266.16" type="curve"/>
      <point x="54" y="253.84" type="line"/>
      <point x="54" y="249.51008756000002"/>
      <point x="57.51008756" y="246"/>
    </contour>
    <contour>
      <point x="432" y="278" type="curve"/>
      <point x="432" y="412.757479"/>
      <point x="375.5878785" y="522"/>
      <point x="306" y="522" type="curve"/>
      <point x="236.4121215" y="522"/>
      <point x="180" y="412.757479"/>
      <point x="180" y="278" type="curve"/>
      <point x="180" y="143.242521"/>
      <point x="236.4121215" y="34"/>
      <point x="306" y="34" type="curve"/>
      <point x="375.5878785" y="34"/>
      <point x="432" y="143.242521"/>
    </contour>
    <contour>
      <point x="404" y="278" type="curve"/>
      <point x="404" y="158.70649400000002"/>
      <point x="360.1239055" y="62"/>
      <point x="306" y="62" type="curve"/>
      <point x="251.8760945" y="62"/>
      <point x="208" y="158.70649400000002"/>
      <point x="208" y="278" type="curve"/>
      <point x="208" y="397.293506"/>
      <point x="251.8760945" y="494"/>
      <point x="306" y="494" type="curve"/>
      <point x="360.1239055" y="494"/>
      <point x="404" y="397.293506"/>
    </contour>
  </outline>
</glyph>
<glyph name="uni044F" format="2">
  <advance width="600"/>
  <unicode hex="044F"/>
  <outline>
    <contour>
      <point x="355.84" y="0" type="curve"/>
      <point x="368.16" y="0" type="line"/>
      <point x="372.48991244" y="0"/>
      <point x="376" y="3.5100875600000006"/>
      <point x="376" y="7.840000000000001" type="curve"/>
      <point x="376" y="547.16" type="line"/>
      <point x="376" y="551.48991244"/>
      <point x="372.48991244" y="555"/>
      <point x="368.16" y="555" type="curve"/>
      <point x="355.84" y="555" type="line"/>
      <point x="351.51008756" y="555"/>
      <point x="348" y="551.48991244"/>
      <point x="348" y="547.16" type="curve"/>
      <point x="348" y="7.840000000000001" type="line"/>
      <point x="348" y="3.5100875600000006"/>
      <point x="351.51008756" y="0"/>
    </contour>
    <contour>
      <point x="398" y="398" type="curve"/>
      <point x="398" y="480.8427125"/>
      <point x="329.947282" y="548"/>
      <point x="246" y="548" type="curve"/>
      <point x="162.052718" y="548"/>
      <point x="94" y="480.8427125"/>
      <point x="94" y="398" type="curve"/>
      <point x="94" y="315.1572875"/>
      <point x="162.052718" y="248"/>
      <point x="246" y="248" type="curve"/>
      <point x="329.947282" y="248"/>
      <point x="398" y="315.1572875"/>
    </contour>
    <contour>
      <point x="370" y="398" type="curve"/>
      <point x="370" y="330.6212605"/>
      <point x="314.483309" y="276"/>
      <point x="246" y="276" type="curve"/>
      <point x="177.51669099999998" y="276"/>
      <point x="122" y="330.6212605"/>
      <point x="122" y="398" type="curve"/>
      <point x="122" y="465.3787395"/>
      <point x="177.51669099999998" y="520"/>
      <point x="246" y="520" type="curve"/>
      <point x="314.483309" y="520"/>
      <point x="370" y="465.3787395"/>
    </contour>
    <contour>
      <point x="261.56121374622944" y="238.10453695379454" type="line"/>
      <point x="93.56121374622941" y="-7.895463046205455" type="line"/>
      <point x="70.43878625377059" y="7.895463046205455" type="line"/>
      <point x="238.4387862537706" y="253.89546304620546" type="line"/>
    </contour>
  </outline>
</glyph>
<glyph name="uni04C1" format="2">
  <advance width="600"/>
  <unicode hex="04C1"/>
  <outline>
    <contour>
      <point x="243.84" y="0" type="curve"/>
      <point x="256.16" y="0" type="line"/>
      <point x="260.48991244" y="0"/>
      <point x="264.0" y="3.5100875600000006"/>
      <point x="264.0" y="7.840000000000001" type="curve"/>
      <point x="264.0" y="692.16" type="line"/>
      <point x="264.0" y="696.48991244"/>
      <point x="260.48991244" y="700"/>
      <point x="256.16" y="700" type="curve"/>
      <point x="243.84" y="700" type="line"/>
      <point x="239.51008756000002" y="700"/>
      <point x="236.0" y="696.48991244"/>
      <point x="236.0" y="692.16" type="curve"/>
      <point x="236.0" y="7.840000000000001" type="line"/>
      <point x="236.0" y="3.5100875600000006"/>
      <point x="239.51008756000002" y="0"/>
    </contour>
    <contour>
      <point x="86.5076535770542" y="706.2895629416043" type="line"/>
      <point x="438.5076535770542" y="6.289562941604396" type="line"/>
      <point x="413.4923464229458" y="-6.289562941604396" type="line"/>
      <point x="61.4923464229458" y="693.7104370583957" type="line"/>
    </contour>
    <contour>
      <point x="438.5076535770542" y="693.7104370583957" type="line"/>
      <point x="86.5076535770542" y="-6.289562941604396" type="line"/>
      <point x="61.4923464229458" y="6.289562941604396" type="line"/>
      <point x="413.4923464229458" y="706.2895629416043" type="line"/>
    </contour>
    <contour>
      <point x="364.0" y="764" type="curve"/>
      <point x="364.0" y="744.67003375"/>
      <point x="335.346224" y="729"/>
      <point x="300.0" y="729" type="curve"/>
      <point x="264.653776" y="729"/>
      <point x="236.0" y="744.67003375"/>
      <point x="236.0" y="764" type="curve"/>
      <point x="236.0" y="783.32996625"/>
      <point x="264.653776" y="799"/>
      <point x="300.0" y="799" type="curve"/>
      <point x="335.346224" y="799"/>
      <point x="364.0" y="783.32996625"/>
    </contour>
    <contour>
      <point x="230.0" y="728" type="line"/>
      <point x="370.0" y="728" type="line"/>
      <point x="370.0" y="766" type="line"/>
      <point x="230.0" y="766" type="line"/>
    </contour>
  </outline>
</glyph>
<glyph name="uni04DA" format="2">
  <advance width="600"/>
  <unicode hex="04DA"/>
  <outline>
    <contour>
      <point x="271.0" y="764" type="curve"/>
      <point x="271.0" y="768.97056275"/>
      <point x="266.97056275" y="773.0"/>
      <point x="262.0" y="773.0" type="curve"/>
      <point x="257.02943725" y="773.0"/>
      <point x="253.0" y="768.97056275"/>
      <point x="253.0" y="764" type="curve"/>
      <point x="253.0" y="759.02943725"/>
      <point x="257.02943725" y="755.0"/>
      <point x="262.0" y="755.0" type="curve"/>
      <point x="266.97056275" y="755.0"/>
      <point x="271.0" y="759.02943725"/>
    </contour>
    <contour>
      <point x="347.0" y="764" type="curve"/>
      <point x="347.0" y="768.97056275"/>
      <point x="342.97056275" y="773.0"/>
      <point x="338.0" y="773.0" type="curve"/>
      <point x="333.02943725" y="773.0"/>
      <point x="329.0" y="768.97056275"/>
      <point x="329.0" y="764" type="curve"/>
      <point x="329.0" y="759.02943725"/>
      <point x="333.02943725" y="755.0"/>
      <point x="338.0" y="755.0" type="curve"/>
      <point x="342.97056275" y="755.0"/>
      <point x="347.0" y="759.02943725"/>
    </contour>
    <component base="A"/>
  </outline>
</glyph>
<glyph name="uni04DC" format="2">
  <advance width="600"/>
  <unicode hex="04DC"/>
  <outline>
    <contour>
      <point x="243.84" y="0" type="curve"/>
      <point x="256.16" y="0" type="line"/>
      <point x="260.48991244" y="0"/>
      <point x="264.0" y="3.5100875600000006"/>
      <point x="264.0" y="7.840000000000001" type="curve"/>
      <point x="264.0" y="692.16" type="line"/>
      <point x="264.0" y="696.48991244"/>
      <point x="260.48991244" y="700"/>
      <point x="256.16" y="700" type="curve"/>
      <point x="243.84" y="700" type="line"/>
      <point x="239.51008756000002" y="700"/>
      <point x="236.0" y="696.48991244"/>
      <point x="236.0" y="692.16" type="curve"/>
      <point x="236.0" y="7.840000000000001" type="line"/>
      <point x="236.0" y="3.5100875600000006"/>
      <point x="239.51008756000002" y="0"/>
    </contour>
    <contour>
      <point x="86.5076535770542" y="706.2895629416043" type="line"/>
      <point x="438.5076535770542" y="6.289562941604396" type="line"/>
      <point x="413.4923464229458" y="-6.289562941604396" type="line"/>
      <point x="61.4923464229458" y="693.7104370583957" type="line"/>
    </contour>
    <contour>
      <point x="438.5076535770542" y="693.7104370583957" type="line"/>
      <point x="86.5076535770542" y="-6.289562941604396" type="line"/>
      <point x="61.4923464229458" y="6.289562941604396" type="line"/>
      <point x="413.4923464229458" y="706.2895629416043" type="line"/>
    </contour>
    <contour>
      <point x="271.0" y="764" type="curve"/>
      <point x="271.0" y="768.97056275"/>
      <point x="266.97056275" y="773.0"/>
      <point x="262.0" y="773.0" type="curve"/>
      <point x="257.02943725" y="773.0"/>
      <point x="253.0" y="768.97056275"/>
      <point x="253.0" y="764" type="curve"/>
      <point x="253.0" y="759.02943725"/>
      <point x="257.02943725" y="755.0"/>
      <point x="262.0" y="755.0" type="curve"/>
      <point x="266.97056275" y="755.0"/>
      <point x="271.0" y="759.02943725"/>
    </contour>
    <contour>
      <point x="347.0" y="764" type="curve"/>
      <point x="347.0" y="768.97056275"/>
      <point x="342.97056275" y="773.0"/>
      <point x="338.0" y="773.0" type="curve"/>
      <point x="333.02943725" y="773.0"/>
      <point x="329.0" y="768.97056275"/>
      <point x="329.0" y="764" type="curve"/>
      <point x="329.0" y="759.02943725"/>
      <point x="333.02943725" y="755.0"/>
      <point x="338.0" y="755.0" type="curve"/>
      <point x="342.97056275" y="755.0"/>
      <point x="347.0" y="759.02943725"/>
    </contour>
  </outline>
</glyph>
<glyph name="uni04DD" format="2">
  <advance width="600"/>
  <unicode hex="04DD"/>
  <outline>
    <contour>
      <point x="243.84" y="0" type="curve"/>
      <point x="256.16" y="0" type="line"/>
      <point x="260.48991244" y="0"/>
      <point x="264.0" y="3.5100875600000006"/>
      <point x="264.0" y="7.840000000000001" type="curve"/>
      <point x="264.0" y="547.16" type="line"/>
      <point x="264.0" y="551.48991244"/>
      <point x="260.48991244" y="555"/>
      <point x="256.16" y="555" type="curve"/>
      <point x="243.84" y="555" type="line"/>
      <point x="239.51008756000002" y="555"/>
      <point x="236.0" y="551.48991244"/>
      <point x="236.0" y="547.16" type="curve"/>
      <point x="236.0" y="7.840000000000001" type="line"/>
      <point x="236.0" y="3.5100875600000006"/>
      <point x="239.51008756000002" y="0"/>
    </contour>
    <contour>
      <point x="81.74545801838723" y="562.6186754713863" type="line"/>
      <point x="441.74545801838724" y="7.618675471386306" type="line"/>
      <point x="418.25454198161276" y="-7.618675471386306" type="line"/>
      <point x="58.25454198161278" y="547.3813245286137" type="line"/>
    </contour>
    <contour>
      <point x="441.74545801838724" y="547.3813245286137" type="line"/>
      <point x="81.74545801838723" y="-7.618675471386306" type="line"/>
      <point x="58.25454198161278" y="7.618675471386306" type="line"/>
      <point x="418.25454198161276" y="562.6186754713863" type="line"/>
    </contour>
    <contour>
      <point x="271.0" y="615" type="curve"/>
      <point x="271.0" y="619.97056275"/>
      <point x="266.97056275" y="624.0"/>
      <point x="262.0" y="624.0" type="curve"/>
      <point x="257.02943725" y="624.0"/>
      <point x="253.0" y="619.97056275"/>
      <point x="253.0" y="615" type="curve"/>
      <point x="253.0" y="610.02943725"/>
      <point x="257.02943725" y="606.0"/>
      <point x="262.0" y="606.0" type="curve"/>
      <point x="266.97056275" y="606.0"/>
      <point x="271.0" y="610.02943725"/>
    </contour>
    <contour>
      <point x="347.0" y="615" type="curve"/>
      <point x="347.0" y="619.97056275"/>
      <point x="342.97056275" y="624.0"/>
      <point x="338.0" y="624.0" type="curve"/>
      <point x="333.02943725" y="624.0"/>
      <point x="329.0" y="619.97056275"/>
      <point x="329.0" y="615" type="curve"/>
      <point x="329.0" y="610.02943725"/>
      <point x="333.02943725" y="606.0"/>
      <point x="338.0" y="606.0" type="curve"/>
      <point x="342.97056275" y="606.0"/>
      <point x="347.0" y="610.02943725"/>
    </contour>
  </outline>
</glyph>
<glyph name="uni04E5" format="2">
  <advance width="600"/>
  <unicode hex="04E5"/>
  <outline>
    <contour>
      <point x="271.0" y="615" type="curve"/>
      <point x="271.0" y="619.97056275"/>
      <point x="266.97056275" y="624.0"/>
      <point x="262.0" y="624.0" type="curve"/>
      <point x="257.02943725" y="624.0"/>
      <point x="253.0" y="619.97056275"/>
      <point x="253.0" y="615" type="curve"/>
      <point x="253.0" y="610.02943725"/>
      <point x="257.02943725" y="606.0"/>
      <point x="262.0" y="606.0" type="curve"/>
      <point x="266.97056275" y="606.0"/>
      <point x="271.0" y="610.02943725"/>
    </contour>
    <contour>
      <point x="347.0" y="615" type="curve"/>
      <point x="347.0" y="619.97056275"/>
      <point x="342.97056275" y="624.0"/>
      <point x="338.0" y="624.0" type="curve"/>
      <point x="333.02943725" y="624.0"/>
      <point x="329.0" y="619.97056275"/>
      <point x="329.0" y="615" type="curve"/>
      <point x="329.0" y="610.02943725"/>
      <point x="333.02943725" y="606.0"/>
      <point x="338.0" y="606.0" type="curve"/>
      <point x="342.97056275" y="606.0"/>
      <point x="347.0" y="610.02943725"/>
    </contour>
    <component base="n"/>
  </outline>
</glyph>
<glyph name="uni04F2" format="2">
  <advance width="600"/>
  <unicode hex="04F2"/>
  <outline>
    <contour>
      <point x="237.63208273409202" y="726.1685389775772" type="line"/>
      <point x="284.632082734092" y="793.1685389775772" type="line"/>
      <point x="299.367917265908" y="782.8314610224228" type="line"/>
      <point x="252.36791726590798" y="715.8314610224228" type="line"/>
    </contour>
    <contour>
      <point x="300.632082734092" y="726.1685389775772" type="line"/>
      <point x="347.632082734092" y="793.1685389775772" type="line"/>
      <point x="362.367917265908" y="782.8314610224228" type="line"/>
      <point x="315.367917265908" y="715.8314610224228" type="line"/>
    </contour>
    <component base="Y"/>
  </outline>
</glyph>
<glyph name="uni04F4" format="2">
  <advance width="600"/>
  <unicode hex="04F4"/>
  <outline>
    <contour>
      <point x="65.84" y="330" type="curve"/>
      <point x="78.16" y="330" type="line"/>
      <point x="82.48991244" y="330"/>
      <point x="86" y="333.51008756"/>
      <point x="86" y="337.84" type="curve"/>
      <point x="86" y="692.16" type="line"/>
      <point x="86" y="696.48991244"/>
      <point x="82.48991244" y="700"/>
      <point x="78.16" y="700" type="curve"/>
      <point x="65.84" y="700" type="line"/>
      <point x="61.51008756" y="700"/>
      <point x="58" y="696.48991244"/>
      <point x="58" y="692.16" type="curve"/>
      <point x="58" y="337.84" type="line"/>
      <point x="58" y="333.51008756"/>
      <point x="61.51008756" y="330"/>
    </contour>
    <contour>
      <point x="383.84" y="0" type="curve"/>
      <point x="396.16" y="0" type="line"/>
      <point x="400.48991244" y="0"/>
      <point x="404" y="3.5100875600000006"/>
      <point x="404" y="7.840000000000001" type="curve"/>
      <point x="404" y="692.16" type="line"/>
      <point x="404" y="696.48991244"/>
      <point x="400.48991244" y="700"/>
      <point x="396.16" y="700" type="curve"/>
      <point x="383.84" y="700" type="line"/>
      <point x="379.51008756" y="700"/>
      <point x="376" y="696.48991244"/>
      <point x="376" y="692.16" type="curve"/>
      <point x="376" y="7.840000000000001" type="line"/>
      <point x="376" y="3.5100875600000006"/>
      <point x="379.51008756" y="0"/>
    </contour>
    <contour>
      <point x="65.84" y="300" type="curve"/>
      <point x="432.16" y="300" type="line"/>
      <point x="436.48991244" y="300"/>
      <point x="440" y="303.51008756"/>
      <point x="440" y="307.84" type="curve"/>
      <point x="440" y="320.16" type="line"/>
      <point x="440" y="324.48991244"/>
      <point x="436.48991244" y="328"/>
      <point x="432.16" y="328" type="curve"/>
      <point x="65.84" y="328" type="line"/>
      <point x="61.51008756" y="328"/>
      <point x="58" y="324.48991244"/>
      <point x="58" y="320.16" type="curve"/>
      <point x="58" y="307.84" type="line"/>
      <point x="58" y="303.51008756"/>
      <point x="61.51008756" y="300"/>
    </contour>
    <contour>
      <point x="271.0" y="764" type="curve"/>
      <point x="271.0" y="768.97056275"/>
      <point x="266.97056275" y="773.0"/>
      <point x="262.0" y="773.0" type="curve"/>
      <point x="257.02943725" y="773.0"/>
      <point x="253.0" y="768.97056275"/>
      <point x="253.0" y="764" type="curve"/>
      <point x="253.0" y="759.02943725"/>
      <point x="257.02943725" y="755.0"/>
      <point x="262.0" y="755.0" type="curve"/>
      <point x="266.97056275" y="755.0"/>
      <point x="271.0" y="759.02943725"/>
    </contour>
    <contour>
      <point x="347.0" y="764" type="curve"/>
      <point x="347.0" y="768.97056275"/>
      <point x="342.97056275" y="773.0"/>
      <point x="338.0" y="773.0" type="curve"/>
      <point x="333.02943725" y="773.0"/>
      <point x="329.0" y="768.97056275"/>
      <point x="329.0" y="764" type="curve"/>
      <point x="329.0" y="759.02943725"/>
      <point x="333.02943725" y="755.0"/>
      <point x="338.0" y="755.0" type="curve"/>
      <point x="342.97056275" y="755.0"/>
      <point x="347.0" y="759.02943725"/>
    </contour>
  </outline>
</glyph>
<glyph name="uni04F5" format="2">
  <advance width="600"/>
  <unicode hex="04F5"/>
  <outline>
    <contour>
      <point x="65.84" y="250" type="curve"/>
      <point x="78.16" y="250" type="line"/>
      <point x="82.48991244" y="250"/>
      <point x="86" y="253.51008756"/>
      <point x="86" y="257.84" type="curve"/>
      <point x="86" y="547.16" type="line"/>
      <point x="86" y="551.48991244"/>
      <point x="82.48991244" y="555"/>
      <point x="78.16" y="555" type="curve"/>
      <point x="65.84" y="555" type="line"/>
      <point x="61.51008756" y="555"/>
      <point x="58" y="551.48991244"/>
      <point x="58" y="547.16" type="curve"/>
      <point x="58" y="257.84" type="line"/>
      <point x="58" y="253.51008756"/>
      <point x="61.51008756" y="250"/>
    </contour>
    <contour>
      <point x="355.84" y="0" type="curve"/>
      <point x="368.16" y="0" type="line"/>
      <point x="372.48991244" y="0"/>
      <point x="376" y="3.5100875600000006"/>
      <point x="376" y="7.840000000000001" type="curve"/>
      <point x="376" y="547.16" type="line"/>
      <point x="376" y="551.48991244"/>
      <point x="372.48991244" y="555"/>
      <point x="368.16" y="555" type="curve"/>
      <point x="355.84" y="555" type="line"/>
      <point x="351.51008756" y="555"/>
      <point x="348" y="551.48991244"/>
      <point x="348" y="547.16" type="curve"/>
      <point x="348" y="7.840000000000001" type="line"/>
      <point x="348" y="3.5100875600000006"/>
      <point x="351.51008756" y="0"/>
    </contour>
    <contour>
      <point x="65.84" y="220" type="curve"/>
      <point x="432.16" y="220" type="line"/>
      <point x="436.48991244" y="220"/>
      <point x="440" y="223.51008756000002"/>
      <point x="440" y="227.84" type="curve"/>
      <point x="440" y="240.16" type="line"/>
      <point x="440" y="244.48991243999998"/>
      <point x="436.48991244" y="248"/>
      <point x="432.16" y="248" type="curve"/>
      <point x="65.84" y="248" type="line"/>
      <point x="61.51008756" y="248"/>
      <point x="58" y="244.48991243999998"/>
      <point x="58" y="240.16" type="curve"/>
      <point x="58" y="227.84" type="line"/>
      <point x="58" y="223.51008756000002"/>
      <point x="61.51008756" y="220"/>
    </contour>
    <contour>
      <point x="271.0" y="615" type="curve"/>
      <point x="271.0" y="619.97056275"/>
      <point x="266.97056275" y="624.0"/>
      <point x="262.0" y="624.0" type="curve"/>
      <point x="257.02943725" y="624.0"/>
      <point x="253.0" y="619.97056275"/>
      <point x="253.0" y="615" type="curve"/>
      <point x="253.0" y="610.02943725"/>
      <point x="257.02943725" y="606.0"/>
      <point x="262.0" y="606.0" type="curve"/>
      <point x="266.97056275" y="606.0"/>
      <point x="271.0" y="610.02943725"/>
    </contour>
    <contour>
      <point x="347.0" y="615" type="curve"/>
      <point x="347.0" y="619.97056275"/>
      <point x="342.97056275" y="624.0"/>
      <point x="338.0" y="624.0" type="curve"/>
      <point x="333.02943725" y="624.0"/>
      <point x="329.0" y="619.97056275"/>
      <point x="329.0" y="615" type="curve"/>
      <point x="329.0" y="610.02943725"/>
      <point x="333.02943725" y="606.0"/>
      <point x="338.0" y="606.0" type="curve"/>
      <point x="342.97056275" y="606.0"/>
      <point x="347.0" y="610.02943725"/>
    </contour>
  </outline>
</glyph>
<glyph name="uni1EA7" format="2">
  <advance width="600"/>
  <unicode hex="1EA7"/>
  <outline>
    <contour>
      <point x="235.19544837391626" y="551.8905073778038" type="line"/>
      <point x="293.1954483739163" y="618.8905073778038" type="line"/>
      <point x="306.8045516260837" y="607.1094926221962" type="line"/>
      <point x="248.80455162608374" y="540.1094926221962" type="line"/>
    </contour>
    <contour>
      <point x="306.8045516260837" y="618.8905073778038" type="line"/>
      <point x="364.8045516260837" y="551.8905073778038" type="line"/>
      <point x="351.1954483739163" y="540.1094926221962" type="line"/>
      <point x="293.1954483739163" y="607.1094926221962" type="line"/>
    </contour>
    <contour>
      <point x="344.4460662933042" y="626.7192174578062" type="line"/>
      <point x="268.4460662933042" y="548.7192174578062" type="line"/>
      <point x="255.55393370669577" y="561.2807825421938" type="line"/>
      <point x="331.5539337066958" y="639.2807825421938" type="line"/>
    </contour>
    <component base="a"/>
  </outline>
</glyph>
